<svg xmlns="http://www.w3.org/2000/svg" width="1080" viewBox="0 0 810 810" height="1080" version="1.2">
    <defs>
        <clipPath id="a">
            <path d="M33.3 78.527h743.25v650.25H33.3Zm0 0"/>
        </clipPath>
        <clipPath id="b">
            <path d="M33.3 81h743.25v650.25H33.3Zm0 0"/>
        </clipPath>
    </defs>
    <path style="fill:#fff;fill-opacity:1;stroke:none" d="M0 0h810v810H0z"/>
    <path style="fill:#000;fill-opacity:1;stroke:none" d="M0 0h810v810H0z"/>
    <g clip-path="url(#a)">
        <path style="stroke:none;fill-rule:nonzero;fill:#fff;fill-opacity:1" d="M745.469 233.352v-61.926h-30.934V124.98H342.953l-30.969-46.445H126.2v46.445H95.23v46.446H64.273v61.926H33.305v495.421h743.144V233.352ZM157.164 109.5h138.254l21.77 32.66 9.183 13.79h357.184v15.476h-371.57l-30.97-46.446h-123.85ZM95.23 202.395h30.97v-46.446h138.25l21.769 32.656 9.199 13.79h419.117v30.957H95.23ZM745.47 697.816H64.273V264.32H745.47Zm0 0"/>
    </g>
    <path style="stroke:none;fill-rule:nonzero;fill:#fff;fill-opacity:1" d="M296.504 558.477h216.73c25.676 0 46.45-20.797 46.45-46.446v-46.449c0-25.648-20.774-46.445-46.45-46.445-25.625 0-46.445 20.797-46.445 46.445H342.953c0-25.648-20.797-46.445-46.45-46.445-25.648 0-46.444 20.797-46.444 46.445v46.45c0 25.648 20.796 46.445 46.445 46.445Zm-15.488-92.895c0-8.55 6.949-15.488 15.488-15.488 8.527 0 15.48 6.937 15.48 15.488v30.957H497.77v-30.957c0-8.55 6.937-15.488 15.464-15.488 8.551 0 15.516 6.937 15.516 15.488v46.45c0 8.546-6.965 15.488-15.516 15.488h-216.73c-8.54 0-15.488-6.942-15.488-15.489Zm0 0"/>
    <g clip-path="url(#b)">
        <path style="stroke:none;fill-rule:nonzero;fill:#fff;fill-opacity:1" d="M745.469 235.824v-61.926h-30.934v-46.445H342.953l-30.969-46.45H126.2v46.45H95.23v46.445H64.273v61.926H33.305v495.422h743.144V235.824ZM157.164 111.973h138.254l21.77 32.66 9.183 13.789h357.184v15.476h-371.57l-30.97-46.445h-123.85ZM95.23 204.867h30.97v-46.445h138.25l21.769 32.656 9.199 13.79h419.117v30.956H95.23ZM745.47 700.29H64.273V266.793H745.47Zm0 0"/>
    </g>
    <path style="stroke:none;fill-rule:nonzero;fill:#fff;fill-opacity:1" d="M296.504 560.95h216.73c25.676 0 46.45-20.798 46.45-46.45v-46.445c0-25.649-20.774-46.446-46.45-46.446-25.625 0-46.445 20.797-46.445 46.446H342.953c0-25.649-20.797-46.446-46.45-46.446-25.648 0-46.444 20.797-46.444 46.446V514.5c0 25.652 20.796 46.45 46.445 46.45Zm-15.488-92.895c0-8.551 6.949-15.489 15.488-15.489 8.527 0 15.48 6.938 15.48 15.489v30.957H497.77v-30.957c0-8.551 6.937-15.489 15.464-15.489 8.551 0 15.516 6.938 15.516 15.489V514.5c0 8.55-6.965 15.492-15.516 15.492h-216.73c-8.54 0-15.488-6.941-15.488-15.492Zm0 0"/>
</svg>
