<svg xmlns="http://www.w3.org/2000/svg" xmlns:xlink="http://www.w3.org/1999/xlink" width="1080" zoomAndPan="magnify" viewBox="0 0 810 809.999993" height="1080" preserveAspectRatio="xMidYMid meet" version="1.2"><defs><clipPath id="8a3374a18b"><path d="M 81 70.054688 L 625 70.054688 L 625 739.804688 L 81 739.804688 Z M 81 70.054688 "/></clipPath><clipPath id="f25e729d5e"><path d="M 81 70.054688 L 625 70.054688 L 625 739.804688 L 81 739.804688 Z M 81 70.054688 "/></clipPath></defs><g id="450af7233e"><rect x="0" width="810" y="0" height="809.999993" style="fill:#ffffff;fill-opacity:1;stroke:none;"/><rect x="0" width="810" y="0" height="809.999993" style="fill:#000000;fill-opacity:1;stroke:none;"/><path style=" stroke:none;fill-rule:nonzero;fill:#ffffff;fill-opacity:1;" d="M 373.558594 242.976562 L 154.140625 242.976562 C 148.394531 242.976562 143.691406 247.679688 143.691406 253.425781 C 143.691406 259.171875 148.394531 263.875 154.140625 263.875 L 373.558594 263.875 C 379.304688 263.875 384.007812 259.171875 384.007812 253.425781 C 384.007812 247.679688 379.304688 242.976562 373.558594 242.976562 Z M 373.558594 242.976562 "/><path style=" stroke:none;fill-rule:nonzero;fill:#ffffff;fill-opacity:1;" d="M 373.558594 284.773438 L 154.140625 284.773438 C 148.394531 284.773438 143.691406 289.472656 143.691406 295.222656 C 143.691406 300.96875 148.394531 305.667969 154.140625 305.667969 L 373.558594 305.667969 C 379.304688 305.667969 384.007812 300.96875 384.007812 295.222656 C 384.007812 289.472656 379.304688 284.773438 373.558594 284.773438 Z M 373.558594 284.773438 "/><path style=" stroke:none;fill-rule:nonzero;fill:#ffffff;fill-opacity:1;" d="M 373.558594 326.566406 L 154.140625 326.566406 C 148.394531 326.566406 143.691406 331.269531 143.691406 337.015625 C 143.691406 342.761719 148.394531 347.464844 154.140625 347.464844 L 373.558594 347.464844 C 379.304688 347.464844 384.007812 342.761719 384.007812 337.015625 C 384.007812 331.269531 379.304688 326.566406 373.558594 326.566406 Z M 373.558594 326.566406 "/><path style=" stroke:none;fill-rule:nonzero;fill:#ffffff;fill-opacity:1;" d="M 384.007812 634.796875 C 384.007812 629.050781 379.304688 624.347656 373.558594 624.347656 L 154.140625 624.347656 C 148.394531 624.347656 143.691406 629.050781 143.691406 634.796875 C 143.691406 640.542969 148.394531 645.246094 154.140625 645.246094 L 373.558594 645.246094 C 379.304688 645.246094 384.007812 640.542969 384.007812 634.796875 Z M 384.007812 634.796875 "/><path style=" stroke:none;fill-rule:nonzero;fill:#ffffff;fill-opacity:1;" d="M 154.140625 666.144531 C 148.394531 666.144531 143.691406 670.84375 143.691406 676.589844 C 143.691406 682.339844 148.394531 687.039062 154.140625 687.039062 L 305.644531 687.039062 C 311.390625 687.039062 316.089844 682.339844 316.089844 676.589844 C 316.089844 670.84375 311.390625 666.144531 305.644531 666.144531 Z M 154.140625 666.144531 "/><path style=" stroke:none;fill-rule:nonzero;fill:#ffffff;fill-opacity:1;" d="M 305.644531 478.070312 C 311.390625 478.070312 316.089844 473.367188 316.089844 467.621094 C 316.089844 461.875 311.390625 457.171875 305.644531 457.171875 L 154.140625 457.171875 C 148.394531 457.171875 143.691406 461.875 143.691406 467.621094 C 143.691406 473.367188 148.394531 478.070312 154.140625 478.070312 Z M 305.644531 478.070312 "/><path style=" stroke:none;fill-rule:nonzero;fill:#ffffff;fill-opacity:1;" d="M 143.691406 561.65625 C 143.691406 573.152344 153.09375 582.554688 164.589844 582.554688 L 206.382812 582.554688 C 217.875 582.554688 227.277344 573.152344 227.277344 561.65625 L 227.277344 519.863281 C 227.277344 508.371094 217.875 498.96875 206.382812 498.96875 L 164.589844 498.96875 C 153.09375 498.96875 143.691406 508.371094 143.691406 519.863281 Z M 164.589844 519.863281 L 206.382812 519.863281 L 206.382812 561.65625 L 164.589844 561.65625 Z M 164.589844 519.863281 "/><path style=" stroke:none;fill-rule:nonzero;fill:#ffffff;fill-opacity:1;" d="M 367.289062 430.007812 L 381.917969 415.378906 L 154.140625 415.378906 C 148.394531 415.378906 143.691406 420.082031 143.691406 425.828125 C 143.691406 431.574219 148.394531 436.277344 154.140625 436.277344 L 362.066406 436.277344 C 363.632812 433.664062 365.199219 431.574219 367.289062 430.007812 Z M 367.289062 430.007812 "/><path style=" stroke:none;fill-rule:nonzero;fill:#ffffff;fill-opacity:1;" d="M 560.585938 236.1875 C 557.976562 227.828125 550.136719 222.082031 540.734375 222.082031 L 436.25 222.082031 C 424.757812 222.082031 415.351562 231.484375 415.351562 242.976562 L 415.351562 347.464844 C 415.351562 356.867188 421.621094 364.179688 429.457031 367.316406 L 449.308594 347.464844 L 436.25 347.464844 L 436.25 242.976562 L 540.734375 242.976562 L 540.734375 256.039062 Z M 560.585938 236.1875 "/><path style=" stroke:none;fill-rule:nonzero;fill:#ffffff;fill-opacity:1;" d="M 467.074219 539.195312 L 457.148438 542.328125 L 457.148438 561.65625 C 457.148438 573.152344 466.550781 582.554688 478.042969 582.554688 L 519.835938 582.554688 C 531.332031 582.554688 540.734375 573.152344 540.734375 561.65625 L 540.734375 519.863281 C 540.734375 508.371094 531.332031 498.96875 519.835938 498.96875 L 512 498.96875 L 491.105469 519.863281 L 519.835938 519.863281 L 519.835938 561.65625 L 478.042969 561.65625 L 478.042969 532.925781 C 474.910156 535.535156 471.253906 537.625 467.074219 539.195312 Z M 467.074219 539.195312 "/><path style=" stroke:none;fill-rule:nonzero;fill:#ffffff;fill-opacity:1;" d="M 336.464844 519.863281 L 342.734375 498.96875 L 321.316406 498.96875 C 309.824219 498.96875 300.417969 508.371094 300.417969 519.863281 L 300.417969 561.65625 C 300.417969 573.152344 309.824219 582.554688 321.316406 582.554688 L 363.109375 582.554688 C 372.511719 582.554688 380.871094 575.761719 382.960938 566.882812 L 373.035156 570.015625 C 369.902344 571.585938 366.246094 572.105469 363.109375 572.105469 C 354.75 572.105469 347.4375 568.972656 341.167969 563.226562 C 340.644531 562.703125 340.125 562.179688 339.601562 561.65625 L 321.316406 561.65625 L 321.316406 519.863281 Z M 336.464844 519.863281 "/><g clip-rule="nonzero" clip-path="url(#8a3374a18b)"><path style=" stroke:none;fill-rule:nonzero;fill:#ffffff;fill-opacity:1;" d="M 624.324219 172.449219 L 624.324219 112.371094 C 624.324219 89.386719 605.515625 70.578125 582.527344 70.578125 L 122.792969 70.578125 C 99.808594 70.578125 81 89.386719 81 112.371094 L 81 697.488281 C 81 720.476562 99.808594 739.28125 122.792969 739.28125 L 582.527344 739.28125 C 605.515625 739.28125 624.324219 720.476562 624.324219 697.488281 L 624.324219 386.644531 L 603.425781 407.542969 L 603.425781 697.488281 C 603.425781 708.980469 594.023438 718.386719 582.527344 718.386719 L 122.792969 718.386719 C 111.300781 718.386719 101.898438 708.980469 101.898438 697.488281 L 101.898438 164.613281 L 603.425781 164.613281 L 603.425781 193.347656 Z M 101.898438 143.71875 L 101.898438 112.371094 C 101.898438 100.878906 111.300781 91.476562 122.792969 91.476562 L 582.527344 91.476562 C 594.023438 91.476562 603.425781 100.878906 603.425781 112.371094 L 603.425781 143.71875 Z M 101.898438 143.71875 "/></g><path style=" stroke:none;fill-rule:nonzero;fill:#ffffff;fill-opacity:1;" d="M 683.878906 157.300781 C 679.699219 153.121094 673.429688 153.121094 669.25 157.300781 L 381.917969 444.632812 C 380.871094 445.679688 379.828125 447.246094 379.304688 448.8125 L 353.183594 537.625 C 352.140625 541.285156 353.183594 545.460938 355.796875 548.074219 C 357.886719 550.164062 360.496094 551.210938 363.109375 551.210938 C 364.15625 551.210938 365.199219 551.210938 366.246094 550.6875 L 460.28125 519.339844 C 461.847656 518.820312 463.414062 517.773438 464.460938 516.730469 L 746.570312 234.621094 C 750.75 230.441406 750.75 224.171875 746.570312 219.992188 Z M 378.78125 524.566406 L 398.636719 457.695312 L 399.679688 456.652344 L 445.652344 502.625 Z M 462.371094 489.5625 L 414.308594 441.5 L 639.996094 215.8125 L 688.058594 263.875 Z M 702.6875 249.246094 L 654.625 201.183594 L 676.566406 179.242188 L 724.628906 227.304688 Z M 702.6875 249.246094 "/><path style=" stroke:none;fill-rule:nonzero;fill:#ffffff;fill-opacity:1;" d="M 373.558594 242.976562 L 154.140625 242.976562 C 148.394531 242.976562 143.691406 247.679688 143.691406 253.425781 C 143.691406 259.171875 148.394531 263.875 154.140625 263.875 L 373.558594 263.875 C 379.304688 263.875 384.007812 259.171875 384.007812 253.425781 C 384.007812 247.679688 379.304688 242.976562 373.558594 242.976562 Z M 373.558594 242.976562 "/><path style=" stroke:none;fill-rule:nonzero;fill:#ffffff;fill-opacity:1;" d="M 373.558594 284.773438 L 154.140625 284.773438 C 148.394531 284.773438 143.691406 289.472656 143.691406 295.222656 C 143.691406 300.96875 148.394531 305.667969 154.140625 305.667969 L 373.558594 305.667969 C 379.304688 305.667969 384.007812 300.96875 384.007812 295.222656 C 384.007812 289.472656 379.304688 284.773438 373.558594 284.773438 Z M 373.558594 284.773438 "/><path style=" stroke:none;fill-rule:nonzero;fill:#ffffff;fill-opacity:1;" d="M 373.558594 326.566406 L 154.140625 326.566406 C 148.394531 326.566406 143.691406 331.269531 143.691406 337.015625 C 143.691406 342.761719 148.394531 347.464844 154.140625 347.464844 L 373.558594 347.464844 C 379.304688 347.464844 384.007812 342.761719 384.007812 337.015625 C 384.007812 331.269531 379.304688 326.566406 373.558594 326.566406 Z M 373.558594 326.566406 "/><path style=" stroke:none;fill-rule:nonzero;fill:#ffffff;fill-opacity:1;" d="M 384.007812 634.796875 C 384.007812 629.050781 379.304688 624.347656 373.558594 624.347656 L 154.140625 624.347656 C 148.394531 624.347656 143.691406 629.050781 143.691406 634.796875 C 143.691406 640.542969 148.394531 645.246094 154.140625 645.246094 L 373.558594 645.246094 C 379.304688 645.246094 384.007812 640.542969 384.007812 634.796875 Z M 384.007812 634.796875 "/><path style=" stroke:none;fill-rule:nonzero;fill:#ffffff;fill-opacity:1;" d="M 154.140625 666.144531 C 148.394531 666.144531 143.691406 670.84375 143.691406 676.589844 C 143.691406 682.339844 148.394531 687.039062 154.140625 687.039062 L 305.644531 687.039062 C 311.390625 687.039062 316.089844 682.339844 316.089844 676.589844 C 316.089844 670.84375 311.390625 666.144531 305.644531 666.144531 Z M 154.140625 666.144531 "/><path style=" stroke:none;fill-rule:nonzero;fill:#ffffff;fill-opacity:1;" d="M 305.644531 478.070312 C 311.390625 478.070312 316.089844 473.367188 316.089844 467.621094 C 316.089844 461.875 311.390625 457.171875 305.644531 457.171875 L 154.140625 457.171875 C 148.394531 457.171875 143.691406 461.875 143.691406 467.621094 C 143.691406 473.367188 148.394531 478.070312 154.140625 478.070312 Z M 305.644531 478.070312 "/><path style=" stroke:none;fill-rule:nonzero;fill:#ffffff;fill-opacity:1;" d="M 143.691406 561.65625 C 143.691406 573.152344 153.09375 582.554688 164.589844 582.554688 L 206.382812 582.554688 C 217.875 582.554688 227.277344 573.152344 227.277344 561.65625 L 227.277344 519.863281 C 227.277344 508.371094 217.875 498.96875 206.382812 498.96875 L 164.589844 498.96875 C 153.09375 498.96875 143.691406 508.371094 143.691406 519.863281 Z M 164.589844 519.863281 L 206.382812 519.863281 L 206.382812 561.65625 L 164.589844 561.65625 Z M 164.589844 519.863281 "/><path style=" stroke:none;fill-rule:nonzero;fill:#ffffff;fill-opacity:1;" d="M 367.289062 430.007812 L 381.917969 415.378906 L 154.140625 415.378906 C 148.394531 415.378906 143.691406 420.082031 143.691406 425.828125 C 143.691406 431.574219 148.394531 436.277344 154.140625 436.277344 L 362.066406 436.277344 C 363.632812 433.664062 365.199219 431.574219 367.289062 430.007812 Z M 367.289062 430.007812 "/><path style=" stroke:none;fill-rule:nonzero;fill:#ffffff;fill-opacity:1;" d="M 560.585938 236.1875 C 557.976562 227.828125 550.136719 222.082031 540.734375 222.082031 L 436.25 222.082031 C 424.757812 222.082031 415.351562 231.484375 415.351562 242.976562 L 415.351562 347.464844 C 415.351562 356.867188 421.621094 364.179688 429.457031 367.316406 L 449.308594 347.464844 L 436.25 347.464844 L 436.25 242.976562 L 540.734375 242.976562 L 540.734375 256.039062 Z M 560.585938 236.1875 "/><path style=" stroke:none;fill-rule:nonzero;fill:#ffffff;fill-opacity:1;" d="M 467.074219 539.195312 L 457.148438 542.328125 L 457.148438 561.65625 C 457.148438 573.152344 466.550781 582.554688 478.042969 582.554688 L 519.835938 582.554688 C 531.332031 582.554688 540.734375 573.152344 540.734375 561.65625 L 540.734375 519.863281 C 540.734375 508.371094 531.332031 498.96875 519.835938 498.96875 L 512 498.96875 L 491.105469 519.863281 L 519.835938 519.863281 L 519.835938 561.65625 L 478.042969 561.65625 L 478.042969 532.925781 C 474.910156 535.535156 471.253906 537.625 467.074219 539.195312 Z M 467.074219 539.195312 "/><path style=" stroke:none;fill-rule:nonzero;fill:#ffffff;fill-opacity:1;" d="M 336.464844 519.863281 L 342.734375 498.96875 L 321.316406 498.96875 C 309.824219 498.96875 300.417969 508.371094 300.417969 519.863281 L 300.417969 561.65625 C 300.417969 573.152344 309.824219 582.554688 321.316406 582.554688 L 363.109375 582.554688 C 372.511719 582.554688 380.871094 575.761719 382.960938 566.882812 L 373.035156 570.015625 C 369.902344 571.585938 366.246094 572.105469 363.109375 572.105469 C 354.75 572.105469 347.4375 568.972656 341.167969 563.226562 C 340.644531 562.703125 340.125 562.179688 339.601562 561.65625 L 321.316406 561.65625 L 321.316406 519.863281 Z M 336.464844 519.863281 "/><g clip-rule="nonzero" clip-path="url(#f25e729d5e)"><path style=" stroke:none;fill-rule:nonzero;fill:#ffffff;fill-opacity:1;" d="M 624.324219 172.449219 L 624.324219 112.371094 C 624.324219 89.386719 605.515625 70.578125 582.527344 70.578125 L 122.792969 70.578125 C 99.808594 70.578125 81 89.386719 81 112.371094 L 81 697.488281 C 81 720.476562 99.808594 739.28125 122.792969 739.28125 L 582.527344 739.28125 C 605.515625 739.28125 624.324219 720.476562 624.324219 697.488281 L 624.324219 386.644531 L 603.425781 407.542969 L 603.425781 697.488281 C 603.425781 708.980469 594.023438 718.386719 582.527344 718.386719 L 122.792969 718.386719 C 111.300781 718.386719 101.898438 708.980469 101.898438 697.488281 L 101.898438 164.613281 L 603.425781 164.613281 L 603.425781 193.347656 Z M 101.898438 143.71875 L 101.898438 112.371094 C 101.898438 100.878906 111.300781 91.476562 122.792969 91.476562 L 582.527344 91.476562 C 594.023438 91.476562 603.425781 100.878906 603.425781 112.371094 L 603.425781 143.71875 Z M 101.898438 143.71875 "/></g><path style=" stroke:none;fill-rule:nonzero;fill:#ffffff;fill-opacity:1;" d="M 683.878906 157.300781 C 679.699219 153.121094 673.429688 153.121094 669.25 157.300781 L 381.917969 444.632812 C 380.871094 445.679688 379.828125 447.246094 379.304688 448.8125 L 353.183594 537.625 C 352.140625 541.285156 353.183594 545.460938 355.796875 548.074219 C 357.886719 550.164062 360.496094 551.210938 363.109375 551.210938 C 364.15625 551.210938 365.199219 551.210938 366.246094 550.6875 L 460.28125 519.339844 C 461.847656 518.820312 463.414062 517.773438 464.460938 516.730469 L 746.570312 234.621094 C 750.75 230.441406 750.75 224.171875 746.570312 219.992188 Z M 378.78125 524.566406 L 398.636719 457.695312 L 399.679688 456.652344 L 445.652344 502.625 Z M 462.371094 489.5625 L 414.308594 441.5 L 639.996094 215.8125 L 688.058594 263.875 Z M 702.6875 249.246094 L 654.625 201.183594 L 676.566406 179.242188 L 724.628906 227.304688 Z M 702.6875 249.246094 "/></g></svg>