<svg xmlns="http://www.w3.org/2000/svg" xmlns:xlink="http://www.w3.org/1999/xlink" width="1080" zoomAndPan="magnify" viewBox="0 0 810 809.999993" height="1080" preserveAspectRatio="xMidYMid meet" version="1.2"><defs><clipPath id="b6040c2d72"><path d="M 228.328125 84 L 581.578125 84 L 581.578125 725 L 228.328125 725 Z M 228.328125 84 "/></clipPath><clipPath id="812abec21b"><path d="M 228.328125 84 L 581.578125 84 L 581.578125 725 L 228.328125 725 Z M 228.328125 84 "/></clipPath></defs><g id="156afc3b1b"><rect x="0" width="810" y="0" height="809.999993" style="fill:#ffffff;fill-opacity:1;stroke:none;"/><rect x="0" width="810" y="0" height="809.999993" style="fill:#000000;fill-opacity:1;stroke:none;"/><path style=" stroke:none;fill-rule:nonzero;fill:#ffffff;fill-opacity:1;" d="M 348.640625 122.257812 L 461.269531 122.257812 C 461.914062 122.257812 462.550781 122.320312 463.179688 122.445312 C 463.8125 122.570312 464.425781 122.757812 465.019531 123.003906 C 465.613281 123.25 466.175781 123.550781 466.710938 123.90625 C 467.246094 124.265625 467.742188 124.671875 468.195312 125.125 C 468.652344 125.578125 469.058594 126.074219 469.414062 126.609375 C 469.773438 127.144531 470.074219 127.707031 470.320312 128.300781 C 470.566406 128.898438 470.753906 129.507812 470.878906 130.140625 C 471.003906 130.769531 471.066406 131.40625 471.066406 132.050781 C 471.066406 132.695312 471.003906 133.332031 470.878906 133.960938 C 470.753906 134.59375 470.566406 135.203125 470.320312 135.796875 C 470.074219 136.390625 469.773438 136.957031 469.414062 137.492188 C 469.058594 138.027344 468.652344 138.519531 468.195312 138.976562 C 467.742188 139.429688 467.246094 139.835938 466.710938 140.191406 C 466.175781 140.550781 465.613281 140.851562 465.019531 141.097656 C 464.425781 141.34375 463.8125 141.527344 463.179688 141.652344 C 462.550781 141.78125 461.914062 141.84375 461.269531 141.839844 L 348.640625 141.839844 C 347.996094 141.84375 347.359375 141.78125 346.726562 141.652344 C 346.097656 141.527344 345.484375 141.34375 344.890625 141.097656 C 344.296875 140.851562 343.730469 140.550781 343.199219 140.191406 C 342.664062 139.835938 342.167969 139.429688 341.710938 138.976562 C 341.257812 138.519531 340.851562 138.027344 340.496094 137.492188 C 340.136719 136.957031 339.835938 136.390625 339.589844 135.796875 C 339.34375 135.203125 339.15625 134.59375 339.03125 133.960938 C 338.90625 133.332031 338.84375 132.695312 338.84375 132.050781 C 338.84375 131.40625 338.90625 130.769531 339.03125 130.140625 C 339.15625 129.507812 339.34375 128.898438 339.589844 128.300781 C 339.835938 127.707031 340.136719 127.144531 340.496094 126.609375 C 340.851562 126.074219 341.257812 125.578125 341.710938 125.125 C 342.167969 124.671875 342.664062 124.265625 343.199219 123.90625 C 343.730469 123.550781 344.296875 123.25 344.890625 123.003906 C 345.484375 122.757812 346.097656 122.570312 346.726562 122.445312 C 347.359375 122.320312 347.996094 122.257812 348.640625 122.257812 Z M 427.351562 694.242188 L 382.554688 694.242188 C 381.691406 694.242188 380.832031 694.199219 379.972656 694.117188 C 379.113281 694.03125 378.257812 693.90625 377.414062 693.734375 C 376.566406 693.566406 375.730469 693.359375 374.902344 693.105469 C 374.078125 692.855469 373.265625 692.566406 372.464844 692.234375 C 371.667969 691.90625 370.890625 691.535156 370.128906 691.128906 C 369.367188 690.722656 368.625 690.277344 367.910156 689.800781 C 367.191406 689.320312 366.496094 688.804688 365.832031 688.257812 C 365.164062 687.710938 364.523438 687.132812 363.914062 686.519531 C 363.300781 685.910156 362.722656 685.269531 362.175781 684.601562 C 361.628906 683.9375 361.113281 683.242188 360.632812 682.523438 C 360.15625 681.808594 359.710938 681.066406 359.304688 680.304688 C 358.898438 679.542969 358.527344 678.765625 358.199219 677.964844 C 357.867188 677.167969 357.578125 676.355469 357.324219 675.53125 C 357.074219 674.703125 356.867188 673.867188 356.699219 673.019531 C 356.527344 672.171875 356.402344 671.320312 356.316406 670.460938 C 356.234375 669.601562 356.191406 668.742188 356.191406 667.878906 C 356.191406 667.011719 356.234375 666.152344 356.316406 665.292969 C 356.402344 664.433594 356.527344 663.582031 356.699219 662.734375 C 356.867188 661.886719 357.074219 661.050781 357.324219 660.222656 C 357.578125 659.398438 357.867188 658.585938 358.199219 657.789062 C 358.527344 656.988281 358.898438 656.210938 359.304688 655.449219 C 359.710938 654.6875 360.15625 653.945312 360.632812 653.230469 C 361.113281 652.511719 361.628906 651.816406 362.175781 651.152344 C 362.722656 650.484375 363.300781 649.84375 363.914062 649.234375 C 364.523438 648.621094 365.164062 648.042969 365.832031 647.496094 C 366.496094 646.949219 367.191406 646.433594 367.910156 645.953125 C 368.625 645.476562 369.367188 645.03125 370.128906 644.625 C 370.890625 644.21875 371.667969 643.847656 372.464844 643.519531 C 373.265625 643.1875 374.078125 642.898438 374.902344 642.648438 C 375.730469 642.394531 376.566406 642.1875 377.414062 642.019531 C 378.257812 641.847656 379.113281 641.722656 379.972656 641.636719 C 380.832031 641.554688 381.691406 641.511719 382.554688 641.511719 L 427.351562 641.511719 C 428.214844 641.511719 429.078125 641.554688 429.9375 641.636719 C 430.796875 641.722656 431.648438 641.847656 432.496094 642.019531 C 433.34375 642.1875 434.179688 642.394531 435.007812 642.648438 C 435.832031 642.898438 436.644531 643.1875 437.441406 643.519531 C 438.238281 643.847656 439.019531 644.21875 439.78125 644.625 C 440.542969 645.03125 441.28125 645.476562 442 645.953125 C 442.71875 646.433594 443.410156 646.949219 444.078125 647.496094 C 444.746094 648.042969 445.386719 648.621094 445.996094 649.234375 C 446.605469 649.84375 447.1875 650.484375 447.734375 651.152344 C 448.28125 651.816406 448.796875 652.511719 449.273438 653.230469 C 449.753906 653.945312 450.199219 654.6875 450.605469 655.449219 C 451.011719 656.210938 451.382812 656.988281 451.710938 657.789062 C 452.042969 658.585938 452.332031 659.398438 452.582031 660.222656 C 452.832031 661.050781 453.042969 661.886719 453.210938 662.734375 C 453.378906 663.582031 453.507812 664.433594 453.589844 665.292969 C 453.675781 666.152344 453.71875 667.011719 453.71875 667.878906 C 453.71875 668.742188 453.675781 669.601562 453.589844 670.460938 C 453.507812 671.320312 453.378906 672.171875 453.210938 673.019531 C 453.042969 673.867188 452.832031 674.703125 452.582031 675.53125 C 452.332031 676.355469 452.042969 677.167969 451.710938 677.964844 C 451.382812 678.765625 451.011719 679.542969 450.605469 680.304688 C 450.199219 681.066406 449.753906 681.808594 449.273438 682.523438 C 448.796875 683.242188 448.28125 683.9375 447.734375 684.601562 C 447.1875 685.269531 446.605469 685.910156 445.996094 686.519531 C 445.386719 687.132812 444.746094 687.710938 444.078125 688.257812 C 443.410156 688.804688 442.71875 689.320312 442 689.800781 C 441.28125 690.277344 440.542969 690.722656 439.78125 691.128906 C 439.019531 691.535156 438.238281 691.90625 437.441406 692.234375 C 436.644531 692.566406 435.832031 692.855469 435.007812 693.105469 C 434.179688 693.359375 433.34375 693.566406 432.496094 693.734375 C 431.648438 693.90625 430.796875 694.03125 429.9375 694.117188 C 429.078125 694.199219 428.214844 694.242188 427.351562 694.242188 Z M 545.742188 630.121094 L 264.167969 630.121094 L 264.167969 162.960938 L 545.742188 162.960938 Z M 545.742188 630.121094 "/><g clip-rule="nonzero" clip-path="url(#b6040c2d72)"><path style=" stroke:none;fill-rule:nonzero;fill:#ffffff;fill-opacity:1;" d="M 532.433594 84.949219 L 277.476562 84.949219 C 275.871094 84.953125 274.273438 85.03125 272.675781 85.191406 C 271.078125 85.351562 269.492188 85.589844 267.917969 85.902344 C 266.34375 86.21875 264.789062 86.609375 263.253906 87.074219 C 261.71875 87.542969 260.210938 88.082031 258.726562 88.699219 C 257.246094 89.3125 255.796875 90 254.382812 90.757812 C 252.96875 91.515625 251.59375 92.339844 250.257812 93.230469 C 248.925781 94.125 247.636719 95.078125 246.398438 96.097656 C 245.15625 97.117188 243.96875 98.191406 242.832031 99.328125 C 241.699219 100.460938 240.621094 101.648438 239.605469 102.890625 C 238.585938 104.128906 237.628906 105.417969 236.738281 106.75 C 235.847656 108.085938 235.023438 109.460938 234.265625 110.875 C 233.507812 112.289062 232.820312 113.738281 232.207031 115.222656 C 231.589844 116.703125 231.050781 118.210938 230.582031 119.746094 C 230.117188 121.28125 229.726562 122.835938 229.410156 124.410156 C 229.09375 125.984375 228.859375 127.570312 228.699219 129.167969 C 228.539062 130.765625 228.460938 132.367188 228.457031 133.96875 L 228.457031 675.875 C 228.460938 677.480469 228.539062 679.082031 228.699219 680.679688 C 228.859375 682.277344 229.09375 683.863281 229.410156 685.433594 C 229.726562 687.007812 230.117188 688.5625 230.582031 690.097656 C 231.050781 691.632812 231.589844 693.144531 232.207031 694.625 C 232.820312 696.109375 233.507812 697.554688 234.265625 698.972656 C 235.023438 700.386719 235.847656 701.761719 236.738281 703.09375 C 237.628906 704.429688 238.585938 705.714844 239.605469 706.957031 C 240.621094 708.199219 241.699219 709.386719 242.832031 710.519531 C 243.96875 711.65625 245.15625 712.730469 246.398438 713.75 C 247.636719 714.769531 248.925781 715.722656 250.257812 716.613281 C 251.59375 717.507812 252.96875 718.332031 254.382812 719.089844 C 255.796875 719.847656 257.246094 720.53125 258.726562 721.148438 C 260.210938 721.761719 261.71875 722.304688 263.253906 722.769531 C 264.789062 723.238281 266.34375 723.628906 267.917969 723.945312 C 269.492188 724.257812 271.078125 724.496094 272.675781 724.652344 C 274.273438 724.8125 275.871094 724.894531 277.476562 724.894531 L 532.433594 724.894531 C 534.035156 724.894531 535.636719 724.8125 537.234375 724.652344 C 538.832031 724.496094 540.417969 724.257812 541.992188 723.945312 C 543.5625 723.628906 545.117188 723.238281 546.65625 722.769531 C 548.191406 722.304688 549.699219 721.761719 551.179688 721.148438 C 552.664062 720.53125 554.113281 719.847656 555.527344 719.089844 C 556.941406 718.332031 558.316406 717.507812 559.652344 716.613281 C 560.984375 715.722656 562.273438 714.769531 563.511719 713.75 C 564.753906 712.730469 565.941406 711.65625 567.074219 710.519531 C 568.210938 709.386719 569.285156 708.199219 570.304688 706.957031 C 571.324219 705.714844 572.277344 704.429688 573.171875 703.09375 C 574.0625 701.761719 574.886719 700.386719 575.644531 698.972656 C 576.402344 697.554688 577.089844 696.109375 577.703125 694.625 C 578.316406 693.144531 578.859375 691.632812 579.328125 690.097656 C 579.792969 688.5625 580.183594 687.007812 580.5 685.433594 C 580.8125 683.863281 581.050781 682.277344 581.210938 680.679688 C 581.367188 679.082031 581.449219 677.480469 581.453125 675.875 L 581.453125 133.96875 C 581.449219 132.367188 581.367188 130.765625 581.210938 129.167969 C 581.050781 127.570312 580.8125 125.984375 580.5 124.410156 C 580.183594 122.835938 579.792969 121.28125 579.328125 119.746094 C 578.859375 118.210938 578.316406 116.703125 577.703125 115.222656 C 577.089844 113.738281 576.402344 112.289062 575.644531 110.875 C 574.886719 109.460938 574.0625 108.085938 573.171875 106.75 C 572.277344 105.417969 571.324219 104.128906 570.304688 102.890625 C 569.285156 101.648438 568.210938 100.460938 567.074219 99.328125 C 565.941406 98.191406 564.753906 97.117188 563.511719 96.097656 C 562.273438 95.078125 560.984375 94.125 559.652344 93.230469 C 558.316406 92.339844 556.941406 91.515625 555.527344 90.757812 C 554.113281 90 552.664062 89.3125 551.179688 88.699219 C 549.699219 88.082031 548.191406 87.542969 546.65625 87.074219 C 545.117188 86.609375 543.5625 86.21875 541.992188 85.902344 C 540.417969 85.589844 538.832031 85.351562 537.234375 85.191406 C 535.636719 85.03125 534.035156 84.953125 532.433594 84.949219 Z M 561.871094 675.875 C 561.871094 676.839844 561.820312 677.800781 561.726562 678.761719 C 561.632812 679.722656 561.492188 680.671875 561.304688 681.621094 C 561.117188 682.566406 560.882812 683.5 560.601562 684.421875 C 560.320312 685.34375 559.996094 686.25 559.628906 687.140625 C 559.257812 688.03125 558.847656 688.902344 558.394531 689.753906 C 557.9375 690.601562 557.445312 691.429688 556.90625 692.230469 C 556.371094 693.03125 555.800781 693.804688 555.1875 694.550781 C 554.574219 695.296875 553.929688 696.011719 553.246094 696.691406 C 552.566406 697.375 551.851562 698.019531 551.105469 698.632812 C 550.363281 699.242188 549.589844 699.816406 548.785156 700.351562 C 547.984375 700.886719 547.160156 701.382812 546.308594 701.835938 C 545.457031 702.292969 544.585938 702.703125 543.695312 703.074219 C 542.804688 703.441406 541.898438 703.765625 540.976562 704.046875 C 540.054688 704.324219 539.121094 704.558594 538.175781 704.75 C 537.230469 704.9375 536.277344 705.078125 535.316406 705.171875 C 534.359375 705.265625 533.394531 705.3125 532.433594 705.3125 L 277.476562 705.3125 C 276.511719 705.3125 275.550781 705.265625 274.59375 705.171875 C 273.632812 705.078125 272.679688 704.9375 271.734375 704.75 C 270.789062 704.558594 269.855469 704.324219 268.933594 704.046875 C 268.007812 703.765625 267.101562 703.441406 266.210938 703.074219 C 265.320312 702.703125 264.449219 702.292969 263.601562 701.835938 C 262.75 701.382812 261.925781 700.886719 261.121094 700.351562 C 260.320312 699.816406 259.546875 699.242188 258.800781 698.632812 C 258.058594 698.019531 257.34375 697.375 256.660156 696.691406 C 255.980469 696.011719 255.332031 695.296875 254.722656 694.550781 C 254.109375 693.804688 253.535156 693.03125 253 692.230469 C 252.464844 691.429688 251.96875 690.601562 251.515625 689.753906 C 251.0625 688.902344 250.648438 688.03125 250.28125 687.140625 C 249.910156 686.25 249.585938 685.34375 249.308594 684.421875 C 249.027344 683.5 248.792969 682.566406 248.605469 681.621094 C 248.417969 680.671875 248.277344 679.722656 248.179688 678.761719 C 248.085938 677.800781 248.039062 676.839844 248.039062 675.875 L 248.039062 133.96875 C 248.039062 133.007812 248.085938 132.042969 248.183594 131.085938 C 248.277344 130.125 248.417969 129.171875 248.605469 128.226562 C 248.792969 127.28125 249.027344 126.347656 249.308594 125.425781 C 249.585938 124.503906 249.910156 123.597656 250.28125 122.703125 C 250.648438 121.8125 251.0625 120.945312 251.515625 120.09375 C 251.96875 119.242188 252.464844 118.417969 253 117.617188 C 253.535156 116.8125 254.109375 116.039062 254.722656 115.296875 C 255.332031 114.550781 255.980469 113.835938 256.660156 113.15625 C 257.34375 112.472656 258.058594 111.828125 258.800781 111.214844 C 259.546875 110.601562 260.320312 110.03125 261.121094 109.492188 C 261.925781 108.957031 262.75 108.464844 263.601562 108.007812 C 264.449219 107.554688 265.320312 107.140625 266.210938 106.773438 C 267.101562 106.40625 268.007812 106.082031 268.933594 105.800781 C 269.855469 105.519531 270.789062 105.285156 271.734375 105.097656 C 272.679688 104.910156 273.632812 104.769531 274.59375 104.675781 C 275.550781 104.578125 276.511719 104.53125 277.476562 104.53125 L 532.433594 104.53125 C 533.394531 104.53125 534.359375 104.578125 535.316406 104.675781 C 536.277344 104.769531 537.230469 104.910156 538.175781 105.097656 C 539.121094 105.285156 540.054688 105.519531 540.976562 105.800781 C 541.898438 106.082031 542.804688 106.40625 543.695312 106.773438 C 544.585938 107.140625 545.457031 107.554688 546.308594 108.007812 C 547.160156 108.464844 547.984375 108.957031 548.785156 109.492188 C 549.589844 110.03125 550.363281 110.601562 551.105469 111.214844 C 551.851562 111.828125 552.566406 112.472656 553.246094 113.15625 C 553.929688 113.835938 554.574219 114.550781 555.1875 115.296875 C 555.800781 116.039062 556.371094 116.8125 556.90625 117.617188 C 557.445312 118.417969 557.9375 119.242188 558.394531 120.09375 C 558.847656 120.945312 559.257812 121.8125 559.628906 122.703125 C 559.996094 123.597656 560.320312 124.503906 560.601562 125.425781 C 560.882812 126.347656 561.117188 127.28125 561.304688 128.226562 C 561.492188 129.171875 561.632812 130.125 561.726562 131.085938 C 561.820312 132.042969 561.871094 133.007812 561.871094 133.96875 Z M 561.871094 675.875 "/></g><path style=" stroke:none;fill-rule:nonzero;fill:#ffffff;fill-opacity:1;" d="M 264.421875 162.703125 L 545.488281 162.703125 L 545.488281 630.121094 L 264.421875 630.121094 Z M 264.421875 162.703125 "/><path style=" stroke:none;fill-rule:nonzero;fill:#ffffff;fill-opacity:1;" d="M 348.640625 141.90625 L 461.269531 141.90625 C 461.914062 141.90625 462.550781 141.84375 463.179688 141.71875 C 463.8125 141.59375 464.425781 141.40625 465.019531 141.160156 C 465.613281 140.914062 466.175781 140.613281 466.710938 140.257812 C 467.246094 139.898438 467.742188 139.496094 468.195312 139.039062 C 468.652344 138.585938 469.058594 138.089844 469.414062 137.554688 C 469.773438 137.019531 470.074219 136.457031 470.320312 135.863281 C 470.566406 135.269531 470.753906 134.65625 470.878906 134.023438 C 471.003906 133.394531 471.066406 132.757812 471.066406 132.113281 C 471.066406 131.472656 471.003906 130.835938 470.878906 130.203125 C 470.753906 129.574219 470.566406 128.960938 470.320312 128.367188 C 470.074219 127.773438 469.773438 127.207031 469.414062 126.671875 C 469.058594 126.136719 468.652344 125.644531 468.195312 125.1875 C 467.742188 124.734375 467.246094 124.328125 466.710938 123.972656 C 466.175781 123.613281 465.613281 123.3125 465.019531 123.066406 C 464.425781 122.820312 463.8125 122.636719 463.179688 122.511719 C 462.550781 122.386719 461.914062 122.324219 461.269531 122.324219 L 348.640625 122.324219 C 347.996094 122.324219 347.359375 122.386719 346.726562 122.511719 C 346.097656 122.636719 345.484375 122.820312 344.890625 123.066406 C 344.296875 123.3125 343.730469 123.613281 343.199219 123.972656 C 342.664062 124.328125 342.167969 124.734375 341.710938 125.1875 C 341.257812 125.644531 340.851562 126.136719 340.496094 126.671875 C 340.136719 127.207031 339.835938 127.773438 339.589844 128.367188 C 339.34375 128.960938 339.15625 129.574219 339.03125 130.203125 C 338.90625 130.835938 338.84375 131.472656 338.84375 132.113281 C 338.84375 132.757812 338.90625 133.394531 339.03125 134.023438 C 339.15625 134.65625 339.34375 135.269531 339.589844 135.863281 C 339.835938 136.457031 340.136719 137.019531 340.496094 137.554688 C 340.851562 138.089844 341.257812 138.585938 341.710938 139.039062 C 342.167969 139.496094 342.664062 139.898438 343.199219 140.257812 C 343.730469 140.613281 344.296875 140.914062 344.890625 141.160156 C 345.484375 141.40625 346.097656 141.59375 346.726562 141.71875 C 347.359375 141.84375 347.996094 141.90625 348.640625 141.90625 Z M 348.640625 141.90625 "/><path style=" stroke:none;fill-rule:nonzero;fill:#ffffff;fill-opacity:1;" d="M 427.351562 641.703125 L 382.554688 641.703125 C 381.691406 641.703125 380.828125 641.742188 379.96875 641.828125 C 379.109375 641.910156 378.253906 642.035156 377.40625 642.203125 C 376.558594 642.371094 375.722656 642.578125 374.894531 642.828125 C 374.066406 643.078125 373.253906 643.371094 372.457031 643.699219 C 371.65625 644.03125 370.875 644.398438 370.113281 644.804688 C 369.351562 645.210938 368.609375 645.65625 367.890625 646.132812 C 367.171875 646.613281 366.476562 647.128906 365.808594 647.675781 C 365.140625 648.222656 364.5 648.800781 363.890625 649.414062 C 363.277344 650.023438 362.699219 650.664062 362.148438 651.332031 C 361.601562 652 361.085938 652.691406 360.605469 653.410156 C 360.125 654.128906 359.679688 654.867188 359.273438 655.628906 C 358.863281 656.390625 358.496094 657.171875 358.164062 657.972656 C 357.832031 658.769531 357.542969 659.582031 357.292969 660.410156 C 357.039062 661.234375 356.832031 662.074219 356.660156 662.921875 C 356.492188 663.769531 356.367188 664.621094 356.28125 665.480469 C 356.195312 666.34375 356.15625 667.203125 356.15625 668.070312 C 356.15625 668.933594 356.195312 669.796875 356.28125 670.65625 C 356.367188 671.515625 356.492188 672.371094 356.660156 673.21875 C 356.832031 674.066406 357.039062 674.902344 357.292969 675.730469 C 357.542969 676.554688 357.832031 677.367188 358.164062 678.167969 C 358.496094 678.964844 358.863281 679.746094 359.273438 680.507812 C 359.679688 681.269531 360.125 682.011719 360.605469 682.726562 C 361.085938 683.445312 361.601562 684.140625 362.148438 684.808594 C 362.699219 685.476562 363.277344 686.113281 363.890625 686.726562 C 364.5 687.335938 365.140625 687.914062 365.808594 688.464844 C 366.476562 689.011719 367.171875 689.523438 367.890625 690.003906 C 368.609375 690.484375 369.351562 690.925781 370.113281 691.332031 C 370.875 691.738281 371.65625 692.109375 372.457031 692.4375 C 373.253906 692.769531 374.066406 693.058594 374.894531 693.308594 C 375.722656 693.558594 376.558594 693.765625 377.40625 693.933594 C 378.253906 694.101562 379.109375 694.226562 379.96875 694.3125 C 380.828125 694.394531 381.691406 694.4375 382.554688 694.433594 L 427.351562 694.433594 C 428.21875 694.4375 429.078125 694.394531 429.9375 694.3125 C 430.800781 694.226562 431.652344 694.101562 432.5 693.933594 C 433.347656 693.765625 434.1875 693.558594 435.015625 693.308594 C 435.839844 693.058594 436.65625 692.769531 437.453125 692.4375 C 438.253906 692.109375 439.03125 691.738281 439.796875 691.332031 C 440.558594 690.925781 441.300781 690.484375 442.019531 690.003906 C 442.738281 689.523438 443.429688 689.011719 444.097656 688.464844 C 444.769531 687.914062 445.40625 687.335938 446.019531 686.726562 C 446.632812 686.113281 447.210938 685.476562 447.761719 684.808594 C 448.308594 684.140625 448.824219 683.445312 449.304688 682.726562 C 449.785156 682.011719 450.226562 681.269531 450.636719 680.507812 C 451.042969 679.746094 451.414062 678.964844 451.746094 678.167969 C 452.074219 677.367188 452.367188 676.554688 452.617188 675.730469 C 452.867188 674.902344 453.078125 674.066406 453.246094 673.21875 C 453.417969 672.371094 453.542969 671.515625 453.628906 670.65625 C 453.710938 669.796875 453.753906 668.933594 453.753906 668.070312 C 453.753906 667.203125 453.710938 666.34375 453.628906 665.480469 C 453.542969 664.621094 453.417969 663.769531 453.246094 662.921875 C 453.078125 662.074219 452.867188 661.234375 452.617188 660.410156 C 452.367188 659.582031 452.074219 658.769531 451.746094 657.972656 C 451.414062 657.171875 451.042969 656.390625 450.636719 655.628906 C 450.226562 654.867188 449.785156 654.128906 449.304688 653.410156 C 448.824219 652.691406 448.308594 652 447.761719 651.332031 C 447.210938 650.664062 446.632812 650.023438 446.019531 649.414062 C 445.40625 648.800781 444.769531 648.222656 444.097656 647.675781 C 443.429688 647.128906 442.738281 646.613281 442.019531 646.132812 C 441.300781 645.65625 440.558594 645.210938 439.796875 644.804688 C 439.03125 644.398438 438.253906 644.03125 437.453125 643.699219 C 436.65625 643.371094 435.839844 643.078125 435.015625 642.828125 C 434.1875 642.578125 433.347656 642.371094 432.5 642.203125 C 431.652344 642.035156 430.800781 641.910156 429.9375 641.828125 C 429.078125 641.742188 428.21875 641.703125 427.351562 641.703125 Z M 427.351562 641.703125 "/><path style=" stroke:none;fill-rule:nonzero;fill:#ffffff;fill-opacity:1;" d="M 348.640625 122.257812 L 461.269531 122.257812 C 461.914062 122.257812 462.550781 122.320312 463.179688 122.445312 C 463.8125 122.570312 464.425781 122.757812 465.019531 123.003906 C 465.613281 123.25 466.175781 123.550781 466.710938 123.90625 C 467.246094 124.265625 467.742188 124.671875 468.195312 125.125 C 468.652344 125.578125 469.058594 126.074219 469.414062 126.609375 C 469.773438 127.144531 470.074219 127.707031 470.320312 128.300781 C 470.566406 128.898438 470.753906 129.507812 470.878906 130.140625 C 471.003906 130.769531 471.066406 131.40625 471.066406 132.050781 C 471.066406 132.695312 471.003906 133.332031 470.878906 133.960938 C 470.753906 134.59375 470.566406 135.203125 470.320312 135.796875 C 470.074219 136.390625 469.773438 136.957031 469.414062 137.492188 C 469.058594 138.027344 468.652344 138.519531 468.195312 138.976562 C 467.742188 139.429688 467.246094 139.835938 466.710938 140.191406 C 466.175781 140.550781 465.613281 140.851562 465.019531 141.097656 C 464.425781 141.34375 463.8125 141.527344 463.179688 141.652344 C 462.550781 141.78125 461.914062 141.84375 461.269531 141.839844 L 348.640625 141.839844 C 347.996094 141.84375 347.359375 141.78125 346.726562 141.652344 C 346.097656 141.527344 345.484375 141.34375 344.890625 141.097656 C 344.296875 140.851562 343.730469 140.550781 343.199219 140.191406 C 342.664062 139.835938 342.167969 139.429688 341.710938 138.976562 C 341.257812 138.519531 340.851562 138.027344 340.496094 137.492188 C 340.136719 136.957031 339.835938 136.390625 339.589844 135.796875 C 339.34375 135.203125 339.15625 134.59375 339.03125 133.960938 C 338.90625 133.332031 338.84375 132.695312 338.84375 132.050781 C 338.84375 131.40625 338.90625 130.769531 339.03125 130.140625 C 339.15625 129.507812 339.34375 128.898438 339.589844 128.300781 C 339.835938 127.707031 340.136719 127.144531 340.496094 126.609375 C 340.851562 126.074219 341.257812 125.578125 341.710938 125.125 C 342.167969 124.671875 342.664062 124.265625 343.199219 123.90625 C 343.730469 123.550781 344.296875 123.25 344.890625 123.003906 C 345.484375 122.757812 346.097656 122.570312 346.726562 122.445312 C 347.359375 122.320312 347.996094 122.257812 348.640625 122.257812 Z M 427.351562 694.242188 L 382.554688 694.242188 C 381.691406 694.242188 380.832031 694.199219 379.972656 694.117188 C 379.113281 694.03125 378.257812 693.90625 377.414062 693.734375 C 376.566406 693.566406 375.730469 693.359375 374.902344 693.105469 C 374.078125 692.855469 373.265625 692.566406 372.464844 692.234375 C 371.667969 691.90625 370.890625 691.535156 370.128906 691.128906 C 369.367188 690.722656 368.625 690.277344 367.910156 689.800781 C 367.191406 689.320312 366.496094 688.804688 365.832031 688.257812 C 365.164062 687.710938 364.523438 687.132812 363.914062 686.519531 C 363.300781 685.910156 362.722656 685.269531 362.175781 684.601562 C 361.628906 683.9375 361.113281 683.242188 360.632812 682.523438 C 360.15625 681.808594 359.710938 681.066406 359.304688 680.304688 C 358.898438 679.542969 358.527344 678.765625 358.199219 677.964844 C 357.867188 677.167969 357.578125 676.355469 357.324219 675.53125 C 357.074219 674.703125 356.867188 673.867188 356.699219 673.019531 C 356.527344 672.171875 356.402344 671.320312 356.316406 670.460938 C 356.234375 669.601562 356.191406 668.742188 356.191406 667.878906 C 356.191406 667.011719 356.234375 666.152344 356.316406 665.292969 C 356.402344 664.433594 356.527344 663.582031 356.699219 662.734375 C 356.867188 661.886719 357.074219 661.050781 357.324219 660.222656 C 357.578125 659.398438 357.867188 658.585938 358.199219 657.789062 C 358.527344 656.988281 358.898438 656.210938 359.304688 655.449219 C 359.710938 654.6875 360.15625 653.945312 360.632812 653.230469 C 361.113281 652.511719 361.628906 651.816406 362.175781 651.152344 C 362.722656 650.484375 363.300781 649.84375 363.914062 649.234375 C 364.523438 648.621094 365.164062 648.042969 365.832031 647.496094 C 366.496094 646.949219 367.191406 646.433594 367.910156 645.953125 C 368.625 645.476562 369.367188 645.03125 370.128906 644.625 C 370.890625 644.21875 371.667969 643.847656 372.464844 643.519531 C 373.265625 643.1875 374.078125 642.898438 374.902344 642.648438 C 375.730469 642.394531 376.566406 642.1875 377.414062 642.019531 C 378.257812 641.847656 379.113281 641.722656 379.972656 641.636719 C 380.832031 641.554688 381.691406 641.511719 382.554688 641.511719 L 427.351562 641.511719 C 428.214844 641.511719 429.078125 641.554688 429.9375 641.636719 C 430.796875 641.722656 431.648438 641.847656 432.496094 642.019531 C 433.34375 642.1875 434.179688 642.394531 435.007812 642.648438 C 435.832031 642.898438 436.644531 643.1875 437.441406 643.519531 C 438.238281 643.847656 439.019531 644.21875 439.78125 644.625 C 440.542969 645.03125 441.28125 645.476562 442 645.953125 C 442.71875 646.433594 443.410156 646.949219 444.078125 647.496094 C 444.746094 648.042969 445.386719 648.621094 445.996094 649.234375 C 446.605469 649.84375 447.1875 650.484375 447.734375 651.152344 C 448.28125 651.816406 448.796875 652.511719 449.273438 653.230469 C 449.753906 653.945312 450.199219 654.6875 450.605469 655.449219 C 451.011719 656.210938 451.382812 656.988281 451.710938 657.789062 C 452.042969 658.585938 452.332031 659.398438 452.582031 660.222656 C 452.832031 661.050781 453.042969 661.886719 453.210938 662.734375 C 453.378906 663.582031 453.507812 664.433594 453.589844 665.292969 C 453.675781 666.152344 453.71875 667.011719 453.71875 667.878906 C 453.71875 668.742188 453.675781 669.601562 453.589844 670.460938 C 453.507812 671.320312 453.378906 672.171875 453.210938 673.019531 C 453.042969 673.867188 452.832031 674.703125 452.582031 675.53125 C 452.332031 676.355469 452.042969 677.167969 451.710938 677.964844 C 451.382812 678.765625 451.011719 679.542969 450.605469 680.304688 C 450.199219 681.066406 449.753906 681.808594 449.273438 682.523438 C 448.796875 683.242188 448.28125 683.9375 447.734375 684.601562 C 447.1875 685.269531 446.605469 685.910156 445.996094 686.519531 C 445.386719 687.132812 444.746094 687.710938 444.078125 688.257812 C 443.410156 688.804688 442.71875 689.320312 442 689.800781 C 441.28125 690.277344 440.542969 690.722656 439.78125 691.128906 C 439.019531 691.535156 438.238281 691.90625 437.441406 692.234375 C 436.644531 692.566406 435.832031 692.855469 435.007812 693.105469 C 434.179688 693.359375 433.34375 693.566406 432.496094 693.734375 C 431.648438 693.90625 430.796875 694.03125 429.9375 694.117188 C 429.078125 694.199219 428.214844 694.242188 427.351562 694.242188 Z M 545.742188 630.121094 L 264.167969 630.121094 L 264.167969 162.960938 L 545.742188 162.960938 Z M 545.742188 630.121094 "/><g clip-rule="nonzero" clip-path="url(#812abec21b)"><path style=" stroke:none;fill-rule:nonzero;fill:#ffffff;fill-opacity:1;" d="M 532.433594 84.949219 L 277.476562 84.949219 C 275.871094 84.953125 274.273438 85.03125 272.675781 85.191406 C 271.078125 85.351562 269.492188 85.589844 267.917969 85.902344 C 266.34375 86.21875 264.789062 86.609375 263.253906 87.074219 C 261.71875 87.542969 260.210938 88.082031 258.726562 88.699219 C 257.246094 89.3125 255.796875 90 254.382812 90.757812 C 252.96875 91.515625 251.59375 92.339844 250.257812 93.230469 C 248.925781 94.125 247.636719 95.078125 246.398438 96.097656 C 245.15625 97.117188 243.96875 98.191406 242.832031 99.328125 C 241.699219 100.460938 240.621094 101.648438 239.605469 102.890625 C 238.585938 104.128906 237.628906 105.417969 236.738281 106.75 C 235.847656 108.085938 235.023438 109.460938 234.265625 110.875 C 233.507812 112.289062 232.820312 113.738281 232.207031 115.222656 C 231.589844 116.703125 231.050781 118.210938 230.582031 119.746094 C 230.117188 121.28125 229.726562 122.835938 229.410156 124.410156 C 229.09375 125.984375 228.859375 127.570312 228.699219 129.167969 C 228.539062 130.765625 228.460938 132.367188 228.457031 133.96875 L 228.457031 675.875 C 228.460938 677.480469 228.539062 679.082031 228.699219 680.679688 C 228.859375 682.277344 229.09375 683.863281 229.410156 685.433594 C 229.726562 687.007812 230.117188 688.5625 230.582031 690.097656 C 231.050781 691.632812 231.589844 693.144531 232.207031 694.625 C 232.820312 696.109375 233.507812 697.554688 234.265625 698.972656 C 235.023438 700.386719 235.847656 701.761719 236.738281 703.09375 C 237.628906 704.429688 238.585938 705.714844 239.605469 706.957031 C 240.621094 708.199219 241.699219 709.386719 242.832031 710.519531 C 243.96875 711.65625 245.15625 712.730469 246.398438 713.75 C 247.636719 714.769531 248.925781 715.722656 250.257812 716.613281 C 251.59375 717.507812 252.96875 718.332031 254.382812 719.089844 C 255.796875 719.847656 257.246094 720.53125 258.726562 721.148438 C 260.210938 721.761719 261.71875 722.304688 263.253906 722.769531 C 264.789062 723.238281 266.34375 723.628906 267.917969 723.945312 C 269.492188 724.257812 271.078125 724.496094 272.675781 724.652344 C 274.273438 724.8125 275.871094 724.894531 277.476562 724.894531 L 532.433594 724.894531 C 534.035156 724.894531 535.636719 724.8125 537.234375 724.652344 C 538.832031 724.496094 540.417969 724.257812 541.992188 723.945312 C 543.5625 723.628906 545.117188 723.238281 546.65625 722.769531 C 548.191406 722.304688 549.699219 721.761719 551.179688 721.148438 C 552.664062 720.53125 554.113281 719.847656 555.527344 719.089844 C 556.941406 718.332031 558.316406 717.507812 559.652344 716.613281 C 560.984375 715.722656 562.273438 714.769531 563.511719 713.75 C 564.753906 712.730469 565.941406 711.65625 567.074219 710.519531 C 568.210938 709.386719 569.285156 708.199219 570.304688 706.957031 C 571.324219 705.714844 572.277344 704.429688 573.171875 703.09375 C 574.0625 701.761719 574.886719 700.386719 575.644531 698.972656 C 576.402344 697.554688 577.089844 696.109375 577.703125 694.625 C 578.316406 693.144531 578.859375 691.632812 579.328125 690.097656 C 579.792969 688.5625 580.183594 687.007812 580.5 685.433594 C 580.8125 683.863281 581.050781 682.277344 581.210938 680.679688 C 581.367188 679.082031 581.449219 677.480469 581.453125 675.875 L 581.453125 133.96875 C 581.449219 132.367188 581.367188 130.765625 581.210938 129.167969 C 581.050781 127.570312 580.8125 125.984375 580.5 124.410156 C 580.183594 122.835938 579.792969 121.28125 579.328125 119.746094 C 578.859375 118.210938 578.316406 116.703125 577.703125 115.222656 C 577.089844 113.738281 576.402344 112.289062 575.644531 110.875 C 574.886719 109.460938 574.0625 108.085938 573.171875 106.75 C 572.277344 105.417969 571.324219 104.128906 570.304688 102.890625 C 569.285156 101.648438 568.210938 100.460938 567.074219 99.328125 C 565.941406 98.191406 564.753906 97.117188 563.511719 96.097656 C 562.273438 95.078125 560.984375 94.125 559.652344 93.230469 C 558.316406 92.339844 556.941406 91.515625 555.527344 90.757812 C 554.113281 90 552.664062 89.3125 551.179688 88.699219 C 549.699219 88.082031 548.191406 87.542969 546.65625 87.074219 C 545.117188 86.609375 543.5625 86.21875 541.992188 85.902344 C 540.417969 85.589844 538.832031 85.351562 537.234375 85.191406 C 535.636719 85.03125 534.035156 84.953125 532.433594 84.949219 Z M 561.871094 675.875 C 561.871094 676.839844 561.820312 677.800781 561.726562 678.761719 C 561.632812 679.722656 561.492188 680.671875 561.304688 681.621094 C 561.117188 682.566406 560.882812 683.5 560.601562 684.421875 C 560.320312 685.34375 559.996094 686.25 559.628906 687.140625 C 559.257812 688.03125 558.847656 688.902344 558.394531 689.753906 C 557.9375 690.601562 557.445312 691.429688 556.90625 692.230469 C 556.371094 693.03125 555.800781 693.804688 555.1875 694.550781 C 554.574219 695.296875 553.929688 696.011719 553.246094 696.691406 C 552.566406 697.375 551.851562 698.019531 551.105469 698.632812 C 550.363281 699.242188 549.589844 699.816406 548.785156 700.351562 C 547.984375 700.886719 547.160156 701.382812 546.308594 701.835938 C 545.457031 702.292969 544.585938 702.703125 543.695312 703.074219 C 542.804688 703.441406 541.898438 703.765625 540.976562 704.046875 C 540.054688 704.324219 539.121094 704.558594 538.175781 704.75 C 537.230469 704.9375 536.277344 705.078125 535.316406 705.171875 C 534.359375 705.265625 533.394531 705.3125 532.433594 705.3125 L 277.476562 705.3125 C 276.511719 705.3125 275.550781 705.265625 274.59375 705.171875 C 273.632812 705.078125 272.679688 704.9375 271.734375 704.75 C 270.789062 704.558594 269.855469 704.324219 268.933594 704.046875 C 268.007812 703.765625 267.101562 703.441406 266.210938 703.074219 C 265.320312 702.703125 264.449219 702.292969 263.601562 701.835938 C 262.75 701.382812 261.925781 700.886719 261.121094 700.351562 C 260.320312 699.816406 259.546875 699.242188 258.800781 698.632812 C 258.058594 698.019531 257.34375 697.375 256.660156 696.691406 C 255.980469 696.011719 255.332031 695.296875 254.722656 694.550781 C 254.109375 693.804688 253.535156 693.03125 253 692.230469 C 252.464844 691.429688 251.96875 690.601562 251.515625 689.753906 C 251.0625 688.902344 250.648438 688.03125 250.28125 687.140625 C 249.910156 686.25 249.585938 685.34375 249.308594 684.421875 C 249.027344 683.5 248.792969 682.566406 248.605469 681.621094 C 248.417969 680.671875 248.277344 679.722656 248.179688 678.761719 C 248.085938 677.800781 248.039062 676.839844 248.039062 675.875 L 248.039062 133.96875 C 248.039062 133.007812 248.085938 132.042969 248.183594 131.085938 C 248.277344 130.125 248.417969 129.171875 248.605469 128.226562 C 248.792969 127.28125 249.027344 126.347656 249.308594 125.425781 C 249.585938 124.503906 249.910156 123.597656 250.28125 122.703125 C 250.648438 121.8125 251.0625 120.945312 251.515625 120.09375 C 251.96875 119.242188 252.464844 118.417969 253 117.617188 C 253.535156 116.8125 254.109375 116.039062 254.722656 115.296875 C 255.332031 114.550781 255.980469 113.835938 256.660156 113.15625 C 257.34375 112.472656 258.058594 111.828125 258.800781 111.214844 C 259.546875 110.601562 260.320312 110.03125 261.121094 109.492188 C 261.925781 108.957031 262.75 108.464844 263.601562 108.007812 C 264.449219 107.554688 265.320312 107.140625 266.210938 106.773438 C 267.101562 106.40625 268.007812 106.082031 268.933594 105.800781 C 269.855469 105.519531 270.789062 105.285156 271.734375 105.097656 C 272.679688 104.910156 273.632812 104.769531 274.59375 104.675781 C 275.550781 104.578125 276.511719 104.53125 277.476562 104.53125 L 532.433594 104.53125 C 533.394531 104.53125 534.359375 104.578125 535.316406 104.675781 C 536.277344 104.769531 537.230469 104.910156 538.175781 105.097656 C 539.121094 105.285156 540.054688 105.519531 540.976562 105.800781 C 541.898438 106.082031 542.804688 106.40625 543.695312 106.773438 C 544.585938 107.140625 545.457031 107.554688 546.308594 108.007812 C 547.160156 108.464844 547.984375 108.957031 548.785156 109.492188 C 549.589844 110.03125 550.363281 110.601562 551.105469 111.214844 C 551.851562 111.828125 552.566406 112.472656 553.246094 113.15625 C 553.929688 113.835938 554.574219 114.550781 555.1875 115.296875 C 555.800781 116.039062 556.371094 116.8125 556.90625 117.617188 C 557.445312 118.417969 557.9375 119.242188 558.394531 120.09375 C 558.847656 120.945312 559.257812 121.8125 559.628906 122.703125 C 559.996094 123.597656 560.320312 124.503906 560.601562 125.425781 C 560.882812 126.347656 561.117188 127.28125 561.304688 128.226562 C 561.492188 129.171875 561.632812 130.125 561.726562 131.085938 C 561.820312 132.042969 561.871094 133.007812 561.871094 133.96875 Z M 561.871094 675.875 "/></g><path style=" stroke:none;fill-rule:nonzero;fill:#ffffff;fill-opacity:1;" d="M 264.421875 162.703125 L 545.488281 162.703125 L 545.488281 630.121094 L 264.421875 630.121094 Z M 264.421875 162.703125 "/><path style=" stroke:none;fill-rule:nonzero;fill:#ffffff;fill-opacity:1;" d="M 348.640625 141.90625 L 461.269531 141.90625 C 461.914062 141.90625 462.550781 141.84375 463.179688 141.71875 C 463.8125 141.59375 464.425781 141.40625 465.019531 141.160156 C 465.613281 140.914062 466.175781 140.613281 466.710938 140.257812 C 467.246094 139.898438 467.742188 139.496094 468.195312 139.039062 C 468.652344 138.585938 469.058594 138.089844 469.414062 137.554688 C 469.773438 137.019531 470.074219 136.457031 470.320312 135.863281 C 470.566406 135.269531 470.753906 134.65625 470.878906 134.023438 C 471.003906 133.394531 471.066406 132.757812 471.066406 132.113281 C 471.066406 131.472656 471.003906 130.835938 470.878906 130.203125 C 470.753906 129.574219 470.566406 128.960938 470.320312 128.367188 C 470.074219 127.773438 469.773438 127.207031 469.414062 126.671875 C 469.058594 126.136719 468.652344 125.644531 468.195312 125.1875 C 467.742188 124.734375 467.246094 124.328125 466.710938 123.972656 C 466.175781 123.613281 465.613281 123.3125 465.019531 123.066406 C 464.425781 122.820312 463.8125 122.636719 463.179688 122.511719 C 462.550781 122.386719 461.914062 122.324219 461.269531 122.324219 L 348.640625 122.324219 C 347.996094 122.324219 347.359375 122.386719 346.726562 122.511719 C 346.097656 122.636719 345.484375 122.820312 344.890625 123.066406 C 344.296875 123.3125 343.730469 123.613281 343.199219 123.972656 C 342.664062 124.328125 342.167969 124.734375 341.710938 125.1875 C 341.257812 125.644531 340.851562 126.136719 340.496094 126.671875 C 340.136719 127.207031 339.835938 127.773438 339.589844 128.367188 C 339.34375 128.960938 339.15625 129.574219 339.03125 130.203125 C 338.90625 130.835938 338.84375 131.472656 338.84375 132.113281 C 338.84375 132.757812 338.90625 133.394531 339.03125 134.023438 C 339.15625 134.65625 339.34375 135.269531 339.589844 135.863281 C 339.835938 136.457031 340.136719 137.019531 340.496094 137.554688 C 340.851562 138.089844 341.257812 138.585938 341.710938 139.039062 C 342.167969 139.496094 342.664062 139.898438 343.199219 140.257812 C 343.730469 140.613281 344.296875 140.914062 344.890625 141.160156 C 345.484375 141.40625 346.097656 141.59375 346.726562 141.71875 C 347.359375 141.84375 347.996094 141.90625 348.640625 141.90625 Z M 348.640625 141.90625 "/><path style=" stroke:none;fill-rule:nonzero;fill:#ffffff;fill-opacity:1;" d="M 427.351562 641.703125 L 382.554688 641.703125 C 381.691406 641.703125 380.828125 641.742188 379.96875 641.828125 C 379.109375 641.910156 378.253906 642.035156 377.40625 642.203125 C 376.558594 642.371094 375.722656 642.578125 374.894531 642.828125 C 374.066406 643.078125 373.253906 643.371094 372.457031 643.699219 C 371.65625 644.03125 370.875 644.398438 370.113281 644.804688 C 369.351562 645.210938 368.609375 645.65625 367.890625 646.132812 C 367.171875 646.613281 366.476562 647.128906 365.808594 647.675781 C 365.140625 648.222656 364.5 648.800781 363.890625 649.414062 C 363.277344 650.023438 362.699219 650.664062 362.148438 651.332031 C 361.601562 652 361.085938 652.691406 360.605469 653.410156 C 360.125 654.128906 359.679688 654.867188 359.273438 655.628906 C 358.863281 656.390625 358.496094 657.171875 358.164062 657.972656 C 357.832031 658.769531 357.542969 659.582031 357.292969 660.410156 C 357.039062 661.234375 356.832031 662.074219 356.660156 662.921875 C 356.492188 663.769531 356.367188 664.621094 356.28125 665.480469 C 356.195312 666.34375 356.15625 667.203125 356.15625 668.070312 C 356.15625 668.933594 356.195312 669.796875 356.28125 670.65625 C 356.367188 671.515625 356.492188 672.371094 356.660156 673.21875 C 356.832031 674.066406 357.039062 674.902344 357.292969 675.730469 C 357.542969 676.554688 357.832031 677.367188 358.164062 678.167969 C 358.496094 678.964844 358.863281 679.746094 359.273438 680.507812 C 359.679688 681.269531 360.125 682.011719 360.605469 682.726562 C 361.085938 683.445312 361.601562 684.140625 362.148438 684.808594 C 362.699219 685.476562 363.277344 686.113281 363.890625 686.726562 C 364.5 687.335938 365.140625 687.914062 365.808594 688.464844 C 366.476562 689.011719 367.171875 689.523438 367.890625 690.003906 C 368.609375 690.484375 369.351562 690.925781 370.113281 691.332031 C 370.875 691.738281 371.65625 692.109375 372.457031 692.4375 C 373.253906 692.769531 374.066406 693.058594 374.894531 693.308594 C 375.722656 693.558594 376.558594 693.765625 377.40625 693.933594 C 378.253906 694.101562 379.109375 694.226562 379.96875 694.3125 C 380.828125 694.394531 381.691406 694.4375 382.554688 694.433594 L 427.351562 694.433594 C 428.21875 694.4375 429.078125 694.394531 429.9375 694.3125 C 430.800781 694.226562 431.652344 694.101562 432.5 693.933594 C 433.347656 693.765625 434.1875 693.558594 435.015625 693.308594 C 435.839844 693.058594 436.65625 692.769531 437.453125 692.4375 C 438.253906 692.109375 439.03125 691.738281 439.796875 691.332031 C 440.558594 690.925781 441.300781 690.484375 442.019531 690.003906 C 442.738281 689.523438 443.429688 689.011719 444.097656 688.464844 C 444.769531 687.914062 445.40625 687.335938 446.019531 686.726562 C 446.632812 686.113281 447.210938 685.476562 447.761719 684.808594 C 448.308594 684.140625 448.824219 683.445312 449.304688 682.726562 C 449.785156 682.011719 450.226562 681.269531 450.636719 680.507812 C 451.042969 679.746094 451.414062 678.964844 451.746094 678.167969 C 452.074219 677.367188 452.367188 676.554688 452.617188 675.730469 C 452.867188 674.902344 453.078125 674.066406 453.246094 673.21875 C 453.417969 672.371094 453.542969 671.515625 453.628906 670.65625 C 453.710938 669.796875 453.753906 668.933594 453.753906 668.070312 C 453.753906 667.203125 453.710938 666.34375 453.628906 665.480469 C 453.542969 664.621094 453.417969 663.769531 453.246094 662.921875 C 453.078125 662.074219 452.867188 661.234375 452.617188 660.410156 C 452.367188 659.582031 452.074219 658.769531 451.746094 657.972656 C 451.414062 657.171875 451.042969 656.390625 450.636719 655.628906 C 450.226562 654.867188 449.785156 654.128906 449.304688 653.410156 C 448.824219 652.691406 448.308594 652 447.761719 651.332031 C 447.210938 650.664062 446.632812 650.023438 446.019531 649.414062 C 445.40625 648.800781 444.769531 648.222656 444.097656 647.675781 C 443.429688 647.128906 442.738281 646.613281 442.019531 646.132812 C 441.300781 645.65625 440.558594 645.210938 439.796875 644.804688 C 439.03125 644.398438 438.253906 644.03125 437.453125 643.699219 C 436.65625 643.371094 435.839844 643.078125 435.015625 642.828125 C 434.1875 642.578125 433.347656 642.371094 432.5 642.203125 C 431.652344 642.035156 430.800781 641.910156 429.9375 641.828125 C 429.078125 641.742188 428.21875 641.703125 427.351562 641.703125 Z M 427.351562 641.703125 "/></g></svg>