<svg xmlns="http://www.w3.org/2000/svg" xmlns:xlink="http://www.w3.org/1999/xlink" width="1080" zoomAndPan="magnify" viewBox="0 0 810 809.999993" height="1080" preserveAspectRatio="xMidYMid meet" version="1.2"><defs><clipPath id="8c74f2efb4"><path d="M 56.285156 56.285156 L 753.785156 56.285156 L 753.785156 753.785156 L 56.285156 753.785156 Z M 56.285156 56.285156 "/></clipPath></defs><g id="e599c6047d"><rect x="0" width="810" y="0" height="809.999993" style="fill:#ffffff;fill-opacity:1;stroke:none;"/><rect x="0" width="810" y="0" height="809.999993" style="fill:#000000;fill-opacity:1;stroke:none;"/><g clip-rule="nonzero" clip-path="url(#8c74f2efb4)"><path style=" stroke:none;fill-rule:nonzero;fill:#ffffff;fill-opacity:1;" d="M 452.460938 753.679688 L 357.535156 753.679688 C 356.425781 753.679688 355.316406 753.625 354.210938 753.515625 C 353.105469 753.402344 352.011719 753.238281 350.921875 753.023438 C 349.832031 752.804688 348.757812 752.535156 347.695312 752.210938 C 346.632812 751.886719 345.585938 751.515625 344.5625 751.089844 C 343.535156 750.664062 342.53125 750.1875 341.554688 749.664062 C 340.574219 749.140625 339.621094 748.570312 338.699219 747.953125 C 337.777344 747.335938 336.886719 746.671875 336.027344 745.96875 C 335.167969 745.261719 334.347656 744.519531 333.5625 743.730469 C 332.777344 742.945312 332.03125 742.125 331.328125 741.265625 C 330.625 740.40625 329.964844 739.515625 329.347656 738.59375 C 328.730469 737.667969 328.160156 736.71875 327.636719 735.738281 C 327.113281 734.757812 326.636719 733.757812 326.210938 732.730469 C 325.785156 731.703125 325.414062 730.660156 325.089844 729.597656 C 324.769531 728.535156 324.496094 727.457031 324.28125 726.371094 C 324.0625 725.28125 323.902344 724.183594 323.792969 723.078125 C 323.683594 721.972656 323.628906 720.863281 323.625 719.753906 L 323.625 653.523438 C 310.96875 649.371094 298.707031 644.28125 286.832031 638.246094 L 239.976562 685.1875 C 239.191406 685.972656 238.367188 686.714844 237.507812 687.417969 C 236.648438 688.125 235.757812 688.785156 234.835938 689.402344 C 233.910156 690.015625 232.957031 690.585938 231.980469 691.109375 C 231 691.632812 229.996094 692.105469 228.96875 692.53125 C 227.941406 692.957031 226.898438 693.332031 225.835938 693.652344 C 224.773438 693.972656 223.695312 694.242188 222.605469 694.460938 C 221.519531 694.675781 220.421875 694.839844 219.316406 694.949219 C 218.210938 695.058594 217.101562 695.109375 215.992188 695.109375 C 214.878906 695.109375 213.773438 695.058594 212.667969 694.949219 C 211.5625 694.839844 210.464844 694.675781 209.375 694.460938 C 208.285156 694.242188 207.210938 693.972656 206.144531 693.652344 C 205.082031 693.332031 204.039062 692.957031 203.011719 692.53125 C 201.984375 692.105469 200.984375 691.632812 200.003906 691.109375 C 199.023438 690.585938 198.070312 690.015625 197.148438 689.402344 C 196.222656 688.785156 195.332031 688.125 194.472656 687.417969 C 193.613281 686.714844 192.792969 685.972656 192.007812 685.1875 L 124.8125 617.992188 C 124.027344 617.207031 123.28125 616.382812 122.578125 615.523438 C 121.875 614.664062 121.214844 613.773438 120.597656 612.851562 C 119.980469 611.925781 119.410156 610.976562 118.886719 609.996094 C 118.363281 609.015625 117.890625 608.011719 117.464844 606.984375 C 117.042969 605.960938 116.667969 604.914062 116.347656 603.851562 C 116.023438 602.789062 115.753906 601.710938 115.539062 600.625 C 115.320312 599.535156 115.160156 598.4375 115.050781 597.332031 C 114.941406 596.226562 114.886719 595.117188 114.886719 594.007812 C 114.886719 592.898438 114.941406 591.789062 115.050781 590.683594 C 115.160156 589.578125 115.320312 588.480469 115.539062 587.390625 C 115.753906 586.300781 116.023438 585.226562 116.347656 584.164062 C 116.667969 583.101562 117.042969 582.054688 117.464844 581.027344 C 117.890625 580.003906 118.363281 579 118.886719 578.019531 C 119.410156 577.039062 119.980469 576.089844 120.597656 575.164062 C 121.214844 574.242188 121.875 573.347656 122.578125 572.488281 C 123.28125 571.632812 124.027344 570.808594 124.8125 570.023438 L 171.75 523.148438 C 165.746094 511.273438 160.683594 499.007812 156.5625 486.355469 L 90.226562 486.355469 C 89.117188 486.355469 88.007812 486.296875 86.90625 486.1875 C 85.800781 486.078125 84.703125 485.914062 83.613281 485.699219 C 82.527344 485.480469 81.449219 485.210938 80.386719 484.886719 C 79.324219 484.5625 78.28125 484.191406 77.257812 483.765625 C 76.230469 483.339844 75.226562 482.863281 74.25 482.339844 C 73.269531 481.816406 72.320312 481.246094 71.394531 480.628906 C 70.472656 480.011719 69.582031 479.351562 68.726562 478.648438 C 67.867188 477.941406 67.042969 477.199219 66.261719 476.414062 C 65.476562 475.628906 64.730469 474.804688 64.027344 473.949219 C 63.320312 473.089844 62.660156 472.199219 62.042969 471.277344 C 61.425781 470.351562 60.855469 469.402344 60.332031 468.421875 C 59.808594 467.445312 59.332031 466.441406 58.910156 465.417969 C 58.484375 464.390625 58.109375 463.347656 57.785156 462.285156 C 57.460938 461.222656 57.191406 460.148438 56.976562 459.058594 C 56.757812 457.96875 56.59375 456.871094 56.484375 455.769531 C 56.375 454.664062 56.320312 453.554688 56.316406 452.445312 L 56.316406 357.535156 C 56.320312 356.425781 56.375 355.316406 56.484375 354.214844 C 56.59375 353.109375 56.757812 352.011719 56.976562 350.921875 C 57.191406 349.835938 57.460938 348.757812 57.785156 347.695312 C 58.109375 346.632812 58.484375 345.589844 58.910156 344.566406 C 59.332031 343.539062 59.808594 342.535156 60.332031 341.558594 C 60.855469 340.578125 61.425781 339.628906 62.042969 338.703125 C 62.660156 337.78125 63.320312 336.890625 64.027344 336.035156 C 64.730469 335.175781 65.476562 334.355469 66.261719 333.570312 C 67.042969 332.785156 67.867188 332.039062 68.726562 331.335938 C 69.582031 330.628906 70.472656 329.96875 71.394531 329.351562 C 72.320312 328.734375 73.269531 328.164062 74.25 327.640625 C 75.226562 327.117188 76.230469 326.640625 77.257812 326.21875 C 78.28125 325.792969 79.324219 325.417969 80.386719 325.09375 C 81.449219 324.773438 82.527344 324.5 83.613281 324.285156 C 84.703125 324.066406 85.800781 323.902344 86.90625 323.792969 C 88.007812 323.683594 89.117188 323.628906 90.226562 323.625 L 156.476562 323.625 C 160.597656 310.972656 165.664062 298.707031 171.667969 286.832031 L 124.8125 239.976562 C 124.027344 239.191406 123.28125 238.367188 122.578125 237.507812 C 121.875 236.648438 121.214844 235.757812 120.597656 234.835938 C 119.980469 233.910156 119.410156 232.957031 118.886719 231.980469 C 118.363281 231 117.890625 229.996094 117.464844 228.96875 C 117.042969 227.941406 116.667969 226.898438 116.347656 225.835938 C 116.023438 224.773438 115.753906 223.695312 115.539062 222.605469 C 115.320312 221.519531 115.160156 220.421875 115.050781 219.316406 C 114.941406 218.210938 114.886719 217.101562 114.886719 215.992188 C 114.886719 214.878906 114.941406 213.773438 115.050781 212.667969 C 115.160156 211.5625 115.320312 210.464844 115.539062 209.375 C 115.753906 208.285156 116.023438 207.210938 116.347656 206.144531 C 116.667969 205.082031 117.042969 204.039062 117.464844 203.011719 C 117.890625 201.984375 118.363281 200.984375 118.886719 200.003906 C 119.410156 199.023438 119.980469 198.070312 120.597656 197.148438 C 121.214844 196.222656 121.875 195.332031 122.578125 194.472656 C 123.28125 193.613281 124.027344 192.792969 124.8125 192.007812 L 192.007812 124.8125 C 192.792969 124.027344 193.613281 123.28125 194.472656 122.578125 C 195.332031 121.875 196.222656 121.214844 197.148438 120.597656 C 198.070312 119.980469 199.023438 119.410156 200.003906 118.886719 C 200.984375 118.363281 201.984375 117.890625 203.011719 117.464844 C 204.039062 117.042969 205.082031 116.667969 206.144531 116.347656 C 207.210938 116.023438 208.285156 115.753906 209.375 115.539062 C 210.464844 115.320312 211.5625 115.160156 212.667969 115.050781 C 213.773438 114.941406 214.878906 114.886719 215.992188 114.886719 C 217.101562 114.886719 218.210938 114.941406 219.316406 115.050781 C 220.421875 115.160156 221.519531 115.320312 222.605469 115.539062 C 223.695312 115.753906 224.773438 116.023438 225.835938 116.347656 C 226.898438 116.667969 227.941406 117.042969 228.96875 117.464844 C 229.996094 117.890625 231 118.363281 231.980469 118.886719 C 232.957031 119.410156 233.910156 119.980469 234.835938 120.597656 C 235.757812 121.214844 236.648438 121.875 237.507812 122.578125 C 238.367188 123.28125 239.191406 124.027344 239.976562 124.8125 L 286.847656 171.75 C 298.722656 165.746094 310.988281 160.683594 323.644531 156.5625 L 323.644531 90.226562 C 323.644531 89.117188 323.699219 88.007812 323.808594 86.90625 C 323.917969 85.800781 324.082031 84.703125 324.300781 83.613281 C 324.519531 82.527344 324.789062 81.449219 325.109375 80.386719 C 325.433594 79.324219 325.808594 78.28125 326.234375 77.257812 C 326.660156 76.230469 327.132812 75.226562 327.65625 74.25 C 328.179688 73.269531 328.75 72.320312 329.367188 71.394531 C 329.984375 70.472656 330.648438 69.582031 331.351562 68.726562 C 332.054688 67.867188 332.800781 67.042969 333.585938 66.261719 C 334.371094 65.476562 335.191406 64.730469 336.050781 64.027344 C 336.910156 63.320312 337.800781 62.660156 338.722656 62.042969 C 339.644531 61.425781 340.597656 60.855469 341.574219 60.332031 C 342.554688 59.808594 343.554688 59.332031 344.582031 58.910156 C 345.605469 58.484375 346.652344 58.109375 347.714844 57.785156 C 348.777344 57.460938 349.851562 57.191406 350.941406 56.976562 C 352.027344 56.757812 353.125 56.59375 354.230469 56.484375 C 355.335938 56.375 356.441406 56.320312 357.554688 56.316406 L 452.480469 56.316406 C 453.589844 56.320312 454.695312 56.375 455.800781 56.484375 C 456.90625 56.59375 458.003906 56.757812 459.09375 56.976562 C 460.179688 57.191406 461.257812 57.460938 462.320312 57.785156 C 463.382812 58.109375 464.425781 58.484375 465.449219 58.910156 C 466.476562 59.332031 467.476562 59.808594 468.457031 60.332031 C 469.4375 60.855469 470.386719 61.425781 471.308594 62.042969 C 472.234375 62.660156 473.125 63.320312 473.980469 64.027344 C 474.839844 64.730469 475.660156 65.476562 476.445312 66.261719 C 477.230469 67.042969 477.976562 67.867188 478.679688 68.726562 C 479.386719 69.582031 480.046875 70.472656 480.664062 71.394531 C 481.28125 72.320312 481.851562 73.269531 482.375 74.25 C 482.898438 75.226562 483.371094 76.230469 483.796875 77.257812 C 484.222656 78.28125 484.597656 79.324219 484.921875 80.386719 C 485.242188 81.449219 485.515625 82.527344 485.730469 83.613281 C 485.949219 84.703125 486.113281 85.800781 486.222656 86.90625 C 486.332031 88.007812 486.386719 89.117188 486.386719 90.226562 L 486.386719 156.476562 C 499.042969 160.597656 511.308594 165.664062 523.183594 171.667969 L 570.023438 124.8125 C 570.808594 124.027344 571.632812 123.28125 572.488281 122.578125 C 573.347656 121.875 574.242188 121.214844 575.164062 120.597656 C 576.089844 119.980469 577.039062 119.410156 578.019531 118.886719 C 579 118.363281 580.003906 117.890625 581.027344 117.464844 C 582.054688 117.042969 583.101562 116.667969 584.164062 116.347656 C 585.226562 116.023438 586.300781 115.753906 587.390625 115.539062 C 588.480469 115.320312 589.578125 115.160156 590.683594 115.050781 C 591.789062 114.941406 592.898438 114.886719 594.007812 114.886719 C 595.117188 114.886719 596.226562 114.941406 597.332031 115.050781 C 598.4375 115.160156 599.535156 115.320312 600.625 115.539062 C 601.710938 115.753906 602.789062 116.023438 603.851562 116.347656 C 604.914062 116.667969 605.960938 117.042969 606.984375 117.464844 C 608.011719 117.890625 609.015625 118.363281 609.996094 118.886719 C 610.976562 119.410156 611.925781 119.980469 612.851562 120.597656 C 613.773438 121.214844 614.664062 121.875 615.523438 122.578125 C 616.382812 123.28125 617.207031 124.027344 617.992188 124.8125 L 685.1875 192.007812 C 685.96875 192.792969 686.714844 193.617188 687.417969 194.476562 C 688.121094 195.335938 688.777344 196.226562 689.394531 197.148438 C 690.011719 198.074219 690.578125 199.027344 691.101562 200.007812 C 691.625 200.984375 692.097656 201.988281 692.523438 203.015625 C 692.945312 204.042969 693.320312 205.085938 693.640625 206.148438 C 693.960938 207.210938 694.230469 208.289062 694.449219 209.375 C 694.664062 210.464844 694.824219 211.5625 694.933594 212.667969 C 695.042969 213.773438 695.097656 214.878906 695.097656 215.992188 C 695.097656 217.101562 695.042969 218.210938 694.933594 219.3125 C 694.824219 220.417969 694.664062 221.515625 694.449219 222.605469 C 694.230469 223.695312 693.960938 224.769531 693.640625 225.832031 C 693.320312 226.894531 692.945312 227.941406 692.523438 228.96875 C 692.097656 229.992188 691.625 230.996094 691.101562 231.976562 C 690.578125 232.957031 690.011719 233.90625 689.394531 234.832031 C 688.777344 235.753906 688.121094 236.648438 687.417969 237.507812 C 686.714844 238.367188 685.96875 239.1875 685.1875 239.976562 L 638.246094 286.847656 C 644.28125 298.722656 649.371094 310.988281 653.523438 323.644531 L 719.753906 323.644531 C 720.863281 323.644531 721.972656 323.699219 723.078125 323.808594 C 724.183594 323.917969 725.28125 324.082031 726.371094 324.296875 C 727.457031 324.515625 728.535156 324.785156 729.597656 325.105469 C 730.660156 325.429688 731.703125 325.804688 732.730469 326.230469 C 733.757812 326.652344 734.757812 327.128906 735.738281 327.652344 C 736.71875 328.175781 737.667969 328.746094 738.59375 329.363281 C 739.515625 329.980469 740.40625 330.640625 741.265625 331.34375 C 742.125 332.050781 742.945312 332.792969 743.734375 333.578125 C 744.519531 334.363281 745.261719 335.1875 745.96875 336.042969 C 746.671875 336.902344 747.335938 337.792969 747.953125 338.714844 C 748.570312 339.640625 749.140625 340.589844 749.664062 341.570312 C 750.1875 342.550781 750.664062 343.550781 751.089844 344.578125 C 751.515625 345.605469 751.886719 346.648438 752.210938 347.710938 C 752.535156 348.773438 752.804688 349.847656 753.023438 350.9375 C 753.238281 352.027344 753.402344 353.125 753.515625 354.230469 C 753.625 355.335938 753.679688 356.441406 753.679688 357.554688 L 753.679688 452.480469 C 753.679688 453.589844 753.625 454.699219 753.515625 455.804688 C 753.402344 456.90625 753.238281 458.003906 753.023438 459.09375 C 752.804688 460.183594 752.535156 461.257812 752.210938 462.320312 C 751.886719 463.382812 751.515625 464.429688 751.089844 465.453125 C 750.664062 466.480469 750.1875 467.484375 749.664062 468.460938 C 749.140625 469.441406 748.570312 470.390625 747.953125 471.316406 C 747.335938 472.238281 746.671875 473.128906 745.96875 473.988281 C 745.261719 474.847656 744.519531 475.667969 743.730469 476.453125 C 742.945312 477.238281 742.125 477.984375 741.265625 478.6875 C 740.40625 479.390625 739.515625 480.050781 738.59375 480.667969 C 737.667969 481.285156 736.71875 481.855469 735.738281 482.378906 C 734.757812 482.902344 733.757812 483.378906 732.730469 483.804688 C 731.703125 484.226562 730.660156 484.601562 729.597656 484.925781 C 728.535156 485.246094 727.457031 485.515625 726.371094 485.734375 C 725.28125 485.953125 724.183594 486.113281 723.078125 486.222656 C 721.972656 486.332031 720.863281 486.386719 719.753906 486.386719 L 653.523438 486.386719 C 649.371094 499.042969 644.28125 511.308594 638.246094 523.183594 L 685.1875 570.023438 C 685.96875 570.808594 686.714844 571.632812 687.417969 572.492188 C 688.121094 573.351562 688.777344 574.242188 689.394531 575.167969 C 690.011719 576.089844 690.578125 577.042969 691.101562 578.023438 C 691.625 579.003906 692.097656 580.003906 692.523438 581.03125 C 692.945312 582.058594 693.320312 583.101562 693.640625 584.164062 C 693.960938 585.226562 694.230469 586.304688 694.449219 587.394531 C 694.664062 588.480469 694.824219 589.578125 694.933594 590.683594 C 695.042969 591.789062 695.097656 592.898438 695.097656 594.007812 C 695.097656 595.117188 695.042969 596.226562 694.933594 597.332031 C 694.824219 598.433594 694.664062 599.53125 694.449219 600.621094 C 694.230469 601.710938 693.960938 602.785156 693.640625 603.851562 C 693.320312 604.914062 692.945312 605.957031 692.523438 606.984375 C 692.097656 608.007812 691.625 609.011719 691.101562 609.992188 C 690.578125 610.972656 690.011719 611.925781 689.394531 612.847656 C 688.777344 613.773438 688.121094 614.664062 687.417969 615.523438 C 686.714844 616.382812 685.96875 617.207031 685.1875 617.992188 L 617.992188 685.1875 C 617.207031 685.972656 616.382812 686.714844 615.523438 687.417969 C 614.664062 688.125 613.773438 688.785156 612.851562 689.402344 C 611.925781 690.015625 610.976562 690.585938 609.996094 691.109375 C 609.015625 691.632812 608.011719 692.105469 606.984375 692.53125 C 605.960938 692.957031 604.914062 693.332031 603.851562 693.652344 C 602.789062 693.972656 601.710938 694.242188 600.625 694.460938 C 599.535156 694.675781 598.4375 694.839844 597.332031 694.949219 C 596.226562 695.058594 595.117188 695.109375 594.007812 695.109375 C 592.898438 695.109375 591.789062 695.058594 590.683594 694.949219 C 589.578125 694.839844 588.480469 694.675781 587.390625 694.460938 C 586.300781 694.242188 585.226562 693.972656 584.164062 693.652344 C 583.101562 693.332031 582.054688 692.957031 581.027344 692.53125 C 580.003906 692.105469 579 691.632812 578.019531 691.109375 C 577.039062 690.585938 576.089844 690.015625 575.164062 689.402344 C 574.242188 688.785156 573.347656 688.125 572.488281 687.417969 C 571.632812 686.714844 570.808594 685.972656 570.023438 685.1875 L 523.148438 638.246094 C 511.277344 644.28125 499.011719 649.371094 486.355469 653.523438 L 486.355469 719.769531 C 486.355469 720.878906 486.296875 721.988281 486.1875 723.09375 C 486.078125 724.195312 485.914062 725.292969 485.699219 726.382812 C 485.480469 727.46875 485.210938 728.546875 484.886719 729.609375 C 484.566406 730.667969 484.191406 731.714844 483.765625 732.738281 C 483.339844 733.761719 482.867188 734.765625 482.34375 735.746094 C 481.820312 736.722656 481.25 737.671875 480.632812 738.597656 C 480.015625 739.519531 479.355469 740.410156 478.652344 741.269531 C 477.949219 742.125 477.203125 742.949219 476.417969 743.734375 C 475.632812 744.515625 474.8125 745.261719 473.957031 745.964844 C 473.097656 746.671875 472.207031 747.332031 471.285156 747.949219 C 470.363281 748.566406 469.414062 749.136719 468.433594 749.660156 C 467.457031 750.183594 466.453125 750.660156 465.429688 751.085938 C 464.402344 751.511719 463.359375 751.886719 462.296875 752.207031 C 461.234375 752.53125 460.160156 752.800781 459.074219 753.019531 C 457.984375 753.238281 456.886719 753.402344 455.785156 753.511719 C 454.679688 753.621094 453.570312 753.679688 452.460938 753.679688 Z M 283.777344 600.554688 C 286.789062 600.542969 289.601562 601.285156 292.214844 602.785156 C 308.886719 612.335938 326.484375 619.648438 345.011719 624.726562 C 345.898438 624.96875 346.761719 625.28125 347.597656 625.664062 C 348.433594 626.046875 349.234375 626.496094 349.996094 627.007812 C 350.757812 627.523438 351.476562 628.09375 352.144531 628.722656 C 352.816406 629.355469 353.429688 630.035156 353.988281 630.765625 C 354.546875 631.496094 355.039062 632.269531 355.472656 633.082031 C 355.90625 633.890625 356.269531 634.734375 356.5625 635.605469 C 356.855469 636.476562 357.078125 637.367188 357.226562 638.273438 C 357.378906 639.179688 357.453125 640.09375 357.453125 641.015625 L 357.453125 719.804688 C 357.4375 719.917969 357.488281 719.972656 357.605469 719.972656 L 452.53125 719.972656 C 452.632812 719.972656 452.679688 719.921875 452.679688 719.820312 L 452.679688 640.964844 C 452.679688 640.042969 452.757812 639.128906 452.90625 638.222656 C 453.054688 637.316406 453.277344 636.425781 453.570312 635.554688 C 453.863281 634.683594 454.230469 633.84375 454.660156 633.03125 C 455.09375 632.21875 455.589844 631.445312 456.144531 630.714844 C 456.703125 629.984375 457.316406 629.304688 457.988281 628.671875 C 458.65625 628.042969 459.375 627.472656 460.136719 626.957031 C 460.898438 626.445312 461.699219 625.996094 462.535156 625.613281 C 463.371094 625.230469 464.234375 624.917969 465.121094 624.675781 C 483.644531 619.601562 501.238281 612.285156 517.902344 602.734375 C 518.699219 602.28125 519.527344 601.894531 520.386719 601.578125 C 521.246094 601.257812 522.125 601.011719 523.023438 600.839844 C 523.925781 600.664062 524.832031 600.5625 525.75 600.535156 C 526.664062 600.507812 527.578125 600.558594 528.484375 600.679688 C 529.394531 600.800781 530.289062 600.996094 531.164062 601.261719 C 532.039062 601.53125 532.890625 601.867188 533.710938 602.273438 C 534.535156 602.675781 535.316406 603.148438 536.0625 603.679688 C 536.808594 604.214844 537.507812 604.804688 538.15625 605.449219 L 593.855469 661.152344 C 593.933594 661.226562 594.011719 661.226562 594.089844 661.152344 L 661.203125 594.042969 C 661.277344 593.960938 661.277344 593.882812 661.203125 593.804688 L 605.5 538.105469 C 604.855469 537.457031 604.265625 536.757812 603.730469 536.011719 C 603.199219 535.265625 602.726562 534.484375 602.324219 533.660156 C 601.917969 532.839844 601.582031 531.988281 601.3125 531.113281 C 601.046875 530.238281 600.851562 529.34375 600.730469 528.4375 C 600.609375 527.527344 600.558594 526.613281 600.585938 525.699219 C 600.613281 524.78125 600.714844 523.875 600.890625 522.972656 C 601.0625 522.074219 601.308594 521.195312 601.628906 520.335938 C 601.945312 519.476562 602.332031 518.648438 602.785156 517.851562 C 612.335938 501.1875 619.652344 483.59375 624.726562 465.070312 C 624.96875 464.183594 625.28125 463.320312 625.664062 462.484375 C 626.046875 461.648438 626.496094 460.847656 627.007812 460.085938 C 627.519531 459.324219 628.09375 458.605469 628.722656 457.9375 C 629.355469 457.269531 630.035156 456.652344 630.765625 456.09375 C 631.496094 455.539062 632.269531 455.042969 633.082031 454.609375 C 633.890625 454.179688 634.734375 453.816406 635.605469 453.519531 C 636.476562 453.226562 637.367188 453.003906 638.273438 452.855469 C 639.179688 452.707031 640.09375 452.628906 641.015625 452.632812 L 719.804688 452.632812 C 719.917969 452.644531 719.972656 452.59375 719.972656 452.480469 L 719.972656 357.535156 C 719.972656 357.421875 719.917969 357.371094 719.804688 357.382812 L 640.964844 357.382812 C 640.042969 357.382812 639.128906 357.308594 638.222656 357.160156 C 637.316406 357.011719 636.425781 356.789062 635.554688 356.496094 C 634.683594 356.199219 633.84375 355.835938 633.03125 355.40625 C 632.21875 354.972656 631.445312 354.476562 630.714844 353.917969 C 629.984375 353.363281 629.304688 352.746094 628.671875 352.078125 C 628.042969 351.410156 627.472656 350.691406 626.957031 349.929688 C 626.445312 349.167969 625.996094 348.367188 625.613281 347.53125 C 625.230469 346.695312 624.917969 345.832031 624.675781 344.945312 C 619.601562 326.421875 612.285156 308.828125 602.734375 292.164062 C 602.28125 291.367188 601.894531 290.539062 601.578125 289.679688 C 601.257812 288.820312 601.011719 287.941406 600.839844 287.039062 C 600.664062 286.140625 600.5625 285.234375 600.535156 284.316406 C 600.507812 283.398438 600.558594 282.488281 600.679688 281.578125 C 600.800781 280.671875 600.996094 279.777344 601.261719 278.902344 C 601.53125 278.023438 601.867188 277.175781 602.273438 276.355469 C 602.675781 275.53125 603.148438 274.746094 603.679688 274.003906 C 604.214844 273.257812 604.804688 272.558594 605.449219 271.910156 L 661.152344 216.210938 C 661.226562 216.136719 661.226562 216.0625 661.152344 215.992188 L 594.125 148.761719 C 594.046875 148.6875 593.96875 148.6875 593.890625 148.761719 L 538.1875 204.460938 C 537.539062 205.109375 536.84375 205.699219 536.097656 206.234375 C 535.351562 206.765625 534.566406 207.234375 533.746094 207.640625 C 532.925781 208.046875 532.074219 208.382812 531.199219 208.652344 C 530.320312 208.917969 529.429688 209.113281 528.519531 209.234375 C 527.613281 209.355469 526.699219 209.40625 525.78125 209.378906 C 524.867188 209.351562 523.957031 209.25 523.058594 209.074219 C 522.160156 208.902344 521.28125 208.65625 520.417969 208.335938 C 519.558594 208.019531 518.730469 207.632812 517.933594 207.179688 C 501.273438 197.628906 483.679688 190.3125 465.15625 185.238281 C 464.269531 184.996094 463.40625 184.683594 462.570312 184.300781 C 461.734375 183.917969 460.933594 183.46875 460.171875 182.957031 C 459.40625 182.441406 458.691406 181.871094 458.023438 181.242188 C 457.351562 180.609375 456.738281 179.929688 456.179688 179.199219 C 455.621094 178.46875 455.125 177.695312 454.695312 176.882812 C 454.261719 176.070312 453.898438 175.230469 453.605469 174.359375 C 453.308594 173.488281 453.089844 172.597656 452.9375 171.691406 C 452.789062 170.785156 452.714844 169.871094 452.714844 168.949219 L 452.714844 90.226562 C 452.714844 90.125 452.664062 90.074219 452.5625 90.074219 L 357.535156 90.074219 C 357.433594 90.074219 357.382812 90.125 357.382812 90.226562 L 357.382812 169.035156 C 357.382812 169.953125 357.308594 170.867188 357.160156 171.773438 C 357.011719 172.683594 356.789062 173.570312 356.496094 174.445312 C 356.199219 175.316406 355.835938 176.15625 355.40625 176.96875 C 354.972656 177.78125 354.476562 178.550781 353.917969 179.28125 C 353.363281 180.011719 352.746094 180.695312 352.078125 181.324219 C 351.410156 181.957031 350.691406 182.527344 349.929688 183.039062 C 349.167969 183.554688 348.367188 184.003906 347.53125 184.386719 C 346.695312 184.769531 345.832031 185.082031 344.945312 185.324219 C 326.417969 190.402344 308.816406 197.714844 292.148438 207.265625 C 291.351562 207.71875 290.523438 208.101562 289.664062 208.421875 C 288.804688 208.738281 287.921875 208.984375 287.023438 209.160156 C 286.125 209.335938 285.214844 209.4375 284.300781 209.460938 C 283.382812 209.488281 282.472656 209.441406 281.5625 209.320312 C 280.652344 209.199219 279.761719 209.003906 278.886719 208.734375 C 278.007812 208.46875 277.160156 208.132812 276.335938 207.726562 C 275.515625 207.320312 274.730469 206.851562 273.984375 206.316406 C 273.238281 205.785156 272.542969 205.195312 271.894531 204.546875 L 216.195312 148.847656 C 216.113281 148.769531 216.035156 148.769531 215.957031 148.847656 L 148.761719 215.957031 C 148.6875 216.03125 148.6875 216.105469 148.761719 216.175781 L 204.460938 271.875 C 205.109375 272.527344 205.699219 273.222656 206.234375 273.96875 C 206.765625 274.714844 207.234375 275.496094 207.640625 276.320312 C 208.046875 277.140625 208.382812 277.992188 208.652344 278.867188 C 208.917969 279.746094 209.113281 280.636719 209.234375 281.546875 C 209.355469 282.453125 209.40625 283.367188 209.378906 284.28125 C 209.351562 285.199219 209.25 286.105469 209.074219 287.007812 C 208.902344 287.90625 208.65625 288.785156 208.335938 289.644531 C 208.019531 290.507812 207.632812 291.335938 207.179688 292.132812 C 197.628906 308.792969 190.3125 326.386719 185.238281 344.910156 C 184.996094 345.796875 184.683594 346.660156 184.300781 347.496094 C 183.917969 348.332031 183.46875 349.132812 182.957031 349.894531 C 182.441406 350.660156 181.871094 351.375 181.242188 352.042969 C 180.609375 352.714844 179.929688 353.328125 179.199219 353.886719 C 178.46875 354.445312 177.695312 354.9375 176.882812 355.371094 C 176.070312 355.804688 175.230469 356.167969 174.359375 356.460938 C 173.488281 356.757812 172.597656 356.976562 171.691406 357.128906 C 170.785156 357.277344 169.871094 357.351562 168.949219 357.351562 L 90.226562 357.351562 C 90.125 357.351562 90.074219 357.402344 90.074219 357.503906 L 90.074219 452.429688 C 90.074219 452.53125 90.125 452.582031 90.226562 452.582031 L 169.035156 452.582031 C 169.953125 452.582031 170.867188 452.65625 171.773438 452.804688 C 172.683594 452.953125 173.570312 453.175781 174.445312 453.46875 C 175.316406 453.765625 176.15625 454.128906 176.96875 454.558594 C 177.78125 454.992188 178.550781 455.488281 179.28125 456.046875 C 180.011719 456.601562 180.695312 457.21875 181.324219 457.886719 C 181.957031 458.554688 182.527344 459.273438 183.039062 460.035156 C 183.554688 460.796875 184.003906 461.597656 184.386719 462.433594 C 184.769531 463.269531 185.082031 464.132812 185.324219 465.019531 C 190.398438 483.542969 197.710938 501.136719 207.265625 517.800781 C 207.71875 518.597656 208.101562 519.425781 208.421875 520.285156 C 208.738281 521.144531 208.984375 522.023438 209.160156 522.925781 C 209.335938 523.824219 209.4375 524.730469 209.460938 525.648438 C 209.488281 526.5625 209.441406 527.476562 209.320312 528.386719 C 209.199219 529.292969 209.003906 530.1875 208.734375 531.0625 C 208.46875 531.941406 208.132812 532.789062 207.726562 533.609375 C 207.320312 534.433594 206.851562 535.214844 206.316406 535.960938 C 205.785156 536.707031 205.195312 537.40625 204.546875 538.054688 L 148.847656 593.753906 C 148.78125 593.832031 148.78125 593.910156 148.847656 593.992188 L 215.957031 661.234375 C 216.035156 661.3125 216.113281 661.3125 216.195312 661.234375 L 271.894531 605.535156 C 273.464844 603.953125 275.28125 602.730469 277.339844 601.867188 C 279.398438 601.003906 281.542969 600.566406 283.777344 600.554688 Z M 405.21875 584.722656 C 399.320312 584.75 393.433594 584.480469 387.558594 583.925781 C 381.6875 583.367188 375.855469 582.519531 370.066406 581.386719 C 364.277344 580.253906 358.558594 578.835938 352.910156 577.136719 C 347.261719 575.433594 341.710938 573.460938 336.257812 571.210938 C 330.800781 568.960938 325.472656 566.449219 320.269531 563.671875 C 315.0625 560.894531 310.007812 557.871094 305.101562 554.59375 C 300.195312 551.316406 295.464844 547.804688 290.90625 544.0625 C 286.347656 540.316406 281.984375 536.355469 277.816406 532.179688 C 227.316406 481.695312 211.839844 407.160156 237.425781 337.6875 C 239.53125 331.960938 241.941406 326.363281 244.652344 320.898438 C 247.367188 315.433594 250.363281 310.128906 253.652344 304.988281 C 256.9375 299.847656 260.492188 294.898438 264.316406 290.144531 C 268.140625 285.390625 272.207031 280.855469 276.523438 276.539062 C 280.835938 272.226562 285.371094 268.15625 290.128906 264.332031 C 294.882812 260.511719 299.832031 256.957031 304.972656 253.667969 C 310.113281 250.382812 315.414062 247.382812 320.882812 244.671875 C 326.347656 241.957031 331.941406 239.550781 337.667969 237.445312 C 407.144531 211.839844 481.679688 227.316406 532.179688 277.816406 C 582.683594 328.320312 598.160156 402.839844 572.570312 472.328125 C 570.464844 478.054688 568.054688 483.652344 565.339844 489.117188 C 562.628906 494.582031 559.628906 499.886719 556.339844 505.027344 C 553.050781 510.167969 549.496094 515.113281 545.671875 519.871094 C 541.847656 524.625 537.777344 529.160156 533.464844 533.472656 C 529.148438 537.789062 524.613281 541.855469 519.855469 545.679688 C 515.101562 549.503906 510.152344 553.058594 505.011719 556.34375 C 499.871094 559.632812 494.566406 562.632812 489.101562 565.34375 C 483.636719 568.054688 478.039062 570.464844 472.3125 572.570312 C 461.574219 576.5625 450.574219 579.578125 439.304688 581.621094 C 428.035156 583.660156 416.671875 584.695312 405.21875 584.722656 Z M 405.472656 258.8125 C 395.886719 258.859375 386.382812 259.746094 376.953125 261.476562 C 367.527344 263.207031 358.328125 265.75 349.351562 269.109375 C 344.765625 270.792969 340.289062 272.71875 335.914062 274.890625 C 331.539062 277.058594 327.296875 279.457031 323.183594 282.085938 C 319.066406 284.714844 315.109375 287.558594 311.300781 290.617188 C 307.496094 293.675781 303.867188 296.929688 300.414062 300.382812 C 296.960938 303.832031 293.703125 307.460938 290.640625 311.265625 C 287.582031 315.070312 284.734375 319.027344 282.101562 323.140625 C 279.472656 327.253906 277.070312 331.496094 274.898438 335.867188 C 272.726562 340.242188 270.796875 344.71875 269.109375 349.300781 C 247.808594 407.125 259.976562 466.554688 301.683594 508.246094 C 305.035156 511.644531 308.542969 514.867188 312.210938 517.917969 C 315.882812 520.964844 319.695312 523.824219 323.648438 526.496094 C 327.601562 529.164062 331.679688 531.632812 335.878906 533.894531 C 340.078125 536.160156 344.382812 538.210938 348.785156 540.046875 C 353.1875 541.882812 357.671875 543.496094 362.238281 544.882812 C 366.800781 546.273438 371.421875 547.433594 376.101562 548.363281 C 380.785156 549.292969 385.496094 549.988281 390.246094 550.449219 C 394.996094 550.90625 399.753906 551.132812 404.527344 551.117188 C 414.109375 551.074219 423.617188 550.191406 433.042969 548.460938 C 442.472656 546.730469 451.671875 544.183594 460.648438 540.824219 C 465.230469 539.140625 469.707031 537.214844 474.078125 535.046875 C 478.453125 532.882812 482.695312 530.484375 486.808594 527.859375 C 490.921875 525.230469 494.882812 522.390625 498.6875 519.335938 C 502.492188 516.28125 506.121094 513.027344 509.574219 509.578125 C 513.027344 506.132812 516.285156 502.507812 519.347656 498.707031 C 522.40625 494.90625 525.253906 490.949219 527.886719 486.839844 C 530.519531 482.730469 532.921875 478.492188 535.097656 474.121094 C 537.269531 469.75 539.199219 465.277344 540.890625 460.699219 C 562.191406 402.871094 550.019531 343.441406 508.3125 301.734375 C 504.964844 298.335938 501.457031 295.109375 497.789062 292.058594 C 494.121094 289.003906 490.308594 286.144531 486.355469 283.472656 C 482.402344 280.800781 478.324219 278.332031 474.125 276.066406 C 469.925781 273.796875 465.621094 271.746094 461.21875 269.90625 C 456.816406 268.070312 452.332031 266.457031 447.765625 265.0625 C 443.203125 263.671875 438.578125 262.511719 433.898438 261.578125 C 429.21875 260.648438 424.503906 259.949219 419.753906 259.488281 C 415.003906 259.027344 410.242188 258.800781 405.472656 258.8125 Z M 405.472656 258.8125 "/><path style=" stroke:none;fill-rule:nonzero;fill:#ffffff;fill-opacity:1;" d="M 452.460938 753.679688 L 357.535156 753.679688 C 356.425781 753.679688 355.316406 753.625 354.210938 753.515625 C 353.105469 753.402344 352.011719 753.238281 350.921875 753.023438 C 349.832031 752.804688 348.757812 752.535156 347.695312 752.210938 C 346.632812 751.886719 345.585938 751.515625 344.5625 751.089844 C 343.535156 750.664062 342.53125 750.1875 341.554688 749.664062 C 340.574219 749.140625 339.621094 748.570312 338.699219 747.953125 C 337.777344 747.335938 336.886719 746.671875 336.027344 745.96875 C 335.167969 745.261719 334.347656 744.519531 333.5625 743.730469 C 332.777344 742.945312 332.03125 742.125 331.328125 741.265625 C 330.625 740.40625 329.964844 739.515625 329.347656 738.59375 C 328.730469 737.667969 328.160156 736.71875 327.636719 735.738281 C 327.113281 734.757812 326.636719 733.757812 326.210938 732.730469 C 325.785156 731.703125 325.414062 730.660156 325.089844 729.597656 C 324.769531 728.535156 324.496094 727.457031 324.28125 726.371094 C 324.0625 725.28125 323.902344 724.183594 323.792969 723.078125 C 323.683594 721.972656 323.628906 720.863281 323.625 719.753906 L 323.625 653.523438 C 310.96875 649.371094 298.707031 644.28125 286.832031 638.246094 L 239.976562 685.1875 C 239.191406 685.972656 238.367188 686.714844 237.507812 687.417969 C 236.648438 688.125 235.757812 688.785156 234.835938 689.402344 C 233.910156 690.015625 232.957031 690.585938 231.980469 691.109375 C 231 691.632812 229.996094 692.105469 228.96875 692.53125 C 227.941406 692.957031 226.898438 693.332031 225.835938 693.652344 C 224.773438 693.972656 223.695312 694.242188 222.605469 694.460938 C 221.519531 694.675781 220.421875 694.839844 219.316406 694.949219 C 218.210938 695.058594 217.101562 695.109375 215.992188 695.109375 C 214.878906 695.109375 213.773438 695.058594 212.667969 694.949219 C 211.5625 694.839844 210.464844 694.675781 209.375 694.460938 C 208.285156 694.242188 207.210938 693.972656 206.144531 693.652344 C 205.082031 693.332031 204.039062 692.957031 203.011719 692.53125 C 201.984375 692.105469 200.984375 691.632812 200.003906 691.109375 C 199.023438 690.585938 198.070312 690.015625 197.148438 689.402344 C 196.222656 688.785156 195.332031 688.125 194.472656 687.417969 C 193.613281 686.714844 192.792969 685.972656 192.007812 685.1875 L 124.8125 617.992188 C 124.027344 617.207031 123.28125 616.382812 122.578125 615.523438 C 121.875 614.664062 121.214844 613.773438 120.597656 612.851562 C 119.980469 611.925781 119.410156 610.976562 118.886719 609.996094 C 118.363281 609.015625 117.890625 608.011719 117.464844 606.984375 C 117.042969 605.960938 116.667969 604.914062 116.347656 603.851562 C 116.023438 602.789062 115.753906 601.710938 115.539062 600.625 C 115.320312 599.535156 115.160156 598.4375 115.050781 597.332031 C 114.941406 596.226562 114.886719 595.117188 114.886719 594.007812 C 114.886719 592.898438 114.941406 591.789062 115.050781 590.683594 C 115.160156 589.578125 115.320312 588.480469 115.539062 587.390625 C 115.753906 586.300781 116.023438 585.226562 116.347656 584.164062 C 116.667969 583.101562 117.042969 582.054688 117.464844 581.027344 C 117.890625 580.003906 118.363281 579 118.886719 578.019531 C 119.410156 577.039062 119.980469 576.089844 120.597656 575.164062 C 121.214844 574.242188 121.875 573.347656 122.578125 572.488281 C 123.28125 571.632812 124.027344 570.808594 124.8125 570.023438 L 171.75 523.148438 C 165.746094 511.273438 160.683594 499.007812 156.5625 486.355469 L 90.226562 486.355469 C 89.117188 486.355469 88.007812 486.296875 86.90625 486.1875 C 85.800781 486.078125 84.703125 485.914062 83.613281 485.699219 C 82.527344 485.480469 81.449219 485.210938 80.386719 484.886719 C 79.324219 484.5625 78.28125 484.191406 77.257812 483.765625 C 76.230469 483.339844 75.226562 482.863281 74.25 482.339844 C 73.269531 481.816406 72.320312 481.246094 71.394531 480.628906 C 70.472656 480.011719 69.582031 479.351562 68.726562 478.648438 C 67.867188 477.941406 67.042969 477.199219 66.261719 476.414062 C 65.476562 475.628906 64.730469 474.804688 64.027344 473.949219 C 63.320312 473.089844 62.660156 472.199219 62.042969 471.277344 C 61.425781 470.351562 60.855469 469.402344 60.332031 468.421875 C 59.808594 467.445312 59.332031 466.441406 58.910156 465.417969 C 58.484375 464.390625 58.109375 463.347656 57.785156 462.285156 C 57.460938 461.222656 57.191406 460.148438 56.976562 459.058594 C 56.757812 457.96875 56.59375 456.871094 56.484375 455.769531 C 56.375 454.664062 56.320312 453.554688 56.316406 452.445312 L 56.316406 357.535156 C 56.320312 356.425781 56.375 355.316406 56.484375 354.214844 C 56.59375 353.109375 56.757812 352.011719 56.976562 350.921875 C 57.191406 349.835938 57.460938 348.757812 57.785156 347.695312 C 58.109375 346.632812 58.484375 345.589844 58.910156 344.566406 C 59.332031 343.539062 59.808594 342.535156 60.332031 341.558594 C 60.855469 340.578125 61.425781 339.628906 62.042969 338.703125 C 62.660156 337.78125 63.320312 336.890625 64.027344 336.035156 C 64.730469 335.175781 65.476562 334.355469 66.261719 333.570312 C 67.042969 332.785156 67.867188 332.039062 68.726562 331.335938 C 69.582031 330.628906 70.472656 329.96875 71.394531 329.351562 C 72.320312 328.734375 73.269531 328.164062 74.25 327.640625 C 75.226562 327.117188 76.230469 326.640625 77.257812 326.21875 C 78.28125 325.792969 79.324219 325.417969 80.386719 325.09375 C 81.449219 324.773438 82.527344 324.5 83.613281 324.285156 C 84.703125 324.066406 85.800781 323.902344 86.90625 323.792969 C 88.007812 323.683594 89.117188 323.628906 90.226562 323.625 L 156.476562 323.625 C 160.597656 310.972656 165.664062 298.707031 171.667969 286.832031 L 124.8125 239.976562 C 124.027344 239.191406 123.28125 238.367188 122.578125 237.507812 C 121.875 236.648438 121.214844 235.757812 120.597656 234.835938 C 119.980469 233.910156 119.410156 232.957031 118.886719 231.980469 C 118.363281 231 117.890625 229.996094 117.464844 228.96875 C 117.042969 227.941406 116.667969 226.898438 116.347656 225.835938 C 116.023438 224.773438 115.753906 223.695312 115.539062 222.605469 C 115.320312 221.519531 115.160156 220.421875 115.050781 219.316406 C 114.941406 218.210938 114.886719 217.101562 114.886719 215.992188 C 114.886719 214.878906 114.941406 213.773438 115.050781 212.667969 C 115.160156 211.5625 115.320312 210.464844 115.539062 209.375 C 115.753906 208.285156 116.023438 207.210938 116.347656 206.144531 C 116.667969 205.082031 117.042969 204.039062 117.464844 203.011719 C 117.890625 201.984375 118.363281 200.984375 118.886719 200.003906 C 119.410156 199.023438 119.980469 198.070312 120.597656 197.148438 C 121.214844 196.222656 121.875 195.332031 122.578125 194.472656 C 123.28125 193.613281 124.027344 192.792969 124.8125 192.007812 L 192.007812 124.8125 C 192.792969 124.027344 193.613281 123.28125 194.472656 122.578125 C 195.332031 121.875 196.222656 121.214844 197.148438 120.597656 C 198.070312 119.980469 199.023438 119.410156 200.003906 118.886719 C 200.984375 118.363281 201.984375 117.890625 203.011719 117.464844 C 204.039062 117.042969 205.082031 116.667969 206.144531 116.347656 C 207.210938 116.023438 208.285156 115.753906 209.375 115.539062 C 210.464844 115.320312 211.5625 115.160156 212.667969 115.050781 C 213.773438 114.941406 214.878906 114.886719 215.992188 114.886719 C 217.101562 114.886719 218.210938 114.941406 219.316406 115.050781 C 220.421875 115.160156 221.519531 115.320312 222.605469 115.539062 C 223.695312 115.753906 224.773438 116.023438 225.835938 116.347656 C 226.898438 116.667969 227.941406 117.042969 228.96875 117.464844 C 229.996094 117.890625 231 118.363281 231.980469 118.886719 C 232.957031 119.410156 233.910156 119.980469 234.835938 120.597656 C 235.757812 121.214844 236.648438 121.875 237.507812 122.578125 C 238.367188 123.28125 239.191406 124.027344 239.976562 124.8125 L 286.847656 171.75 C 298.722656 165.746094 310.988281 160.683594 323.644531 156.5625 L 323.644531 90.226562 C 323.644531 89.117188 323.699219 88.007812 323.808594 86.90625 C 323.917969 85.800781 324.082031 84.703125 324.300781 83.613281 C 324.519531 82.527344 324.789062 81.449219 325.109375 80.386719 C 325.433594 79.324219 325.808594 78.28125 326.234375 77.257812 C 326.660156 76.230469 327.132812 75.226562 327.65625 74.25 C 328.179688 73.269531 328.75 72.320312 329.367188 71.394531 C 329.984375 70.472656 330.648438 69.582031 331.351562 68.726562 C 332.054688 67.867188 332.800781 67.042969 333.585938 66.261719 C 334.371094 65.476562 335.191406 64.730469 336.050781 64.027344 C 336.910156 63.320312 337.800781 62.660156 338.722656 62.042969 C 339.644531 61.425781 340.597656 60.855469 341.574219 60.332031 C 342.554688 59.808594 343.554688 59.332031 344.582031 58.910156 C 345.605469 58.484375 346.652344 58.109375 347.714844 57.785156 C 348.777344 57.460938 349.851562 57.191406 350.941406 56.976562 C 352.027344 56.757812 353.125 56.59375 354.230469 56.484375 C 355.335938 56.375 356.441406 56.320312 357.554688 56.316406 L 452.480469 56.316406 C 453.589844 56.320312 454.695312 56.375 455.800781 56.484375 C 456.90625 56.59375 458.003906 56.757812 459.09375 56.976562 C 460.179688 57.191406 461.257812 57.460938 462.320312 57.785156 C 463.382812 58.109375 464.425781 58.484375 465.449219 58.910156 C 466.476562 59.332031 467.476562 59.808594 468.457031 60.332031 C 469.4375 60.855469 470.386719 61.425781 471.308594 62.042969 C 472.234375 62.660156 473.125 63.320312 473.980469 64.027344 C 474.839844 64.730469 475.660156 65.476562 476.445312 66.261719 C 477.230469 67.042969 477.976562 67.867188 478.679688 68.726562 C 479.386719 69.582031 480.046875 70.472656 480.664062 71.394531 C 481.28125 72.320312 481.851562 73.269531 482.375 74.25 C 482.898438 75.226562 483.371094 76.230469 483.796875 77.257812 C 484.222656 78.28125 484.597656 79.324219 484.921875 80.386719 C 485.242188 81.449219 485.515625 82.527344 485.730469 83.613281 C 485.949219 84.703125 486.113281 85.800781 486.222656 86.90625 C 486.332031 88.007812 486.386719 89.117188 486.386719 90.226562 L 486.386719 156.476562 C 499.042969 160.597656 511.308594 165.664062 523.183594 171.667969 L 570.023438 124.8125 C 570.808594 124.027344 571.632812 123.28125 572.488281 122.578125 C 573.347656 121.875 574.242188 121.214844 575.164062 120.597656 C 576.089844 119.980469 577.039062 119.410156 578.019531 118.886719 C 579 118.363281 580.003906 117.890625 581.027344 117.464844 C 582.054688 117.042969 583.101562 116.667969 584.164062 116.347656 C 585.226562 116.023438 586.300781 115.753906 587.390625 115.539062 C 588.480469 115.320312 589.578125 115.160156 590.683594 115.050781 C 591.789062 114.941406 592.898438 114.886719 594.007812 114.886719 C 595.117188 114.886719 596.226562 114.941406 597.332031 115.050781 C 598.4375 115.160156 599.535156 115.320312 600.625 115.539062 C 601.710938 115.753906 602.789062 116.023438 603.851562 116.347656 C 604.914062 116.667969 605.960938 117.042969 606.984375 117.464844 C 608.011719 117.890625 609.015625 118.363281 609.996094 118.886719 C 610.976562 119.410156 611.925781 119.980469 612.851562 120.597656 C 613.773438 121.214844 614.664062 121.875 615.523438 122.578125 C 616.382812 123.28125 617.207031 124.027344 617.992188 124.8125 L 685.1875 192.007812 C 685.96875 192.792969 686.714844 193.617188 687.417969 194.476562 C 688.121094 195.335938 688.777344 196.226562 689.394531 197.148438 C 690.011719 198.074219 690.578125 199.027344 691.101562 200.007812 C 691.625 200.984375 692.097656 201.988281 692.523438 203.015625 C 692.945312 204.042969 693.320312 205.085938 693.640625 206.148438 C 693.960938 207.210938 694.230469 208.289062 694.449219 209.375 C 694.664062 210.464844 694.824219 211.5625 694.933594 212.667969 C 695.042969 213.773438 695.097656 214.878906 695.097656 215.992188 C 695.097656 217.101562 695.042969 218.210938 694.933594 219.3125 C 694.824219 220.417969 694.664062 221.515625 694.449219 222.605469 C 694.230469 223.695312 693.960938 224.769531 693.640625 225.832031 C 693.320312 226.894531 692.945312 227.941406 692.523438 228.96875 C 692.097656 229.992188 691.625 230.996094 691.101562 231.976562 C 690.578125 232.957031 690.011719 233.90625 689.394531 234.832031 C 688.777344 235.753906 688.121094 236.648438 687.417969 237.507812 C 686.714844 238.367188 685.96875 239.1875 685.1875 239.976562 L 638.246094 286.847656 C 644.28125 298.722656 649.371094 310.988281 653.523438 323.644531 L 719.753906 323.644531 C 720.863281 323.644531 721.972656 323.699219 723.078125 323.808594 C 724.183594 323.917969 725.28125 324.082031 726.371094 324.296875 C 727.457031 324.515625 728.535156 324.785156 729.597656 325.105469 C 730.660156 325.429688 731.703125 325.804688 732.730469 326.230469 C 733.757812 326.652344 734.757812 327.128906 735.738281 327.652344 C 736.71875 328.175781 737.667969 328.746094 738.59375 329.363281 C 739.515625 329.980469 740.40625 330.640625 741.265625 331.34375 C 742.125 332.050781 742.945312 332.792969 743.734375 333.578125 C 744.519531 334.363281 745.261719 335.1875 745.96875 336.042969 C 746.671875 336.902344 747.335938 337.792969 747.953125 338.714844 C 748.570312 339.640625 749.140625 340.589844 749.664062 341.570312 C 750.1875 342.550781 750.664062 343.550781 751.089844 344.578125 C 751.515625 345.605469 751.886719 346.648438 752.210938 347.710938 C 752.535156 348.773438 752.804688 349.847656 753.023438 350.9375 C 753.238281 352.027344 753.402344 353.125 753.515625 354.230469 C 753.625 355.335938 753.679688 356.441406 753.679688 357.554688 L 753.679688 452.480469 C 753.679688 453.589844 753.625 454.699219 753.515625 455.804688 C 753.402344 456.90625 753.238281 458.003906 753.023438 459.09375 C 752.804688 460.183594 752.535156 461.257812 752.210938 462.320312 C 751.886719 463.382812 751.515625 464.429688 751.089844 465.453125 C 750.664062 466.480469 750.1875 467.484375 749.664062 468.460938 C 749.140625 469.441406 748.570312 470.390625 747.953125 471.316406 C 747.335938 472.238281 746.671875 473.128906 745.96875 473.988281 C 745.261719 474.847656 744.519531 475.667969 743.730469 476.453125 C 742.945312 477.238281 742.125 477.984375 741.265625 478.6875 C 740.40625 479.390625 739.515625 480.050781 738.59375 480.667969 C 737.667969 481.285156 736.71875 481.855469 735.738281 482.378906 C 734.757812 482.902344 733.757812 483.378906 732.730469 483.804688 C 731.703125 484.226562 730.660156 484.601562 729.597656 484.925781 C 728.535156 485.246094 727.457031 485.515625 726.371094 485.734375 C 725.28125 485.953125 724.183594 486.113281 723.078125 486.222656 C 721.972656 486.332031 720.863281 486.386719 719.753906 486.386719 L 653.523438 486.386719 C 649.371094 499.042969 644.28125 511.308594 638.246094 523.183594 L 685.1875 570.023438 C 685.96875 570.808594 686.714844 571.632812 687.417969 572.492188 C 688.121094 573.351562 688.777344 574.242188 689.394531 575.167969 C 690.011719 576.089844 690.578125 577.042969 691.101562 578.023438 C 691.625 579.003906 692.097656 580.003906 692.523438 581.03125 C 692.945312 582.058594 693.320312 583.101562 693.640625 584.164062 C 693.960938 585.226562 694.230469 586.304688 694.449219 587.394531 C 694.664062 588.480469 694.824219 589.578125 694.933594 590.683594 C 695.042969 591.789062 695.097656 592.898438 695.097656 594.007812 C 695.097656 595.117188 695.042969 596.226562 694.933594 597.332031 C 694.824219 598.433594 694.664062 599.53125 694.449219 600.621094 C 694.230469 601.710938 693.960938 602.785156 693.640625 603.851562 C 693.320312 604.914062 692.945312 605.957031 692.523438 606.984375 C 692.097656 608.007812 691.625 609.011719 691.101562 609.992188 C 690.578125 610.972656 690.011719 611.925781 689.394531 612.847656 C 688.777344 613.773438 688.121094 614.664062 687.417969 615.523438 C 686.714844 616.382812 685.96875 617.207031 685.1875 617.992188 L 617.992188 685.1875 C 617.207031 685.972656 616.382812 686.714844 615.523438 687.417969 C 614.664062 688.125 613.773438 688.785156 612.851562 689.402344 C 611.925781 690.015625 610.976562 690.585938 609.996094 691.109375 C 609.015625 691.632812 608.011719 692.105469 606.984375 692.53125 C 605.960938 692.957031 604.914062 693.332031 603.851562 693.652344 C 602.789062 693.972656 601.710938 694.242188 600.625 694.460938 C 599.535156 694.675781 598.4375 694.839844 597.332031 694.949219 C 596.226562 695.058594 595.117188 695.109375 594.007812 695.109375 C 592.898438 695.109375 591.789062 695.058594 590.683594 694.949219 C 589.578125 694.839844 588.480469 694.675781 587.390625 694.460938 C 586.300781 694.242188 585.226562 693.972656 584.164062 693.652344 C 583.101562 693.332031 582.054688 692.957031 581.027344 692.53125 C 580.003906 692.105469 579 691.632812 578.019531 691.109375 C 577.039062 690.585938 576.089844 690.015625 575.164062 689.402344 C 574.242188 688.785156 573.347656 688.125 572.488281 687.417969 C 571.632812 686.714844 570.808594 685.972656 570.023438 685.1875 L 523.148438 638.246094 C 511.277344 644.28125 499.011719 649.371094 486.355469 653.523438 L 486.355469 719.769531 C 486.355469 720.878906 486.296875 721.988281 486.1875 723.09375 C 486.078125 724.195312 485.914062 725.292969 485.699219 726.382812 C 485.480469 727.46875 485.210938 728.546875 484.886719 729.609375 C 484.566406 730.667969 484.191406 731.714844 483.765625 732.738281 C 483.339844 733.761719 482.867188 734.765625 482.34375 735.746094 C 481.820312 736.722656 481.25 737.671875 480.632812 738.597656 C 480.015625 739.519531 479.355469 740.410156 478.652344 741.269531 C 477.949219 742.125 477.203125 742.949219 476.417969 743.734375 C 475.632812 744.515625 474.8125 745.261719 473.957031 745.964844 C 473.097656 746.671875 472.207031 747.332031 471.285156 747.949219 C 470.363281 748.566406 469.414062 749.136719 468.433594 749.660156 C 467.457031 750.183594 466.453125 750.660156 465.429688 751.085938 C 464.402344 751.511719 463.359375 751.886719 462.296875 752.207031 C 461.234375 752.53125 460.160156 752.800781 459.074219 753.019531 C 457.984375 753.238281 456.886719 753.402344 455.785156 753.511719 C 454.679688 753.621094 453.570312 753.679688 452.460938 753.679688 Z M 283.777344 600.554688 C 286.789062 600.542969 289.601562 601.285156 292.214844 602.785156 C 308.886719 612.335938 326.484375 619.648438 345.011719 624.726562 C 345.898438 624.96875 346.761719 625.28125 347.597656 625.664062 C 348.433594 626.046875 349.234375 626.496094 349.996094 627.007812 C 350.757812 627.523438 351.476562 628.09375 352.144531 628.722656 C 352.816406 629.355469 353.429688 630.035156 353.988281 630.765625 C 354.546875 631.496094 355.039062 632.269531 355.472656 633.082031 C 355.90625 633.890625 356.269531 634.734375 356.5625 635.605469 C 356.855469 636.476562 357.078125 637.367188 357.226562 638.273438 C 357.378906 639.179688 357.453125 640.09375 357.453125 641.015625 L 357.453125 719.804688 C 357.4375 719.917969 357.488281 719.972656 357.605469 719.972656 L 452.53125 719.972656 C 452.632812 719.972656 452.679688 719.921875 452.679688 719.820312 L 452.679688 640.964844 C 452.679688 640.042969 452.757812 639.128906 452.90625 638.222656 C 453.054688 637.316406 453.277344 636.425781 453.570312 635.554688 C 453.863281 634.683594 454.230469 633.84375 454.660156 633.03125 C 455.09375 632.21875 455.589844 631.445312 456.144531 630.714844 C 456.703125 629.984375 457.316406 629.304688 457.988281 628.671875 C 458.65625 628.042969 459.375 627.472656 460.136719 626.957031 C 460.898438 626.445312 461.699219 625.996094 462.535156 625.613281 C 463.371094 625.230469 464.234375 624.917969 465.121094 624.675781 C 483.644531 619.601562 501.238281 612.285156 517.902344 602.734375 C 518.699219 602.28125 519.527344 601.894531 520.386719 601.578125 C 521.246094 601.257812 522.125 601.011719 523.023438 600.839844 C 523.925781 600.664062 524.832031 600.5625 525.75 600.535156 C 526.664062 600.507812 527.578125 600.558594 528.484375 600.679688 C 529.394531 600.800781 530.289062 600.996094 531.164062 601.261719 C 532.039062 601.53125 532.890625 601.867188 533.710938 602.273438 C 534.535156 602.675781 535.316406 603.148438 536.0625 603.679688 C 536.808594 604.214844 537.507812 604.804688 538.15625 605.449219 L 593.855469 661.152344 C 593.933594 661.226562 594.011719 661.226562 594.089844 661.152344 L 661.203125 594.042969 C 661.277344 593.960938 661.277344 593.882812 661.203125 593.804688 L 605.5 538.105469 C 604.855469 537.457031 604.265625 536.757812 603.730469 536.011719 C 603.199219 535.265625 602.726562 534.484375 602.324219 533.660156 C 601.917969 532.839844 601.582031 531.988281 601.3125 531.113281 C 601.046875 530.238281 600.851562 529.34375 600.730469 528.4375 C 600.609375 527.527344 600.558594 526.613281 600.585938 525.699219 C 600.613281 524.78125 600.714844 523.875 600.890625 522.972656 C 601.0625 522.074219 601.308594 521.195312 601.628906 520.335938 C 601.945312 519.476562 602.332031 518.648438 602.785156 517.851562 C 612.335938 501.1875 619.652344 483.59375 624.726562 465.070312 C 624.96875 464.183594 625.28125 463.320312 625.664062 462.484375 C 626.046875 461.648438 626.496094 460.847656 627.007812 460.085938 C 627.519531 459.324219 628.09375 458.605469 628.722656 457.9375 C 629.355469 457.269531 630.035156 456.652344 630.765625 456.09375 C 631.496094 455.539062 632.269531 455.042969 633.082031 454.609375 C 633.890625 454.179688 634.734375 453.816406 635.605469 453.519531 C 636.476562 453.226562 637.367188 453.003906 638.273438 452.855469 C 639.179688 452.707031 640.09375 452.628906 641.015625 452.632812 L 719.804688 452.632812 C 719.917969 452.644531 719.972656 452.59375 719.972656 452.480469 L 719.972656 357.535156 C 719.972656 357.421875 719.917969 357.371094 719.804688 357.382812 L 640.964844 357.382812 C 640.042969 357.382812 639.128906 357.308594 638.222656 357.160156 C 637.316406 357.011719 636.425781 356.789062 635.554688 356.496094 C 634.683594 356.199219 633.84375 355.835938 633.03125 355.40625 C 632.21875 354.972656 631.445312 354.476562 630.714844 353.917969 C 629.984375 353.363281 629.304688 352.746094 628.671875 352.078125 C 628.042969 351.410156 627.472656 350.691406 626.957031 349.929688 C 626.445312 349.167969 625.996094 348.367188 625.613281 347.53125 C 625.230469 346.695312 624.917969 345.832031 624.675781 344.945312 C 619.601562 326.421875 612.285156 308.828125 602.734375 292.164062 C 602.28125 291.367188 601.894531 290.539062 601.578125 289.679688 C 601.257812 288.820312 601.011719 287.941406 600.839844 287.039062 C 600.664062 286.140625 600.5625 285.234375 600.535156 284.316406 C 600.507812 283.398438 600.558594 282.488281 600.679688 281.578125 C 600.800781 280.671875 600.996094 279.777344 601.261719 278.902344 C 601.53125 278.023438 601.867188 277.175781 602.273438 276.355469 C 602.675781 275.53125 603.148438 274.746094 603.679688 274.003906 C 604.214844 273.257812 604.804688 272.558594 605.449219 271.910156 L 661.152344 216.210938 C 661.226562 216.136719 661.226562 216.0625 661.152344 215.992188 L 594.125 148.761719 C 594.046875 148.6875 593.96875 148.6875 593.890625 148.761719 L 538.1875 204.460938 C 537.539062 205.109375 536.84375 205.699219 536.097656 206.234375 C 535.351562 206.765625 534.566406 207.234375 533.746094 207.640625 C 532.925781 208.046875 532.074219 208.382812 531.199219 208.652344 C 530.320312 208.917969 529.429688 209.113281 528.519531 209.234375 C 527.613281 209.355469 526.699219 209.40625 525.78125 209.378906 C 524.867188 209.351562 523.957031 209.25 523.058594 209.074219 C 522.160156 208.902344 521.28125 208.65625 520.417969 208.335938 C 519.558594 208.019531 518.730469 207.632812 517.933594 207.179688 C 501.273438 197.628906 483.679688 190.3125 465.15625 185.238281 C 464.269531 184.996094 463.40625 184.683594 462.570312 184.300781 C 461.734375 183.917969 460.933594 183.46875 460.171875 182.957031 C 459.40625 182.441406 458.691406 181.871094 458.023438 181.242188 C 457.351562 180.609375 456.738281 179.929688 456.179688 179.199219 C 455.621094 178.46875 455.125 177.695312 454.695312 176.882812 C 454.261719 176.070312 453.898438 175.230469 453.605469 174.359375 C 453.308594 173.488281 453.089844 172.597656 452.9375 171.691406 C 452.789062 170.785156 452.714844 169.871094 452.714844 168.949219 L 452.714844 90.226562 C 452.714844 90.125 452.664062 90.074219 452.5625 90.074219 L 357.535156 90.074219 C 357.433594 90.074219 357.382812 90.125 357.382812 90.226562 L 357.382812 169.035156 C 357.382812 169.953125 357.308594 170.867188 357.160156 171.773438 C 357.011719 172.683594 356.789062 173.570312 356.496094 174.445312 C 356.199219 175.316406 355.835938 176.15625 355.40625 176.96875 C 354.972656 177.78125 354.476562 178.550781 353.917969 179.28125 C 353.363281 180.011719 352.746094 180.695312 352.078125 181.324219 C 351.410156 181.957031 350.691406 182.527344 349.929688 183.039062 C 349.167969 183.554688 348.367188 184.003906 347.53125 184.386719 C 346.695312 184.769531 345.832031 185.082031 344.945312 185.324219 C 326.417969 190.402344 308.816406 197.714844 292.148438 207.265625 C 291.351562 207.71875 290.523438 208.101562 289.664062 208.421875 C 288.804688 208.738281 287.921875 208.984375 287.023438 209.160156 C 286.125 209.335938 285.214844 209.4375 284.300781 209.460938 C 283.382812 209.488281 282.472656 209.441406 281.5625 209.320312 C 280.652344 209.199219 279.761719 209.003906 278.886719 208.734375 C 278.007812 208.46875 277.160156 208.132812 276.335938 207.726562 C 275.515625 207.320312 274.730469 206.851562 273.984375 206.316406 C 273.238281 205.785156 272.542969 205.195312 271.894531 204.546875 L 216.195312 148.847656 C 216.113281 148.769531 216.035156 148.769531 215.957031 148.847656 L 148.761719 215.957031 C 148.6875 216.03125 148.6875 216.105469 148.761719 216.175781 L 204.460938 271.875 C 205.109375 272.527344 205.699219 273.222656 206.234375 273.96875 C 206.765625 274.714844 207.234375 275.496094 207.640625 276.320312 C 208.046875 277.140625 208.382812 277.992188 208.652344 278.867188 C 208.917969 279.746094 209.113281 280.636719 209.234375 281.546875 C 209.355469 282.453125 209.40625 283.367188 209.378906 284.28125 C 209.351562 285.199219 209.25 286.105469 209.074219 287.007812 C 208.902344 287.90625 208.65625 288.785156 208.335938 289.644531 C 208.019531 290.507812 207.632812 291.335938 207.179688 292.132812 C 197.628906 308.792969 190.3125 326.386719 185.238281 344.910156 C 184.996094 345.796875 184.683594 346.660156 184.300781 347.496094 C 183.917969 348.332031 183.46875 349.132812 182.957031 349.894531 C 182.441406 350.660156 181.871094 351.375 181.242188 352.042969 C 180.609375 352.714844 179.929688 353.328125 179.199219 353.886719 C 178.46875 354.445312 177.695312 354.9375 176.882812 355.371094 C 176.070312 355.804688 175.230469 356.167969 174.359375 356.460938 C 173.488281 356.757812 172.597656 356.976562 171.691406 357.128906 C 170.785156 357.277344 169.871094 357.351562 168.949219 357.351562 L 90.226562 357.351562 C 90.125 357.351562 90.074219 357.402344 90.074219 357.503906 L 90.074219 452.429688 C 90.074219 452.53125 90.125 452.582031 90.226562 452.582031 L 169.035156 452.582031 C 169.953125 452.582031 170.867188 452.65625 171.773438 452.804688 C 172.683594 452.953125 173.570312 453.175781 174.445312 453.46875 C 175.316406 453.765625 176.15625 454.128906 176.96875 454.558594 C 177.78125 454.992188 178.550781 455.488281 179.28125 456.046875 C 180.011719 456.601562 180.695312 457.21875 181.324219 457.886719 C 181.957031 458.554688 182.527344 459.273438 183.039062 460.035156 C 183.554688 460.796875 184.003906 461.597656 184.386719 462.433594 C 184.769531 463.269531 185.082031 464.132812 185.324219 465.019531 C 190.398438 483.542969 197.710938 501.136719 207.265625 517.800781 C 207.71875 518.597656 208.101562 519.425781 208.421875 520.285156 C 208.738281 521.144531 208.984375 522.023438 209.160156 522.925781 C 209.335938 523.824219 209.4375 524.730469 209.460938 525.648438 C 209.488281 526.5625 209.441406 527.476562 209.320312 528.386719 C 209.199219 529.292969 209.003906 530.1875 208.734375 531.0625 C 208.46875 531.941406 208.132812 532.789062 207.726562 533.609375 C 207.320312 534.433594 206.851562 535.214844 206.316406 535.960938 C 205.785156 536.707031 205.195312 537.40625 204.546875 538.054688 L 148.847656 593.753906 C 148.78125 593.832031 148.78125 593.910156 148.847656 593.992188 L 215.957031 661.234375 C 216.035156 661.3125 216.113281 661.3125 216.195312 661.234375 L 271.894531 605.535156 C 273.464844 603.953125 275.28125 602.730469 277.339844 601.867188 C 279.398438 601.003906 281.542969 600.566406 283.777344 600.554688 Z M 405.21875 584.722656 C 399.320312 584.75 393.433594 584.480469 387.558594 583.925781 C 381.6875 583.367188 375.855469 582.519531 370.066406 581.386719 C 364.277344 580.253906 358.558594 578.835938 352.910156 577.136719 C 347.261719 575.433594 341.710938 573.460938 336.257812 571.210938 C 330.800781 568.960938 325.472656 566.449219 320.269531 563.671875 C 315.0625 560.894531 310.007812 557.871094 305.101562 554.59375 C 300.195312 551.316406 295.464844 547.804688 290.90625 544.0625 C 286.347656 540.316406 281.984375 536.355469 277.816406 532.179688 C 227.316406 481.695312 211.839844 407.160156 237.425781 337.6875 C 239.53125 331.960938 241.941406 326.363281 244.652344 320.898438 C 247.367188 315.433594 250.363281 310.128906 253.652344 304.988281 C 256.9375 299.847656 260.492188 294.898438 264.316406 290.144531 C 268.140625 285.390625 272.207031 280.855469 276.523438 276.539062 C 280.835938 272.226562 285.371094 268.15625 290.128906 264.332031 C 294.882812 260.511719 299.832031 256.957031 304.972656 253.667969 C 310.113281 250.382812 315.414062 247.382812 320.882812 244.671875 C 326.347656 241.957031 331.941406 239.550781 337.667969 237.445312 C 407.144531 211.839844 481.679688 227.316406 532.179688 277.816406 C 582.683594 328.320312 598.160156 402.839844 572.570312 472.328125 C 570.464844 478.054688 568.054688 483.652344 565.339844 489.117188 C 562.628906 494.582031 559.628906 499.886719 556.339844 505.027344 C 553.050781 510.167969 549.496094 515.113281 545.671875 519.871094 C 541.847656 524.625 537.777344 529.160156 533.464844 533.472656 C 529.148438 537.789062 524.613281 541.855469 519.855469 545.679688 C 515.101562 549.503906 510.152344 553.058594 505.011719 556.34375 C 499.871094 559.632812 494.566406 562.632812 489.101562 565.34375 C 483.636719 568.054688 478.039062 570.464844 472.3125 572.570312 C 461.574219 576.5625 450.574219 579.578125 439.304688 581.621094 C 428.035156 583.660156 416.671875 584.695312 405.21875 584.722656 Z M 405.472656 258.8125 C 395.886719 258.859375 386.382812 259.746094 376.953125 261.476562 C 367.527344 263.207031 358.328125 265.75 349.351562 269.109375 C 344.765625 270.792969 340.289062 272.71875 335.914062 274.890625 C 331.539062 277.058594 327.296875 279.457031 323.183594 282.085938 C 319.066406 284.714844 315.109375 287.558594 311.300781 290.617188 C 307.496094 293.675781 303.867188 296.929688 300.414062 300.382812 C 296.960938 303.832031 293.703125 307.460938 290.640625 311.265625 C 287.582031 315.070312 284.734375 319.027344 282.101562 323.140625 C 279.472656 327.253906 277.070312 331.496094 274.898438 335.867188 C 272.726562 340.242188 270.796875 344.71875 269.109375 349.300781 C 247.808594 407.125 259.976562 466.554688 301.683594 508.246094 C 305.035156 511.644531 308.542969 514.867188 312.210938 517.917969 C 315.882812 520.964844 319.695312 523.824219 323.648438 526.496094 C 327.601562 529.164062 331.679688 531.632812 335.878906 533.894531 C 340.078125 536.160156 344.382812 538.210938 348.785156 540.046875 C 353.1875 541.882812 357.671875 543.496094 362.238281 544.882812 C 366.800781 546.273438 371.421875 547.433594 376.101562 548.363281 C 380.785156 549.292969 385.496094 549.988281 390.246094 550.449219 C 394.996094 550.90625 399.753906 551.132812 404.527344 551.117188 C 414.109375 551.074219 423.617188 550.191406 433.042969 548.460938 C 442.472656 546.730469 451.671875 544.183594 460.648438 540.824219 C 465.230469 539.140625 469.707031 537.214844 474.078125 535.046875 C 478.453125 532.882812 482.695312 530.484375 486.808594 527.859375 C 490.921875 525.230469 494.882812 522.390625 498.6875 519.335938 C 502.492188 516.28125 506.121094 513.027344 509.574219 509.578125 C 513.027344 506.132812 516.285156 502.507812 519.347656 498.707031 C 522.40625 494.90625 525.253906 490.949219 527.886719 486.839844 C 530.519531 482.730469 532.921875 478.492188 535.097656 474.121094 C 537.269531 469.75 539.199219 465.277344 540.890625 460.699219 C 562.191406 402.871094 550.019531 343.441406 508.3125 301.734375 C 504.964844 298.335938 501.457031 295.109375 497.789062 292.058594 C 494.121094 289.003906 490.308594 286.144531 486.355469 283.472656 C 482.402344 280.800781 478.324219 278.332031 474.125 276.066406 C 469.925781 273.796875 465.621094 271.746094 461.21875 269.90625 C 456.816406 268.070312 452.332031 266.457031 447.765625 265.0625 C 443.203125 263.671875 438.578125 262.511719 433.898438 261.578125 C 429.21875 260.648438 424.503906 259.949219 419.753906 259.488281 C 415.003906 259.027344 410.242188 258.800781 405.472656 258.8125 Z M 405.472656 258.8125 "/></g></g></svg>