<svg xmlns="http://www.w3.org/2000/svg" xmlns:xlink="http://www.w3.org/1999/xlink" width="1080" zoomAndPan="magnify" viewBox="0 0 810 809.999993" height="1080" preserveAspectRatio="xMidYMid meet" version="1.2"><defs><clipPath id="a40e7d1a21"><path d="M 72 124.523438 L 737 124.523438 L 737 685.523438 L 72 685.523438 Z M 72 124.523438 "/></clipPath><clipPath id="6d8b24d90e"><path d="M 72 124.523438 L 737 124.523438 L 737 685.523438 L 72 685.523438 Z M 72 124.523438 "/></clipPath></defs><g id="855e991eba"><rect x="0" width="810" y="0" height="809.999993" style="fill:#ffffff;fill-opacity:1;stroke:none;"/><rect x="0" width="810" y="0" height="809.999993" style="fill:#000000;fill-opacity:1;stroke:none;"/><g clip-rule="nonzero" clip-path="url(#a40e7d1a21)"><path style=" stroke:none;fill-rule:nonzero;fill:#ffffff;fill-opacity:1;" d="M 688.226562 249.640625 L 410.625 249.640625 L 301.289062 129.402344 C 298.679688 126.453125 294.816406 124.75 290.84375 124.75 L 120.539062 124.75 C 93.96875 124.75 72.285156 146.433594 72.285156 173.003906 L 72.285156 636.917969 C 72.285156 663.484375 93.96875 685.171875 120.539062 685.171875 L 688.226562 685.171875 C 714.792969 685.171875 736.480469 663.484375 736.480469 636.917969 L 736.480469 297.894531 C 736.480469 271.324219 714.792969 249.640625 688.226562 249.640625 Z M 100.667969 173.003906 C 100.667969 162.101562 109.636719 153.132812 120.539062 153.132812 L 284.601562 153.132812 L 372.363281 249.640625 L 100.667969 249.640625 Z M 708.09375 636.917969 C 708.09375 647.816406 699.125 656.785156 688.226562 656.785156 L 120.539062 656.785156 C 109.636719 656.785156 100.667969 647.816406 100.667969 636.917969 L 100.667969 278.023438 L 688.226562 278.023438 C 699.125 278.023438 708.09375 286.992188 708.09375 297.894531 Z M 708.09375 636.917969 "/></g><path style=" stroke:none;fill-rule:nonzero;fill:#ffffff;fill-opacity:1;" d="M 485.449219 464.113281 L 418.574219 464.113281 L 418.574219 397.238281 C 418.574219 389.40625 412.214844 383.046875 404.382812 383.046875 C 396.546875 383.046875 390.191406 389.40625 390.191406 397.238281 L 390.191406 464.113281 L 323.316406 464.113281 C 315.480469 464.113281 309.125 470.46875 309.125 478.304688 C 309.125 486.140625 315.480469 492.496094 323.316406 492.496094 L 390.191406 492.496094 L 390.191406 559.371094 C 390.191406 567.203125 396.546875 573.5625 404.382812 573.5625 C 412.214844 573.5625 418.574219 567.203125 418.574219 559.371094 L 418.574219 492.496094 L 485.449219 492.496094 C 493.28125 492.496094 499.640625 486.140625 499.640625 478.304688 C 499.640625 470.46875 493.28125 464.113281 485.449219 464.113281 Z M 485.449219 464.113281 "/><g clip-rule="nonzero" clip-path="url(#6d8b24d90e)"><path style=" stroke:none;fill-rule:nonzero;fill:#ffffff;fill-opacity:1;" d="M 688.226562 249.640625 L 410.625 249.640625 L 301.289062 129.402344 C 298.679688 126.453125 294.816406 124.75 290.84375 124.75 L 120.539062 124.75 C 93.96875 124.75 72.285156 146.433594 72.285156 173.003906 L 72.285156 636.917969 C 72.285156 663.484375 93.96875 685.171875 120.539062 685.171875 L 688.226562 685.171875 C 714.792969 685.171875 736.480469 663.484375 736.480469 636.917969 L 736.480469 297.894531 C 736.480469 271.324219 714.792969 249.640625 688.226562 249.640625 Z M 100.667969 173.003906 C 100.667969 162.101562 109.636719 153.132812 120.539062 153.132812 L 284.601562 153.132812 L 372.363281 249.640625 L 100.667969 249.640625 Z M 708.09375 636.917969 C 708.09375 647.816406 699.125 656.785156 688.226562 656.785156 L 120.539062 656.785156 C 109.636719 656.785156 100.667969 647.816406 100.667969 636.917969 L 100.667969 278.023438 L 688.226562 278.023438 C 699.125 278.023438 708.09375 286.992188 708.09375 297.894531 Z M 708.09375 636.917969 "/></g><path style=" stroke:none;fill-rule:nonzero;fill:#ffffff;fill-opacity:1;" d="M 485.449219 464.113281 L 418.574219 464.113281 L 418.574219 397.238281 C 418.574219 389.40625 412.214844 383.046875 404.382812 383.046875 C 396.546875 383.046875 390.191406 389.40625 390.191406 397.238281 L 390.191406 464.113281 L 323.316406 464.113281 C 315.480469 464.113281 309.125 470.46875 309.125 478.304688 C 309.125 486.140625 315.480469 492.496094 323.316406 492.496094 L 390.191406 492.496094 L 390.191406 559.371094 C 390.191406 567.203125 396.546875 573.5625 404.382812 573.5625 C 412.214844 573.5625 418.574219 567.203125 418.574219 559.371094 L 418.574219 492.496094 L 485.449219 492.496094 C 493.28125 492.496094 499.640625 486.140625 499.640625 478.304688 C 499.640625 470.46875 493.28125 464.113281 485.449219 464.113281 Z M 485.449219 464.113281 "/></g></svg>