<svg xmlns="http://www.w3.org/2000/svg" xmlns:xlink="http://www.w3.org/1999/xlink" width="1080" zoomAndPan="magnify" viewBox="0 0 810 809.999993" height="1080" preserveAspectRatio="xMidYMid meet" version="1.2"><defs><clipPath id="bddc382818"><path d="M 92.769531 81 L 717.519531 81 L 717.519531 705.75 L 92.769531 705.75 Z M 92.769531 81 "/></clipPath></defs><g id="5426a2d607"><rect x="0" width="810" y="0" height="809.999993" style="fill:#ffffff;fill-opacity:1;stroke:none;"/><rect x="0" width="810" y="0" height="809.999993" style="fill:#000000;fill-opacity:1;stroke:none;"/><g clip-rule="nonzero" clip-path="url(#bddc382818)"><path style=" stroke:none;fill-rule:evenodd;fill:#1795e5;fill-opacity:1;" d="M 221.96875 129.449219 C 221.96875 102.691406 243.660156 81 270.417969 81 C 297.175781 81 318.867188 102.691406 318.867188 129.449219 L 318.867188 145.597656 L 491.128906 145.597656 L 491.128906 129.449219 C 491.128906 102.691406 512.824219 81 539.578125 81 C 566.335938 81 588.027344 102.691406 588.027344 129.449219 L 588.027344 145.597656 L 663.394531 145.597656 C 693.125 145.597656 717.226562 169.699219 717.226562 199.429688 L 717.226562 651.625 C 717.226562 681.355469 693.125 705.457031 663.394531 705.457031 L 146.601562 705.457031 C 116.871094 705.457031 92.769531 681.355469 92.769531 651.625 L 92.769531 199.429688 C 92.769531 169.699219 116.871094 145.597656 146.601562 145.597656 L 221.96875 145.597656 Z M 588.027344 167.132812 L 588.027344 194.046875 C 588.027344 220.804688 566.335938 242.496094 539.578125 242.496094 C 512.824219 242.496094 491.128906 220.804688 491.128906 194.046875 L 491.128906 167.132812 L 318.867188 167.132812 L 318.867188 194.046875 C 318.867188 220.804688 297.175781 242.496094 270.417969 242.496094 C 243.660156 242.496094 221.96875 220.804688 221.96875 194.046875 L 221.96875 167.132812 L 146.601562 167.132812 C 128.765625 167.132812 114.304688 181.59375 114.304688 199.429688 L 114.304688 253.265625 L 695.695312 253.265625 L 695.695312 199.429688 C 695.695312 181.59375 681.234375 167.132812 663.394531 167.132812 Z M 270.417969 102.53125 C 255.550781 102.53125 243.5 114.582031 243.5 129.449219 L 243.5 194.046875 C 243.5 208.914062 255.550781 220.964844 270.417969 220.964844 C 285.28125 220.964844 297.332031 208.914062 297.332031 194.046875 L 297.332031 129.449219 C 297.332031 114.582031 285.28125 102.53125 270.417969 102.53125 Z M 114.304688 274.796875 L 114.304688 651.625 C 114.304688 669.464844 128.765625 683.925781 146.601562 683.925781 L 663.394531 683.925781 C 681.234375 683.925781 695.695312 669.464844 695.695312 651.625 L 695.695312 274.796875 Z M 512.664062 129.449219 C 512.664062 114.582031 524.714844 102.53125 539.578125 102.53125 C 554.445312 102.53125 566.496094 114.582031 566.496094 129.449219 L 566.496094 194.046875 C 566.496094 208.914062 554.445312 220.964844 539.578125 220.964844 C 524.714844 220.964844 512.664062 208.914062 512.664062 194.046875 Z M 178.902344 360.929688 C 178.902344 349.035156 188.542969 339.394531 200.433594 339.394531 L 265.035156 339.394531 C 276.925781 339.394531 286.566406 349.035156 286.566406 360.929688 L 286.566406 425.527344 C 286.566406 437.421875 276.925781 447.0625 265.035156 447.0625 L 200.433594 447.0625 C 188.542969 447.0625 178.902344 437.421875 178.902344 425.527344 Z M 265.035156 360.929688 L 200.433594 360.929688 L 200.433594 425.527344 L 265.035156 425.527344 Z M 200.433594 511.660156 C 188.542969 511.660156 178.902344 521.300781 178.902344 533.191406 L 178.902344 597.792969 C 178.902344 609.683594 188.542969 619.324219 200.433594 619.324219 L 265.035156 619.324219 C 276.925781 619.324219 286.566406 609.683594 286.566406 597.792969 L 286.566406 533.191406 C 286.566406 521.300781 276.925781 511.660156 265.035156 511.660156 Z M 200.433594 533.191406 L 265.035156 533.191406 L 265.035156 597.792969 L 200.433594 597.792969 Z M 351.164062 360.929688 C 351.164062 349.035156 360.804688 339.394531 372.699219 339.394531 L 437.296875 339.394531 C 449.191406 339.394531 458.832031 349.035156 458.832031 360.929688 L 458.832031 425.527344 C 458.832031 437.421875 449.191406 447.0625 437.296875 447.0625 L 372.699219 447.0625 C 360.804688 447.0625 351.164062 437.421875 351.164062 425.527344 Z M 437.296875 360.929688 L 372.699219 360.929688 L 372.699219 425.527344 L 437.296875 425.527344 Z M 372.699219 511.660156 C 360.804688 511.660156 351.164062 521.300781 351.164062 533.191406 L 351.164062 597.792969 C 351.164062 609.683594 360.804688 619.324219 372.699219 619.324219 L 437.296875 619.324219 C 449.191406 619.324219 458.832031 609.683594 458.832031 597.792969 L 458.832031 533.191406 C 458.832031 521.300781 449.191406 511.660156 437.296875 511.660156 Z M 372.699219 533.191406 L 437.296875 533.191406 L 437.296875 597.792969 L 372.699219 597.792969 Z M 523.429688 533.191406 C 523.429688 521.300781 533.070312 511.660156 544.964844 511.660156 L 609.5625 511.660156 C 621.453125 511.660156 631.09375 521.300781 631.09375 533.191406 L 631.09375 597.792969 C 631.09375 609.683594 621.453125 619.324219 609.5625 619.324219 L 544.964844 619.324219 C 533.070312 619.324219 523.429688 609.683594 523.429688 597.792969 Z M 609.5625 533.191406 L 544.964844 533.191406 L 544.964844 597.792969 L 609.5625 597.792969 Z M 639.964844 345.496094 C 643.335938 340.59375 642.09375 333.894531 637.195312 330.523438 C 632.292969 327.15625 625.59375 328.398438 622.222656 333.296875 L 570.339844 408.761719 L 541.808594 380.230469 C 537.605469 376.027344 530.789062 376.027344 526.582031 380.230469 C 522.378906 384.4375 522.378906 391.253906 526.582031 395.457031 L 564.265625 433.140625 C 566.527344 435.402344 569.679688 436.542969 572.863281 436.25 C 576.046875 435.957031 578.9375 434.265625 580.75 431.628906 Z M 639.964844 345.496094 "/><path style=" stroke:none;fill-rule:evenodd;fill:#ffffff;fill-opacity:1;" d="M 221.96875 129.449219 C 221.96875 102.691406 243.660156 81 270.417969 81 C 297.175781 81 318.867188 102.691406 318.867188 129.449219 L 318.867188 145.597656 L 491.128906 145.597656 L 491.128906 129.449219 C 491.128906 102.691406 512.824219 81 539.578125 81 C 566.335938 81 588.027344 102.691406 588.027344 129.449219 L 588.027344 145.597656 L 663.394531 145.597656 C 693.125 145.597656 717.226562 169.699219 717.226562 199.429688 L 717.226562 651.625 C 717.226562 681.355469 693.125 705.457031 663.394531 705.457031 L 146.601562 705.457031 C 116.871094 705.457031 92.769531 681.355469 92.769531 651.625 L 92.769531 199.429688 C 92.769531 169.699219 116.871094 145.597656 146.601562 145.597656 L 221.96875 145.597656 Z M 588.027344 167.132812 L 588.027344 194.046875 C 588.027344 220.804688 566.335938 242.496094 539.578125 242.496094 C 512.824219 242.496094 491.128906 220.804688 491.128906 194.046875 L 491.128906 167.132812 L 318.867188 167.132812 L 318.867188 194.046875 C 318.867188 220.804688 297.175781 242.496094 270.417969 242.496094 C 243.660156 242.496094 221.96875 220.804688 221.96875 194.046875 L 221.96875 167.132812 L 146.601562 167.132812 C 128.765625 167.132812 114.304688 181.59375 114.304688 199.429688 L 114.304688 253.265625 L 695.695312 253.265625 L 695.695312 199.429688 C 695.695312 181.59375 681.234375 167.132812 663.394531 167.132812 Z M 270.417969 102.53125 C 255.550781 102.53125 243.5 114.582031 243.5 129.449219 L 243.5 194.046875 C 243.5 208.914062 255.550781 220.964844 270.417969 220.964844 C 285.28125 220.964844 297.332031 208.914062 297.332031 194.046875 L 297.332031 129.449219 C 297.332031 114.582031 285.28125 102.53125 270.417969 102.53125 Z M 114.304688 274.796875 L 114.304688 651.625 C 114.304688 669.464844 128.765625 683.925781 146.601562 683.925781 L 663.394531 683.925781 C 681.234375 683.925781 695.695312 669.464844 695.695312 651.625 L 695.695312 274.796875 Z M 512.664062 129.449219 C 512.664062 114.582031 524.714844 102.53125 539.578125 102.53125 C 554.445312 102.53125 566.496094 114.582031 566.496094 129.449219 L 566.496094 194.046875 C 566.496094 208.914062 554.445312 220.964844 539.578125 220.964844 C 524.714844 220.964844 512.664062 208.914062 512.664062 194.046875 Z M 178.902344 360.929688 C 178.902344 349.035156 188.542969 339.394531 200.433594 339.394531 L 265.035156 339.394531 C 276.925781 339.394531 286.566406 349.035156 286.566406 360.929688 L 286.566406 425.527344 C 286.566406 437.421875 276.925781 447.0625 265.035156 447.0625 L 200.433594 447.0625 C 188.542969 447.0625 178.902344 437.421875 178.902344 425.527344 Z M 265.035156 360.929688 L 200.433594 360.929688 L 200.433594 425.527344 L 265.035156 425.527344 Z M 200.433594 511.660156 C 188.542969 511.660156 178.902344 521.300781 178.902344 533.191406 L 178.902344 597.792969 C 178.902344 609.683594 188.542969 619.324219 200.433594 619.324219 L 265.035156 619.324219 C 276.925781 619.324219 286.566406 609.683594 286.566406 597.792969 L 286.566406 533.191406 C 286.566406 521.300781 276.925781 511.660156 265.035156 511.660156 Z M 200.433594 533.191406 L 265.035156 533.191406 L 265.035156 597.792969 L 200.433594 597.792969 Z M 351.164062 360.929688 C 351.164062 349.035156 360.804688 339.394531 372.699219 339.394531 L 437.296875 339.394531 C 449.191406 339.394531 458.832031 349.035156 458.832031 360.929688 L 458.832031 425.527344 C 458.832031 437.421875 449.191406 447.0625 437.296875 447.0625 L 372.699219 447.0625 C 360.804688 447.0625 351.164062 437.421875 351.164062 425.527344 Z M 437.296875 360.929688 L 372.699219 360.929688 L 372.699219 425.527344 L 437.296875 425.527344 Z M 372.699219 511.660156 C 360.804688 511.660156 351.164062 521.300781 351.164062 533.191406 L 351.164062 597.792969 C 351.164062 609.683594 360.804688 619.324219 372.699219 619.324219 L 437.296875 619.324219 C 449.191406 619.324219 458.832031 609.683594 458.832031 597.792969 L 458.832031 533.191406 C 458.832031 521.300781 449.191406 511.660156 437.296875 511.660156 Z M 372.699219 533.191406 L 437.296875 533.191406 L 437.296875 597.792969 L 372.699219 597.792969 Z M 523.429688 533.191406 C 523.429688 521.300781 533.070312 511.660156 544.964844 511.660156 L 609.5625 511.660156 C 621.453125 511.660156 631.09375 521.300781 631.09375 533.191406 L 631.09375 597.792969 C 631.09375 609.683594 621.453125 619.324219 609.5625 619.324219 L 544.964844 619.324219 C 533.070312 619.324219 523.429688 609.683594 523.429688 597.792969 Z M 609.5625 533.191406 L 544.964844 533.191406 L 544.964844 597.792969 L 609.5625 597.792969 Z M 639.964844 345.496094 C 643.335938 340.59375 642.09375 333.894531 637.195312 330.523438 C 632.292969 327.15625 625.59375 328.398438 622.222656 333.296875 L 570.339844 408.761719 L 541.808594 380.230469 C 537.605469 376.027344 530.789062 376.027344 526.582031 380.230469 C 522.378906 384.4375 522.378906 391.253906 526.582031 395.457031 L 564.265625 433.140625 C 566.527344 435.402344 569.679688 436.542969 572.863281 436.25 C 576.046875 435.957031 578.9375 434.265625 580.75 431.628906 Z M 639.964844 345.496094 "/></g></g></svg>