<svg xmlns="http://www.w3.org/2000/svg" xmlns:xlink="http://www.w3.org/1999/xlink" width="1080" zoomAndPan="magnify" viewBox="0 0 810 809.999993" height="1080" preserveAspectRatio="xMidYMid meet" version="1.2"><defs><clipPath id="ac2f9a67f3"><path d="M 56.234375 193.996094 L 753.726562 193.996094 L 753.726562 615.960938 L 56.234375 615.960938 Z M 56.234375 193.996094 "/></clipPath><clipPath id="da19207f6d"><path d="M 56.234375 193.996094 L 753.726562 193.996094 L 753.726562 615.960938 L 56.234375 615.960938 Z M 56.234375 193.996094 "/></clipPath></defs><g id="fb0ef89d4d"><rect x="0" width="810" y="0" height="809.999993" style="fill:#ffffff;fill-opacity:1;stroke:none;"/><rect x="0" width="810" y="0" height="809.999993" style="fill:#000000;fill-opacity:1;stroke:none;"/><g clip-rule="nonzero" clip-path="url(#ac2f9a67f3)"><path style=" stroke:none;fill-rule:nonzero;fill:#ffffff;fill-opacity:1;" d="M 96.144531 210.464844 C 83.242188 210.464844 72.710938 220.996094 72.710938 233.898438 L 72.710938 576.050781 C 72.710938 588.953125 83.242188 599.484375 96.144531 599.484375 L 713.820312 599.484375 C 726.722656 599.484375 737.25 588.953125 737.25 576.050781 L 737.25 233.898438 C 737.25 220.996094 726.722656 210.464844 713.820312 210.464844 Z M 713.820312 615.960938 L 96.144531 615.960938 C 74.132812 615.960938 56.234375 598.070312 56.234375 576.050781 L 56.234375 233.898438 C 56.234375 211.886719 74.132812 193.988281 96.144531 193.988281 L 713.820312 193.988281 C 735.835938 193.988281 753.726562 211.886719 753.726562 233.898438 L 753.726562 576.050781 C 753.726562 598.015625 735.835938 615.960938 713.820312 615.960938 "/></g><path style=" stroke:none;fill-rule:nonzero;fill:#ffffff;fill-opacity:1;" d="M 295.234375 547.769531 C 291.566406 547.769531 288.226562 545.296875 287.265625 541.636719 C 279.804688 513.121094 256.148438 491.753906 227.085938 487.128906 C 219.390625 485.894531 211.296875 485.894531 203.601562 487.128906 C 174.496094 491.753906 150.882812 513.121094 143.421875 541.636719 C 142.28125 546.03125 137.746094 548.683594 133.355469 547.496094 C 128.960938 546.347656 126.300781 541.820312 127.496094 537.429688 C 136.648438 502.59375 165.53125 476.460938 201.039062 470.832031 C 210.425781 469.328125 220.3125 469.328125 229.695312 470.832031 C 265.257812 476.460938 294.089844 502.59375 303.238281 537.429688 C 304.386719 541.820312 301.777344 546.347656 297.378906 547.496094 C 296.601562 547.675781 295.921875 547.769531 295.234375 547.769531 "/><path style=" stroke:none;fill-rule:nonzero;fill:#ffffff;fill-opacity:1;" d="M 143.648438 548.457031 L 286.996094 548.457031 L 286.996094 361.863281 L 143.648438 361.863281 Z M 295.234375 564.933594 L 135.410156 564.933594 C 130.882812 564.933594 127.171875 561.222656 127.171875 556.695312 L 127.171875 353.621094 C 127.171875 349.09375 130.882812 345.382812 135.410156 345.382812 L 295.234375 345.382812 C 299.761719 345.382812 303.472656 349.09375 303.472656 353.621094 L 303.472656 556.695312 C 303.472656 561.269531 299.761719 564.933594 295.234375 564.933594 "/><path style=" stroke:none;fill-rule:nonzero;fill:#ffffff;fill-opacity:1;" d="M 674.550781 384.152344 L 359.667969 384.152344 C 355.140625 384.152344 351.4375 380.445312 351.4375 375.914062 C 351.4375 371.382812 355.140625 367.675781 359.667969 367.675781 L 674.550781 367.675781 C 679.082031 367.675781 682.785156 371.382812 682.785156 375.914062 C 682.785156 380.445312 679.125 384.152344 674.550781 384.152344 "/><path style=" stroke:none;fill-rule:nonzero;fill:#ffffff;fill-opacity:1;" d="M 550.933594 437.015625 L 359.667969 437.015625 C 355.140625 437.015625 351.4375 433.304688 351.4375 428.777344 C 351.4375 424.242188 355.140625 420.539062 359.667969 420.539062 L 550.890625 420.539062 C 555.417969 420.539062 559.128906 424.242188 559.128906 428.777344 C 559.128906 433.304688 555.460938 437.015625 550.933594 437.015625 "/><path style=" stroke:none;fill-rule:nonzero;fill:#ffffff;fill-opacity:1;" d="M 641.824219 489.824219 L 359.667969 489.824219 C 355.140625 489.824219 351.4375 486.121094 351.4375 481.585938 C 351.4375 477.058594 355.140625 473.347656 359.667969 473.347656 L 641.824219 473.347656 C 646.359375 473.347656 650.0625 477.058594 650.0625 481.585938 C 650.0625 486.121094 646.40625 489.824219 641.824219 489.824219 "/><path style=" stroke:none;fill-rule:nonzero;fill:#ffffff;fill-opacity:1;" d="M 531.660156 542.6875 L 359.667969 542.6875 C 355.140625 542.6875 351.4375 538.984375 351.4375 534.449219 C 351.4375 529.921875 355.140625 526.210938 359.667969 526.210938 L 531.621094 526.210938 C 536.148438 526.210938 539.859375 529.921875 539.859375 534.449219 C 539.859375 538.984375 536.195312 542.6875 531.660156 542.6875 "/><path style=" stroke:none;fill-rule:nonzero;fill:#ffffff;fill-opacity:1;" d="M 143.648438 307.125 L 666.3125 307.125 L 666.3125 261.492188 L 143.648438 261.492188 Z M 674.550781 323.601562 L 135.410156 323.601562 C 130.882812 323.601562 127.171875 319.894531 127.171875 315.363281 L 127.171875 253.253906 C 127.171875 248.726562 130.882812 245.015625 135.410156 245.015625 L 674.550781 245.015625 C 679.082031 245.015625 682.785156 248.726562 682.785156 253.253906 L 682.785156 315.363281 C 682.785156 319.894531 679.125 323.601562 674.550781 323.601562 "/><path style=" stroke:none;fill-rule:nonzero;fill:#ffffff;fill-opacity:1;" d="M 215.324219 399.804688 C 196.050781 399.804688 180.351562 415.503906 180.351562 434.769531 C 180.351562 454.035156 196.050781 469.734375 215.324219 469.734375 C 234.589844 469.734375 250.289062 454.035156 250.289062 434.769531 C 250.289062 415.503906 234.589844 399.804688 215.324219 399.804688 Z M 215.324219 486.210938 C 186.945312 486.210938 163.882812 463.144531 163.882812 434.769531 C 163.882812 406.394531 186.945312 383.328125 215.324219 383.328125 C 243.699219 383.328125 266.761719 406.394531 266.761719 434.769531 C 266.761719 463.097656 243.699219 486.210938 215.324219 486.210938 "/><g clip-rule="nonzero" clip-path="url(#da19207f6d)"><path style=" stroke:none;fill-rule:nonzero;fill:#ffffff;fill-opacity:1;" d="M 96.144531 210.464844 C 83.242188 210.464844 72.710938 220.996094 72.710938 233.898438 L 72.710938 576.050781 C 72.710938 588.953125 83.242188 599.484375 96.144531 599.484375 L 713.820312 599.484375 C 726.722656 599.484375 737.25 588.953125 737.25 576.050781 L 737.25 233.898438 C 737.25 220.996094 726.722656 210.464844 713.820312 210.464844 Z M 713.820312 615.960938 L 96.144531 615.960938 C 74.132812 615.960938 56.234375 598.070312 56.234375 576.050781 L 56.234375 233.898438 C 56.234375 211.886719 74.132812 193.988281 96.144531 193.988281 L 713.820312 193.988281 C 735.835938 193.988281 753.726562 211.886719 753.726562 233.898438 L 753.726562 576.050781 C 753.726562 598.015625 735.835938 615.960938 713.820312 615.960938 "/></g><path style=" stroke:none;fill-rule:nonzero;fill:#ffffff;fill-opacity:1;" d="M 295.234375 547.769531 C 291.566406 547.769531 288.226562 545.296875 287.265625 541.636719 C 279.804688 513.121094 256.148438 491.753906 227.085938 487.128906 C 219.390625 485.894531 211.296875 485.894531 203.601562 487.128906 C 174.496094 491.753906 150.882812 513.121094 143.421875 541.636719 C 142.28125 546.03125 137.746094 548.683594 133.355469 547.496094 C 128.960938 546.347656 126.300781 541.820312 127.496094 537.429688 C 136.648438 502.59375 165.53125 476.460938 201.039062 470.832031 C 210.425781 469.328125 220.3125 469.328125 229.695312 470.832031 C 265.257812 476.460938 294.089844 502.59375 303.238281 537.429688 C 304.386719 541.820312 301.777344 546.347656 297.378906 547.496094 C 296.601562 547.675781 295.921875 547.769531 295.234375 547.769531 "/><path style=" stroke:none;fill-rule:nonzero;fill:#ffffff;fill-opacity:1;" d="M 143.648438 548.457031 L 286.996094 548.457031 L 286.996094 361.863281 L 143.648438 361.863281 Z M 295.234375 564.933594 L 135.410156 564.933594 C 130.882812 564.933594 127.171875 561.222656 127.171875 556.695312 L 127.171875 353.621094 C 127.171875 349.09375 130.882812 345.382812 135.410156 345.382812 L 295.234375 345.382812 C 299.761719 345.382812 303.472656 349.09375 303.472656 353.621094 L 303.472656 556.695312 C 303.472656 561.269531 299.761719 564.933594 295.234375 564.933594 "/><path style=" stroke:none;fill-rule:nonzero;fill:#ffffff;fill-opacity:1;" d="M 674.550781 384.152344 L 359.667969 384.152344 C 355.140625 384.152344 351.4375 380.445312 351.4375 375.914062 C 351.4375 371.382812 355.140625 367.675781 359.667969 367.675781 L 674.550781 367.675781 C 679.082031 367.675781 682.785156 371.382812 682.785156 375.914062 C 682.785156 380.445312 679.125 384.152344 674.550781 384.152344 "/><path style=" stroke:none;fill-rule:nonzero;fill:#ffffff;fill-opacity:1;" d="M 550.933594 437.015625 L 359.667969 437.015625 C 355.140625 437.015625 351.4375 433.304688 351.4375 428.777344 C 351.4375 424.242188 355.140625 420.539062 359.667969 420.539062 L 550.890625 420.539062 C 555.417969 420.539062 559.128906 424.242188 559.128906 428.777344 C 559.128906 433.304688 555.460938 437.015625 550.933594 437.015625 "/><path style=" stroke:none;fill-rule:nonzero;fill:#ffffff;fill-opacity:1;" d="M 641.824219 489.824219 L 359.667969 489.824219 C 355.140625 489.824219 351.4375 486.121094 351.4375 481.585938 C 351.4375 477.058594 355.140625 473.347656 359.667969 473.347656 L 641.824219 473.347656 C 646.359375 473.347656 650.0625 477.058594 650.0625 481.585938 C 650.0625 486.121094 646.40625 489.824219 641.824219 489.824219 "/><path style=" stroke:none;fill-rule:nonzero;fill:#ffffff;fill-opacity:1;" d="M 531.660156 542.6875 L 359.667969 542.6875 C 355.140625 542.6875 351.4375 538.984375 351.4375 534.449219 C 351.4375 529.921875 355.140625 526.210938 359.667969 526.210938 L 531.621094 526.210938 C 536.148438 526.210938 539.859375 529.921875 539.859375 534.449219 C 539.859375 538.984375 536.195312 542.6875 531.660156 542.6875 "/><path style=" stroke:none;fill-rule:nonzero;fill:#ffffff;fill-opacity:1;" d="M 143.648438 307.125 L 666.3125 307.125 L 666.3125 261.492188 L 143.648438 261.492188 Z M 674.550781 323.601562 L 135.410156 323.601562 C 130.882812 323.601562 127.171875 319.894531 127.171875 315.363281 L 127.171875 253.253906 C 127.171875 248.726562 130.882812 245.015625 135.410156 245.015625 L 674.550781 245.015625 C 679.082031 245.015625 682.785156 248.726562 682.785156 253.253906 L 682.785156 315.363281 C 682.785156 319.894531 679.125 323.601562 674.550781 323.601562 "/><path style=" stroke:none;fill-rule:nonzero;fill:#ffffff;fill-opacity:1;" d="M 215.324219 399.804688 C 196.050781 399.804688 180.351562 415.503906 180.351562 434.769531 C 180.351562 454.035156 196.050781 469.734375 215.324219 469.734375 C 234.589844 469.734375 250.289062 454.035156 250.289062 434.769531 C 250.289062 415.503906 234.589844 399.804688 215.324219 399.804688 Z M 215.324219 486.210938 C 186.945312 486.210938 163.882812 463.144531 163.882812 434.769531 C 163.882812 406.394531 186.945312 383.328125 215.324219 383.328125 C 243.699219 383.328125 266.761719 406.394531 266.761719 434.769531 C 266.761719 463.097656 243.699219 486.210938 215.324219 486.210938 "/></g></svg>