<svg xmlns="http://www.w3.org/2000/svg" xmlns:xlink="http://www.w3.org/1999/xlink" width="1080" zoomAndPan="magnify" viewBox="0 0 810 809.999993" height="1080" preserveAspectRatio="xMidYMid meet" version="1.2"><defs><clipPath id="5f29a4538a"><path d="M 81 155.914062 L 729 155.914062 L 729 653.914062 L 81 653.914062 Z M 81 155.914062 "/></clipPath></defs><g id="3af44531ff"><rect x="0" width="810" y="0" height="809.999993" style="fill:#ffffff;fill-opacity:1;stroke:none;"/><rect x="0" width="810" y="0" height="809.999993" style="fill:#000000;fill-opacity:1;stroke:none;"/><g clip-rule="nonzero" clip-path="url(#5f29a4538a)"><path style=" stroke:none;fill-rule:nonzero;fill:#ffffff;fill-opacity:1;" d="M 131.003906 155.914062 C 103.789062 155.914062 81.203125 178.496094 81.203125 205.710938 L 81.203125 604.113281 C 81.203125 631.328125 103.789062 653.914062 131.003906 653.914062 L 678.804688 653.914062 C 706.023438 653.914062 728.605469 631.328125 728.605469 604.113281 L 728.605469 205.710938 C 728.605469 178.496094 706.023438 155.914062 678.804688 155.914062 Z M 198.214844 205.710938 L 611.59375 205.710938 L 404.90625 358.46875 Z M 155.90625 267.332031 L 404.90625 451.355469 L 653.90625 267.332031 L 653.90625 604.113281 L 155.90625 604.113281 Z M 155.90625 267.332031 "/><path style=" stroke:none;fill-rule:nonzero;fill:#ffffff;fill-opacity:1;" d="M 131.003906 155.914062 C 103.789062 155.914062 81.203125 178.496094 81.203125 205.710938 L 81.203125 604.113281 C 81.203125 631.328125 103.789062 653.914062 131.003906 653.914062 L 678.804688 653.914062 C 706.023438 653.914062 728.605469 631.328125 728.605469 604.113281 L 728.605469 205.710938 C 728.605469 178.496094 706.023438 155.914062 678.804688 155.914062 Z M 198.214844 205.710938 L 611.59375 205.710938 L 404.90625 358.46875 Z M 155.90625 267.332031 L 404.90625 451.355469 L 653.90625 267.332031 L 653.90625 604.113281 L 155.90625 604.113281 Z M 155.90625 267.332031 "/></g></g></svg>