<svg xmlns="http://www.w3.org/2000/svg" xmlns:xlink="http://www.w3.org/1999/xlink" width="1080" zoomAndPan="magnify" viewBox="0 0 810 809.999993" height="1080" preserveAspectRatio="xMidYMid meet" version="1.2"><defs><clipPath id="4e214343e9"><path d="M 215 596 L 594 596 L 594 770.660156 L 215 770.660156 Z M 215 596 "/></clipPath><clipPath id="652331d04d"><path d="M 172 39.410156 L 637 39.410156 L 637 670 L 172 670 Z M 172 39.410156 "/></clipPath><clipPath id="4bf969e472"><path d="M 215 596 L 594 596 L 594 770.660156 L 215 770.660156 Z M 215 596 "/></clipPath><clipPath id="4b6734726b"><path d="M 172 39.410156 L 637 39.410156 L 637 670 L 172 670 Z M 172 39.410156 "/></clipPath></defs><g id="ff3fe517f3"><rect x="0" width="810" y="0" height="809.999993" style="fill:#ffffff;fill-opacity:1;stroke:none;"/><rect x="0" width="810" y="0" height="809.999993" style="fill:#000000;fill-opacity:1;stroke:none;"/><g clip-rule="nonzero" clip-path="url(#4e214343e9)"><path style=" stroke:none;fill-rule:nonzero;fill:#ffffff;fill-opacity:1;" d="M 289.15625 637.667969 C 291.699219 636.371094 294.339844 635.125 297.027344 633.949219 C 306.761719 629.683594 311.195312 618.332031 306.941406 608.601562 C 302.675781 598.867188 291.308594 594.457031 281.59375 598.695312 C 278.210938 600.175781 274.9375 601.726562 271.671875 603.386719 C 235.558594 621.890625 215.65625 646.589844 215.65625 672.9375 C 215.65625 699.421875 235.558594 724.152344 271.703125 742.578125 C 307.175781 760.636719 354.367188 770.589844 404.59375 770.589844 C 454.832031 770.589844 502.019531 760.636719 537.472656 742.578125 C 573.609375 724.144531 593.511719 699.414062 593.511719 672.9375 C 593.511719 646.597656 573.617188 621.898438 537.472656 603.367188 C 533.757812 601.476562 529.902344 599.671875 525.945312 597.964844 C 516.171875 593.773438 504.863281 598.265625 500.660156 608.015625 C 496.460938 617.78125 500.960938 629.105469 510.71875 633.296875 C 513.914062 634.679688 517 636.125 519.949219 637.621094 C 545.847656 650.894531 555.035156 664.933594 555.035156 672.929688 C 555.035156 680.996094 545.855469 695.097656 519.996094 708.285156 C 489.855469 723.65625 448.871094 732.105469 404.59375 732.105469 C 360.324219 732.105469 319.335938 723.65625 289.1875 708.285156 C 263.3125 695.105469 254.148438 681.003906 254.148438 672.929688 C 254.140625 664.941406 263.320312 650.902344 289.15625 637.667969 Z M 289.15625 637.667969 "/></g><g clip-rule="nonzero" clip-path="url(#652331d04d)"><path style=" stroke:none;fill-rule:nonzero;fill:#ffffff;fill-opacity:1;" d="M 407.136719 39.476562 C 406.617188 39.433594 406.097656 39.410156 405.566406 39.410156 L 403.625 39.410156 C 403.097656 39.410156 402.578125 39.433594 402.074219 39.476562 C 275.289062 41.34375 172.394531 145.640625 172.394531 272.28125 C 170.394531 398.28125 266.804688 513.585938 337.203125 597.769531 C 357.847656 622.460938 375.679688 643.792969 387.742188 661.457031 C 391.316406 666.703125 397.273438 669.847656 403.632812 669.847656 L 405.574219 669.847656 C 411.9375 669.847656 417.890625 666.703125 421.476562 661.457031 C 433.523438 643.785156 451.363281 622.460938 472.007812 597.761719 C 542.394531 513.578125 638.796875 398.265625 636.808594 272.589844 C 636.800781 145.648438 533.898438 41.359375 407.136719 39.476562 Z M 442.476562 573.082031 C 428.339844 589.996094 415.480469 605.375 404.59375 619.421875 C 393.707031 605.375 380.855469 589.996094 366.71875 573.089844 C 300.195312 493.527344 209.101562 384.566406 210.871094 272.589844 C 210.871094 166.210938 297.410156 78.894531 403.796875 77.933594 C 404.066406 77.933594 404.324219 77.925781 404.59375 77.910156 C 404.859375 77.925781 405.121094 77.933594 405.398438 77.933594 C 511.765625 78.894531 598.316406 166.210938 598.316406 272.890625 C 600.085938 384.566406 508.996094 493.519531 442.476562 573.082031 Z M 442.476562 573.082031 "/></g><path style=" stroke:none;fill-rule:nonzero;fill:#ffffff;fill-opacity:1;" d="M 404.59375 187.578125 C 357.570312 188.089844 319.554688 225.949219 319.554688 272.625 C 319.554688 319.296875 357.527344 357.148438 404.59375 357.660156 C 451.664062 357.148438 489.628906 319.296875 489.628906 272.625 C 489.628906 225.949219 451.617188 188.089844 404.59375 187.578125 Z M 404.59375 187.578125 "/><g clip-rule="nonzero" clip-path="url(#4bf969e472)"><path style=" stroke:none;fill-rule:nonzero;fill:#ffffff;fill-opacity:1;" d="M 289.15625 637.667969 C 291.699219 636.371094 294.339844 635.125 297.027344 633.949219 C 306.761719 629.683594 311.195312 618.332031 306.941406 608.601562 C 302.675781 598.867188 291.308594 594.457031 281.59375 598.695312 C 278.210938 600.175781 274.9375 601.726562 271.671875 603.386719 C 235.558594 621.890625 215.65625 646.589844 215.65625 672.9375 C 215.65625 699.421875 235.558594 724.152344 271.703125 742.578125 C 307.175781 760.636719 354.367188 770.589844 404.59375 770.589844 C 454.832031 770.589844 502.019531 760.636719 537.472656 742.578125 C 573.609375 724.144531 593.511719 699.414062 593.511719 672.9375 C 593.511719 646.597656 573.617188 621.898438 537.472656 603.367188 C 533.757812 601.476562 529.902344 599.671875 525.945312 597.964844 C 516.171875 593.773438 504.863281 598.265625 500.660156 608.015625 C 496.460938 617.78125 500.960938 629.105469 510.71875 633.296875 C 513.914062 634.679688 517 636.125 519.949219 637.621094 C 545.847656 650.894531 555.035156 664.933594 555.035156 672.929688 C 555.035156 680.996094 545.855469 695.097656 519.996094 708.285156 C 489.855469 723.65625 448.871094 732.105469 404.59375 732.105469 C 360.324219 732.105469 319.335938 723.65625 289.1875 708.285156 C 263.3125 695.105469 254.148438 681.003906 254.148438 672.929688 C 254.140625 664.941406 263.320312 650.902344 289.15625 637.667969 Z M 289.15625 637.667969 "/></g><g clip-rule="nonzero" clip-path="url(#4b6734726b)"><path style=" stroke:none;fill-rule:nonzero;fill:#ffffff;fill-opacity:1;" d="M 407.136719 39.476562 C 406.617188 39.433594 406.097656 39.410156 405.566406 39.410156 L 403.625 39.410156 C 403.097656 39.410156 402.578125 39.433594 402.074219 39.476562 C 275.289062 41.34375 172.394531 145.640625 172.394531 272.28125 C 170.394531 398.28125 266.804688 513.585938 337.203125 597.769531 C 357.847656 622.460938 375.679688 643.792969 387.742188 661.457031 C 391.316406 666.703125 397.273438 669.847656 403.632812 669.847656 L 405.574219 669.847656 C 411.9375 669.847656 417.890625 666.703125 421.476562 661.457031 C 433.523438 643.785156 451.363281 622.460938 472.007812 597.761719 C 542.394531 513.578125 638.796875 398.265625 636.808594 272.589844 C 636.800781 145.648438 533.898438 41.359375 407.136719 39.476562 Z M 442.476562 573.082031 C 428.339844 589.996094 415.480469 605.375 404.59375 619.421875 C 393.707031 605.375 380.855469 589.996094 366.71875 573.089844 C 300.195312 493.527344 209.101562 384.566406 210.871094 272.589844 C 210.871094 166.210938 297.410156 78.894531 403.796875 77.933594 C 404.066406 77.933594 404.324219 77.925781 404.59375 77.910156 C 404.859375 77.925781 405.121094 77.933594 405.398438 77.933594 C 511.765625 78.894531 598.316406 166.210938 598.316406 272.890625 C 600.085938 384.566406 508.996094 493.519531 442.476562 573.082031 Z M 442.476562 573.082031 "/></g><path style=" stroke:none;fill-rule:nonzero;fill:#ffffff;fill-opacity:1;" d="M 404.59375 187.578125 C 357.570312 188.089844 319.554688 225.949219 319.554688 272.625 C 319.554688 319.296875 357.527344 357.148438 404.59375 357.660156 C 451.664062 357.148438 489.628906 319.296875 489.628906 272.625 C 489.628906 225.949219 451.617188 188.089844 404.59375 187.578125 Z M 404.59375 187.578125 "/></g></svg>