<svg xmlns="http://www.w3.org/2000/svg" xmlns:xlink="http://www.w3.org/1999/xlink" width="1080" zoomAndPan="magnify" viewBox="0 0 810 809.999993" height="1080" preserveAspectRatio="xMidYMid meet" version="1.2"><defs><clipPath id="49e79a9c83"><path d="M 60 103.621094 L 749 103.621094 L 749 706.621094 L 60 706.621094 Z M 60 103.621094 "/></clipPath><clipPath id="9539d378f7"><path d="M 60 103.621094 L 749 103.621094 L 749 706.621094 L 60 706.621094 Z M 60 103.621094 "/></clipPath></defs><g id="511280bccc"><rect x="0" width="810" y="0" height="809.999993" style="fill:#ffffff;fill-opacity:1;stroke:none;"/><rect x="0" width="810" y="0" height="809.999993" style="fill:#000000;fill-opacity:1;stroke:none;"/><g clip-rule="nonzero" clip-path="url(#49e79a9c83)"><path style=" stroke:none;fill-rule:nonzero;fill:#ffffff;fill-opacity:1;" d="M 143.878906 706.292969 C 130.839844 706.292969 118.175781 704.199219 106.242188 700.066406 L 79.050781 690.660156 L 99.945312 670.875 C 127.597656 644.691406 134.578125 614.484375 135.03125 591.863281 C 87.226562 538.878906 60.988281 472.777344 60.988281 404.960938 C 60.988281 238.804688 215.109375 103.621094 404.542969 103.621094 C 593.980469 103.621094 748.109375 238.804688 748.109375 404.960938 C 748.109375 571.109375 593.980469 706.285156 404.542969 706.285156 C 348.136719 706.285156 292.507812 694.066406 242.921875 670.851562 C 224.230469 684.074219 186.46875 706.292969 143.878906 706.292969 Z M 238.832031 629.824219 L 248.859375 634.898438 C 296 658.734375 349.839844 671.347656 404.542969 671.347656 C 574.71875 671.347656 713.171875 551.84375 713.171875 404.960938 C 713.171875 258.066406 574.71875 138.558594 404.542969 138.558594 C 234.371094 138.558594 95.925781 258.066406 95.925781 404.960938 C 95.925781 466.015625 120.507812 525.691406 165.148438 572.996094 L 169.691406 577.820312 L 169.898438 584.429688 C 170.667969 608.179688 166.40625 640.382812 145.285156 671.347656 C 185.726562 670.703125 222.9375 642.542969 230.046875 636.847656 Z M 238.832031 629.824219 "/></g><path style=" stroke:none;fill-rule:nonzero;fill:#ffffff;fill-opacity:1;" d="M 591.132812 404.960938 C 591.132812 406.164062 591.074219 407.367188 590.953125 408.5625 C 590.835938 409.761719 590.660156 410.949219 590.425781 412.128906 C 590.191406 413.308594 589.898438 414.476562 589.550781 415.625 C 589.199219 416.777344 588.796875 417.910156 588.335938 419.019531 C 587.875 420.132812 587.359375 421.21875 586.792969 422.28125 C 586.226562 423.339844 585.609375 424.371094 584.941406 425.371094 C 584.269531 426.371094 583.554688 427.339844 582.792969 428.269531 C 582.027344 429.199219 581.222656 430.089844 580.371094 430.9375 C 579.519531 431.789062 578.628906 432.597656 577.699219 433.359375 C 576.769531 434.125 575.804688 434.839844 574.804688 435.507812 C 573.804688 436.175781 572.773438 436.792969 571.710938 437.363281 C 570.652344 437.929688 569.5625 438.441406 568.453125 438.902344 C 567.339844 439.363281 566.210938 439.769531 565.058594 440.117188 C 563.90625 440.46875 562.742188 440.757812 561.5625 440.992188 C 560.382812 441.226562 559.191406 441.40625 557.996094 441.523438 C 556.796875 441.640625 555.597656 441.699219 554.394531 441.699219 C 553.191406 441.699219 551.992188 441.640625 550.792969 441.523438 C 549.59375 441.40625 548.40625 441.226562 547.226562 440.992188 C 546.046875 440.757812 544.882812 440.46875 543.730469 440.117188 C 542.578125 439.769531 541.445312 439.363281 540.335938 438.902344 C 539.222656 438.441406 538.136719 437.929688 537.074219 437.363281 C 536.015625 436.792969 534.984375 436.175781 533.984375 435.507812 C 532.984375 434.839844 532.019531 434.125 531.089844 433.359375 C 530.15625 432.597656 529.265625 431.789062 528.417969 430.9375 C 527.566406 430.089844 526.757812 429.199219 525.996094 428.269531 C 525.230469 427.339844 524.515625 426.371094 523.847656 425.371094 C 523.179688 424.371094 522.5625 423.339844 521.996094 422.28125 C 521.425781 421.21875 520.914062 420.132812 520.453125 419.019531 C 519.992188 417.910156 519.585938 416.777344 519.238281 415.625 C 518.890625 414.476562 518.597656 413.308594 518.363281 412.128906 C 518.128906 410.949219 517.953125 409.761719 517.832031 408.5625 C 517.714844 407.367188 517.65625 406.164062 517.65625 404.960938 C 517.65625 403.757812 517.714844 402.558594 517.832031 401.359375 C 517.953125 400.164062 518.128906 398.976562 518.363281 397.796875 C 518.597656 396.613281 518.890625 395.449219 519.238281 394.296875 C 519.585938 393.144531 519.992188 392.015625 520.453125 390.902344 C 520.914062 389.792969 521.425781 388.707031 521.996094 387.644531 C 522.5625 386.582031 523.179688 385.550781 523.847656 384.550781 C 524.515625 383.550781 525.230469 382.585938 525.996094 381.65625 C 526.757812 380.726562 527.566406 379.835938 528.417969 378.984375 C 529.265625 378.132812 530.15625 377.328125 531.089844 376.5625 C 532.019531 375.800781 532.984375 375.085938 533.984375 374.417969 C 534.984375 373.746094 536.015625 373.128906 537.074219 372.5625 C 538.136719 371.996094 539.222656 371.480469 540.335938 371.019531 C 541.445312 370.5625 542.578125 370.15625 543.730469 369.808594 C 544.882812 369.457031 546.046875 369.164062 547.226562 368.929688 C 548.40625 368.695312 549.59375 368.519531 550.792969 368.402344 C 551.992188 368.285156 553.191406 368.226562 554.394531 368.226562 C 555.597656 368.226562 556.796875 368.285156 557.996094 368.402344 C 559.191406 368.519531 560.382812 368.695312 561.5625 368.929688 C 562.742188 369.164062 563.90625 369.457031 565.058594 369.808594 C 566.210938 370.15625 567.339844 370.5625 568.453125 371.019531 C 569.5625 371.480469 570.652344 371.996094 571.710938 372.5625 C 572.773438 373.128906 573.804688 373.746094 574.804688 374.417969 C 575.804688 375.085938 576.769531 375.800781 577.699219 376.5625 C 578.628906 377.328125 579.519531 378.132812 580.371094 378.984375 C 581.222656 379.835938 582.027344 380.726562 582.792969 381.65625 C 583.554688 382.585938 584.269531 383.550781 584.941406 384.550781 C 585.609375 385.550781 586.226562 386.582031 586.792969 387.644531 C 587.359375 388.707031 587.875 389.792969 588.335938 390.902344 C 588.796875 392.015625 589.199219 393.144531 589.550781 394.296875 C 589.898438 395.449219 590.191406 396.613281 590.425781 397.796875 C 590.660156 398.976562 590.835938 400.164062 590.953125 401.359375 C 591.074219 402.558594 591.132812 403.757812 591.132812 404.960938 Z M 591.132812 404.960938 "/><path style=" stroke:none;fill-rule:nonzero;fill:#ffffff;fill-opacity:1;" d="M 441.300781 404.960938 C 441.300781 406.164062 441.242188 407.367188 441.121094 408.5625 C 441.003906 409.761719 440.828125 410.949219 440.59375 412.128906 C 440.359375 413.308594 440.066406 414.476562 439.71875 415.625 C 439.367188 416.777344 438.964844 417.910156 438.503906 419.019531 C 438.042969 420.132812 437.527344 421.21875 436.960938 422.28125 C 436.394531 423.339844 435.777344 424.371094 435.109375 425.371094 C 434.4375 426.371094 433.722656 427.339844 432.960938 428.269531 C 432.195312 429.199219 431.390625 430.089844 430.539062 430.9375 C 429.6875 431.789062 428.796875 432.597656 427.867188 433.359375 C 426.9375 434.125 425.972656 434.839844 424.972656 435.507812 C 423.972656 436.175781 422.941406 436.792969 421.878906 437.363281 C 420.820312 437.929688 419.730469 438.441406 418.621094 438.902344 C 417.507812 439.363281 416.378906 439.769531 415.226562 440.117188 C 414.074219 440.46875 412.910156 440.757812 411.730469 440.992188 C 410.550781 441.226562 409.359375 441.40625 408.164062 441.523438 C 406.964844 441.640625 405.765625 441.699219 404.5625 441.699219 C 403.359375 441.699219 402.160156 441.640625 400.960938 441.523438 C 399.761719 441.40625 398.574219 441.226562 397.394531 440.992188 C 396.214844 440.757812 395.050781 440.46875 393.898438 440.117188 C 392.746094 439.769531 391.613281 439.363281 390.503906 438.902344 C 389.390625 438.441406 388.304688 437.929688 387.242188 437.363281 C 386.183594 436.792969 385.152344 436.175781 384.152344 435.507812 C 383.152344 434.839844 382.1875 434.125 381.257812 433.359375 C 380.324219 432.597656 379.433594 431.789062 378.585938 430.9375 C 377.734375 430.089844 376.925781 429.199219 376.164062 428.269531 C 375.398438 427.339844 374.683594 426.371094 374.015625 425.371094 C 373.347656 424.371094 372.730469 423.339844 372.164062 422.28125 C 371.59375 421.21875 371.082031 420.132812 370.621094 419.019531 C 370.160156 417.910156 369.753906 416.777344 369.40625 415.625 C 369.058594 414.476562 368.765625 413.308594 368.53125 412.128906 C 368.296875 410.949219 368.121094 409.761719 368 408.5625 C 367.882812 407.367188 367.824219 406.164062 367.824219 404.960938 C 367.824219 403.757812 367.882812 402.558594 368 401.359375 C 368.121094 400.164062 368.296875 398.976562 368.53125 397.796875 C 368.765625 396.613281 369.058594 395.449219 369.40625 394.296875 C 369.753906 393.144531 370.160156 392.015625 370.621094 390.902344 C 371.082031 389.792969 371.59375 388.707031 372.164062 387.644531 C 372.730469 386.582031 373.347656 385.550781 374.015625 384.550781 C 374.683594 383.550781 375.398438 382.585938 376.164062 381.65625 C 376.925781 380.726562 377.734375 379.835938 378.585938 378.984375 C 379.433594 378.132812 380.324219 377.328125 381.257812 376.5625 C 382.1875 375.800781 383.152344 375.085938 384.152344 374.417969 C 385.152344 373.746094 386.183594 373.128906 387.242188 372.5625 C 388.304688 371.996094 389.390625 371.480469 390.503906 371.019531 C 391.613281 370.5625 392.746094 370.15625 393.898438 369.808594 C 395.050781 369.457031 396.214844 369.164062 397.394531 368.929688 C 398.574219 368.695312 399.761719 368.519531 400.960938 368.402344 C 402.160156 368.285156 403.359375 368.226562 404.5625 368.226562 C 405.765625 368.226562 406.964844 368.285156 408.164062 368.402344 C 409.359375 368.519531 410.550781 368.695312 411.730469 368.929688 C 412.910156 369.164062 414.074219 369.457031 415.226562 369.808594 C 416.378906 370.15625 417.507812 370.5625 418.621094 371.019531 C 419.730469 371.480469 420.820312 371.996094 421.878906 372.5625 C 422.941406 373.128906 423.972656 373.746094 424.972656 374.417969 C 425.972656 375.085938 426.9375 375.800781 427.867188 376.5625 C 428.796875 377.328125 429.6875 378.132812 430.539062 378.984375 C 431.390625 379.835938 432.195312 380.726562 432.960938 381.65625 C 433.722656 382.585938 434.4375 383.550781 435.109375 384.550781 C 435.777344 385.550781 436.394531 386.582031 436.960938 387.644531 C 437.527344 388.707031 438.042969 389.792969 438.503906 390.902344 C 438.964844 392.015625 439.367188 393.144531 439.71875 394.296875 C 440.066406 395.449219 440.359375 396.613281 440.59375 397.796875 C 440.828125 398.976562 441.003906 400.164062 441.121094 401.359375 C 441.242188 402.558594 441.300781 403.757812 441.300781 404.960938 Z M 441.300781 404.960938 "/><path style=" stroke:none;fill-rule:nonzero;fill:#ffffff;fill-opacity:1;" d="M 291.433594 404.960938 C 291.433594 406.164062 291.375 407.367188 291.253906 408.5625 C 291.136719 409.761719 290.960938 410.949219 290.726562 412.128906 C 290.492188 413.308594 290.199219 414.476562 289.851562 415.625 C 289.5 416.777344 289.097656 417.910156 288.636719 419.019531 C 288.175781 420.132812 287.660156 421.21875 287.09375 422.28125 C 286.527344 423.339844 285.910156 424.371094 285.242188 425.371094 C 284.574219 426.371094 283.855469 427.339844 283.09375 428.269531 C 282.328125 429.199219 281.523438 430.089844 280.671875 430.9375 C 279.820312 431.789062 278.929688 432.597656 278 433.359375 C 277.070312 434.125 276.105469 434.839844 275.105469 435.507812 C 274.105469 436.175781 273.074219 436.792969 272.011719 437.363281 C 270.953125 437.929688 269.863281 438.441406 268.753906 438.902344 C 267.640625 439.363281 266.511719 439.769531 265.359375 440.117188 C 264.207031 440.46875 263.042969 440.757812 261.863281 440.992188 C 260.683594 441.226562 259.492188 441.40625 258.296875 441.523438 C 257.097656 441.640625 255.898438 441.699219 254.695312 441.699219 C 253.492188 441.699219 252.292969 441.640625 251.09375 441.523438 C 249.898438 441.40625 248.707031 441.226562 247.527344 440.992188 C 246.347656 440.757812 245.183594 440.46875 244.03125 440.117188 C 242.878906 439.769531 241.746094 439.363281 240.636719 438.902344 C 239.523438 438.441406 238.4375 437.929688 237.375 437.363281 C 236.316406 436.792969 235.285156 436.175781 234.285156 435.507812 C 233.285156 434.839844 232.320312 434.125 231.390625 433.359375 C 230.457031 432.597656 229.570312 431.789062 228.71875 430.9375 C 227.867188 430.089844 227.058594 429.199219 226.296875 428.269531 C 225.53125 427.339844 224.816406 426.371094 224.148438 425.371094 C 223.480469 424.371094 222.863281 423.339844 222.296875 422.28125 C 221.726562 421.21875 221.214844 420.132812 220.753906 419.019531 C 220.292969 417.910156 219.886719 416.777344 219.539062 415.625 C 219.191406 414.476562 218.898438 413.308594 218.664062 412.128906 C 218.429688 410.949219 218.253906 409.761719 218.132812 408.5625 C 218.015625 407.367188 217.957031 406.164062 217.957031 404.960938 C 217.957031 403.757812 218.015625 402.558594 218.132812 401.359375 C 218.253906 400.164062 218.429688 398.976562 218.664062 397.796875 C 218.898438 396.613281 219.191406 395.449219 219.539062 394.296875 C 219.886719 393.144531 220.292969 392.015625 220.753906 390.902344 C 221.214844 389.792969 221.726562 388.707031 222.296875 387.644531 C 222.863281 386.582031 223.480469 385.550781 224.148438 384.550781 C 224.816406 383.550781 225.53125 382.585938 226.296875 381.65625 C 227.058594 380.726562 227.867188 379.835938 228.71875 378.984375 C 229.570312 378.132812 230.457031 377.328125 231.390625 376.5625 C 232.320312 375.800781 233.285156 375.085938 234.285156 374.417969 C 235.285156 373.746094 236.316406 373.128906 237.375 372.5625 C 238.4375 371.996094 239.523438 371.480469 240.636719 371.019531 C 241.746094 370.5625 242.878906 370.15625 244.03125 369.808594 C 245.183594 369.457031 246.347656 369.164062 247.527344 368.929688 C 248.707031 368.695312 249.898438 368.519531 251.09375 368.402344 C 252.292969 368.285156 253.492188 368.226562 254.695312 368.226562 C 255.898438 368.226562 257.097656 368.285156 258.296875 368.402344 C 259.492188 368.519531 260.683594 368.695312 261.863281 368.929688 C 263.042969 369.164062 264.207031 369.457031 265.359375 369.808594 C 266.511719 370.15625 267.640625 370.5625 268.753906 371.019531 C 269.867188 371.480469 270.953125 371.996094 272.011719 372.5625 C 273.074219 373.128906 274.105469 373.746094 275.105469 374.417969 C 276.105469 375.085938 277.070312 375.800781 278 376.5625 C 278.929688 377.328125 279.820312 378.132812 280.671875 378.984375 C 281.523438 379.835938 282.328125 380.726562 283.09375 381.65625 C 283.855469 382.585938 284.574219 383.550781 285.242188 384.550781 C 285.910156 385.550781 286.527344 386.582031 287.09375 387.644531 C 287.660156 388.707031 288.175781 389.792969 288.636719 390.902344 C 289.097656 392.015625 289.5 393.144531 289.851562 394.296875 C 290.199219 395.449219 290.492188 396.613281 290.726562 397.796875 C 290.960938 398.976562 291.136719 400.164062 291.253906 401.359375 C 291.375 402.558594 291.433594 403.757812 291.433594 404.960938 Z M 291.433594 404.960938 "/><g clip-rule="nonzero" clip-path="url(#9539d378f7)"><path style=" stroke:none;fill-rule:nonzero;fill:#ffffff;fill-opacity:1;" d="M 143.878906 706.292969 C 130.839844 706.292969 118.175781 704.199219 106.242188 700.066406 L 79.050781 690.660156 L 99.945312 670.875 C 127.597656 644.691406 134.578125 614.484375 135.03125 591.863281 C 87.226562 538.878906 60.988281 472.777344 60.988281 404.960938 C 60.988281 238.804688 215.109375 103.621094 404.542969 103.621094 C 593.980469 103.621094 748.109375 238.804688 748.109375 404.960938 C 748.109375 571.109375 593.980469 706.285156 404.542969 706.285156 C 348.136719 706.285156 292.507812 694.066406 242.921875 670.851562 C 224.230469 684.074219 186.46875 706.292969 143.878906 706.292969 Z M 238.832031 629.824219 L 248.859375 634.898438 C 296 658.734375 349.839844 671.347656 404.542969 671.347656 C 574.71875 671.347656 713.171875 551.84375 713.171875 404.960938 C 713.171875 258.066406 574.71875 138.558594 404.542969 138.558594 C 234.371094 138.558594 95.925781 258.066406 95.925781 404.960938 C 95.925781 466.015625 120.507812 525.691406 165.148438 572.996094 L 169.691406 577.820312 L 169.898438 584.429688 C 170.667969 608.179688 166.40625 640.382812 145.285156 671.347656 C 185.726562 670.703125 222.9375 642.542969 230.046875 636.847656 Z M 238.832031 629.824219 "/></g><path style=" stroke:none;fill-rule:nonzero;fill:#ffffff;fill-opacity:1;" d="M 591.132812 404.960938 C 591.132812 406.164062 591.074219 407.367188 590.953125 408.5625 C 590.835938 409.761719 590.660156 410.949219 590.425781 412.128906 C 590.191406 413.308594 589.898438 414.476562 589.550781 415.625 C 589.199219 416.777344 588.796875 417.910156 588.335938 419.019531 C 587.875 420.132812 587.359375 421.21875 586.792969 422.28125 C 586.226562 423.339844 585.609375 424.371094 584.941406 425.371094 C 584.269531 426.371094 583.554688 427.339844 582.792969 428.269531 C 582.027344 429.199219 581.222656 430.089844 580.371094 430.9375 C 579.519531 431.789062 578.628906 432.597656 577.699219 433.359375 C 576.769531 434.125 575.804688 434.839844 574.804688 435.507812 C 573.804688 436.175781 572.773438 436.792969 571.710938 437.363281 C 570.652344 437.929688 569.5625 438.441406 568.453125 438.902344 C 567.339844 439.363281 566.210938 439.769531 565.058594 440.117188 C 563.90625 440.46875 562.742188 440.757812 561.5625 440.992188 C 560.382812 441.226562 559.191406 441.40625 557.996094 441.523438 C 556.796875 441.640625 555.597656 441.699219 554.394531 441.699219 C 553.191406 441.699219 551.992188 441.640625 550.792969 441.523438 C 549.59375 441.40625 548.40625 441.226562 547.226562 440.992188 C 546.046875 440.757812 544.882812 440.46875 543.730469 440.117188 C 542.578125 439.769531 541.445312 439.363281 540.335938 438.902344 C 539.222656 438.441406 538.136719 437.929688 537.074219 437.363281 C 536.015625 436.792969 534.984375 436.175781 533.984375 435.507812 C 532.984375 434.839844 532.019531 434.125 531.089844 433.359375 C 530.15625 432.597656 529.265625 431.789062 528.417969 430.9375 C 527.566406 430.089844 526.757812 429.199219 525.996094 428.269531 C 525.230469 427.339844 524.515625 426.371094 523.847656 425.371094 C 523.179688 424.371094 522.5625 423.339844 521.996094 422.28125 C 521.425781 421.21875 520.914062 420.132812 520.453125 419.019531 C 519.992188 417.910156 519.585938 416.777344 519.238281 415.625 C 518.890625 414.476562 518.597656 413.308594 518.363281 412.128906 C 518.128906 410.949219 517.953125 409.761719 517.832031 408.5625 C 517.714844 407.367188 517.65625 406.164062 517.65625 404.960938 C 517.65625 403.757812 517.714844 402.558594 517.832031 401.359375 C 517.953125 400.164062 518.128906 398.976562 518.363281 397.796875 C 518.597656 396.613281 518.890625 395.449219 519.238281 394.296875 C 519.585938 393.144531 519.992188 392.015625 520.453125 390.902344 C 520.914062 389.792969 521.425781 388.707031 521.996094 387.644531 C 522.5625 386.582031 523.179688 385.550781 523.847656 384.550781 C 524.515625 383.550781 525.230469 382.585938 525.996094 381.65625 C 526.757812 380.726562 527.566406 379.835938 528.417969 378.984375 C 529.265625 378.132812 530.15625 377.328125 531.089844 376.5625 C 532.019531 375.800781 532.984375 375.085938 533.984375 374.417969 C 534.984375 373.746094 536.015625 373.128906 537.074219 372.5625 C 538.136719 371.996094 539.222656 371.480469 540.335938 371.019531 C 541.445312 370.5625 542.578125 370.15625 543.730469 369.808594 C 544.882812 369.457031 546.046875 369.164062 547.226562 368.929688 C 548.40625 368.695312 549.59375 368.519531 550.792969 368.402344 C 551.992188 368.285156 553.191406 368.226562 554.394531 368.226562 C 555.597656 368.226562 556.796875 368.285156 557.996094 368.402344 C 559.191406 368.519531 560.382812 368.695312 561.5625 368.929688 C 562.742188 369.164062 563.90625 369.457031 565.058594 369.808594 C 566.210938 370.15625 567.339844 370.5625 568.453125 371.019531 C 569.5625 371.480469 570.652344 371.996094 571.710938 372.5625 C 572.773438 373.128906 573.804688 373.746094 574.804688 374.417969 C 575.804688 375.085938 576.769531 375.800781 577.699219 376.5625 C 578.628906 377.328125 579.519531 378.132812 580.371094 378.984375 C 581.222656 379.835938 582.027344 380.726562 582.792969 381.65625 C 583.554688 382.585938 584.269531 383.550781 584.941406 384.550781 C 585.609375 385.550781 586.226562 386.582031 586.792969 387.644531 C 587.359375 388.707031 587.875 389.792969 588.335938 390.902344 C 588.796875 392.015625 589.199219 393.144531 589.550781 394.296875 C 589.898438 395.449219 590.191406 396.613281 590.425781 397.796875 C 590.660156 398.976562 590.835938 400.164062 590.953125 401.359375 C 591.074219 402.558594 591.132812 403.757812 591.132812 404.960938 Z M 591.132812 404.960938 "/><path style=" stroke:none;fill-rule:nonzero;fill:#ffffff;fill-opacity:1;" d="M 441.300781 404.960938 C 441.300781 406.164062 441.242188 407.367188 441.121094 408.5625 C 441.003906 409.761719 440.828125 410.949219 440.59375 412.128906 C 440.359375 413.308594 440.066406 414.476562 439.71875 415.625 C 439.367188 416.777344 438.964844 417.910156 438.503906 419.019531 C 438.042969 420.132812 437.527344 421.21875 436.960938 422.28125 C 436.394531 423.339844 435.777344 424.371094 435.109375 425.371094 C 434.4375 426.371094 433.722656 427.339844 432.960938 428.269531 C 432.195312 429.199219 431.390625 430.089844 430.539062 430.9375 C 429.6875 431.789062 428.796875 432.597656 427.867188 433.359375 C 426.9375 434.125 425.972656 434.839844 424.972656 435.507812 C 423.972656 436.175781 422.941406 436.792969 421.878906 437.363281 C 420.820312 437.929688 419.730469 438.441406 418.621094 438.902344 C 417.507812 439.363281 416.378906 439.769531 415.226562 440.117188 C 414.074219 440.46875 412.910156 440.757812 411.730469 440.992188 C 410.550781 441.226562 409.359375 441.40625 408.164062 441.523438 C 406.964844 441.640625 405.765625 441.699219 404.5625 441.699219 C 403.359375 441.699219 402.160156 441.640625 400.960938 441.523438 C 399.761719 441.40625 398.574219 441.226562 397.394531 440.992188 C 396.214844 440.757812 395.050781 440.46875 393.898438 440.117188 C 392.746094 439.769531 391.613281 439.363281 390.503906 438.902344 C 389.390625 438.441406 388.304688 437.929688 387.242188 437.363281 C 386.183594 436.792969 385.152344 436.175781 384.152344 435.507812 C 383.152344 434.839844 382.1875 434.125 381.257812 433.359375 C 380.324219 432.597656 379.433594 431.789062 378.585938 430.9375 C 377.734375 430.089844 376.925781 429.199219 376.164062 428.269531 C 375.398438 427.339844 374.683594 426.371094 374.015625 425.371094 C 373.347656 424.371094 372.730469 423.339844 372.164062 422.28125 C 371.59375 421.21875 371.082031 420.132812 370.621094 419.019531 C 370.160156 417.910156 369.753906 416.777344 369.40625 415.625 C 369.058594 414.476562 368.765625 413.308594 368.53125 412.128906 C 368.296875 410.949219 368.121094 409.761719 368 408.5625 C 367.882812 407.367188 367.824219 406.164062 367.824219 404.960938 C 367.824219 403.757812 367.882812 402.558594 368 401.359375 C 368.121094 400.164062 368.296875 398.976562 368.53125 397.796875 C 368.765625 396.613281 369.058594 395.449219 369.40625 394.296875 C 369.753906 393.144531 370.160156 392.015625 370.621094 390.902344 C 371.082031 389.792969 371.59375 388.707031 372.164062 387.644531 C 372.730469 386.582031 373.347656 385.550781 374.015625 384.550781 C 374.683594 383.550781 375.398438 382.585938 376.164062 381.65625 C 376.925781 380.726562 377.734375 379.835938 378.585938 378.984375 C 379.433594 378.132812 380.324219 377.328125 381.257812 376.5625 C 382.1875 375.800781 383.152344 375.085938 384.152344 374.417969 C 385.152344 373.746094 386.183594 373.128906 387.242188 372.5625 C 388.304688 371.996094 389.390625 371.480469 390.503906 371.019531 C 391.613281 370.5625 392.746094 370.15625 393.898438 369.808594 C 395.050781 369.457031 396.214844 369.164062 397.394531 368.929688 C 398.574219 368.695312 399.761719 368.519531 400.960938 368.402344 C 402.160156 368.285156 403.359375 368.226562 404.5625 368.226562 C 405.765625 368.226562 406.964844 368.285156 408.164062 368.402344 C 409.359375 368.519531 410.550781 368.695312 411.730469 368.929688 C 412.910156 369.164062 414.074219 369.457031 415.226562 369.808594 C 416.378906 370.15625 417.507812 370.5625 418.621094 371.019531 C 419.730469 371.480469 420.820312 371.996094 421.878906 372.5625 C 422.941406 373.128906 423.972656 373.746094 424.972656 374.417969 C 425.972656 375.085938 426.9375 375.800781 427.867188 376.5625 C 428.796875 377.328125 429.6875 378.132812 430.539062 378.984375 C 431.390625 379.835938 432.195312 380.726562 432.960938 381.65625 C 433.722656 382.585938 434.4375 383.550781 435.109375 384.550781 C 435.777344 385.550781 436.394531 386.582031 436.960938 387.644531 C 437.527344 388.707031 438.042969 389.792969 438.503906 390.902344 C 438.964844 392.015625 439.367188 393.144531 439.71875 394.296875 C 440.066406 395.449219 440.359375 396.613281 440.59375 397.796875 C 440.828125 398.976562 441.003906 400.164062 441.121094 401.359375 C 441.242188 402.558594 441.300781 403.757812 441.300781 404.960938 Z M 441.300781 404.960938 "/><path style=" stroke:none;fill-rule:nonzero;fill:#ffffff;fill-opacity:1;" d="M 291.433594 404.960938 C 291.433594 406.164062 291.375 407.367188 291.253906 408.5625 C 291.136719 409.761719 290.960938 410.949219 290.726562 412.128906 C 290.492188 413.308594 290.199219 414.476562 289.851562 415.625 C 289.5 416.777344 289.097656 417.910156 288.636719 419.019531 C 288.175781 420.132812 287.660156 421.21875 287.09375 422.28125 C 286.527344 423.339844 285.910156 424.371094 285.242188 425.371094 C 284.574219 426.371094 283.855469 427.339844 283.09375 428.269531 C 282.328125 429.199219 281.523438 430.089844 280.671875 430.9375 C 279.820312 431.789062 278.929688 432.597656 278 433.359375 C 277.070312 434.125 276.105469 434.839844 275.105469 435.507812 C 274.105469 436.175781 273.074219 436.792969 272.011719 437.363281 C 270.953125 437.929688 269.863281 438.441406 268.753906 438.902344 C 267.640625 439.363281 266.511719 439.769531 265.359375 440.117188 C 264.207031 440.46875 263.042969 440.757812 261.863281 440.992188 C 260.683594 441.226562 259.492188 441.40625 258.296875 441.523438 C 257.097656 441.640625 255.898438 441.699219 254.695312 441.699219 C 253.492188 441.699219 252.292969 441.640625 251.09375 441.523438 C 249.898438 441.40625 248.707031 441.226562 247.527344 440.992188 C 246.347656 440.757812 245.183594 440.46875 244.03125 440.117188 C 242.878906 439.769531 241.746094 439.363281 240.636719 438.902344 C 239.523438 438.441406 238.4375 437.929688 237.375 437.363281 C 236.316406 436.792969 235.285156 436.175781 234.285156 435.507812 C 233.285156 434.839844 232.320312 434.125 231.390625 433.359375 C 230.457031 432.597656 229.570312 431.789062 228.71875 430.9375 C 227.867188 430.089844 227.058594 429.199219 226.296875 428.269531 C 225.53125 427.339844 224.816406 426.371094 224.148438 425.371094 C 223.480469 424.371094 222.863281 423.339844 222.296875 422.28125 C 221.726562 421.21875 221.214844 420.132812 220.753906 419.019531 C 220.292969 417.910156 219.886719 416.777344 219.539062 415.625 C 219.191406 414.476562 218.898438 413.308594 218.664062 412.128906 C 218.429688 410.949219 218.253906 409.761719 218.132812 408.5625 C 218.015625 407.367188 217.957031 406.164062 217.957031 404.960938 C 217.957031 403.757812 218.015625 402.558594 218.132812 401.359375 C 218.253906 400.164062 218.429688 398.976562 218.664062 397.796875 C 218.898438 396.613281 219.191406 395.449219 219.539062 394.296875 C 219.886719 393.144531 220.292969 392.015625 220.753906 390.902344 C 221.214844 389.792969 221.726562 388.707031 222.296875 387.644531 C 222.863281 386.582031 223.480469 385.550781 224.148438 384.550781 C 224.816406 383.550781 225.53125 382.585938 226.296875 381.65625 C 227.058594 380.726562 227.867188 379.835938 228.71875 378.984375 C 229.570312 378.132812 230.457031 377.328125 231.390625 376.5625 C 232.320312 375.800781 233.285156 375.085938 234.285156 374.417969 C 235.285156 373.746094 236.316406 373.128906 237.375 372.5625 C 238.4375 371.996094 239.523438 371.480469 240.636719 371.019531 C 241.746094 370.5625 242.878906 370.15625 244.03125 369.808594 C 245.183594 369.457031 246.347656 369.164062 247.527344 368.929688 C 248.707031 368.695312 249.898438 368.519531 251.09375 368.402344 C 252.292969 368.285156 253.492188 368.226562 254.695312 368.226562 C 255.898438 368.226562 257.097656 368.285156 258.296875 368.402344 C 259.492188 368.519531 260.683594 368.695312 261.863281 368.929688 C 263.042969 369.164062 264.207031 369.457031 265.359375 369.808594 C 266.511719 370.15625 267.640625 370.5625 268.753906 371.019531 C 269.867188 371.480469 270.953125 371.996094 272.011719 372.5625 C 273.074219 373.128906 274.105469 373.746094 275.105469 374.417969 C 276.105469 375.085938 277.070312 375.800781 278 376.5625 C 278.929688 377.328125 279.820312 378.132812 280.671875 378.984375 C 281.523438 379.835938 282.328125 380.726562 283.09375 381.65625 C 283.855469 382.585938 284.574219 383.550781 285.242188 384.550781 C 285.910156 385.550781 286.527344 386.582031 287.09375 387.644531 C 287.660156 388.707031 288.175781 389.792969 288.636719 390.902344 C 289.097656 392.015625 289.5 393.144531 289.851562 394.296875 C 290.199219 395.449219 290.492188 396.613281 290.726562 397.796875 C 290.960938 398.976562 291.136719 400.164062 291.253906 401.359375 C 291.375 402.558594 291.433594 403.757812 291.433594 404.960938 Z M 291.433594 404.960938 "/></g></svg>