<svg xmlns="http://www.w3.org/2000/svg" xmlns:xlink="http://www.w3.org/1999/xlink" width="1080" zoomAndPan="magnify" viewBox="0 0 810 809.999993" height="1080" preserveAspectRatio="xMidYMid meet" version="1.2"><defs><clipPath id="43d9afa668"><path d="M 29.914062 128.84375 L 779.914062 128.84375 L 779.914062 680.84375 L 29.914062 680.84375 Z M 29.914062 128.84375 "/></clipPath></defs><g id="88a1346f11"><rect x="0" width="810" y="0" height="809.999993" style="fill:#ffffff;fill-opacity:1;stroke:none;"/><rect x="0" width="810" y="0" height="809.999993" style="fill:#000000;fill-opacity:1;stroke:none;"/><g clip-rule="nonzero" clip-path="url(#43d9afa668)"><path style=" stroke:none;fill-rule:nonzero;fill:#ffffff;fill-opacity:1;" d="M 682.914062 342.476562 L 778.78125 580.398438 C 779.339844 581.535156 779.65625 582.816406 779.65625 584.167969 L 779.65625 628.320312 C 779.65625 642.832031 773.726562 656.019531 764.171875 665.574219 C 754.621094 675.125 741.429688 681.058594 726.917969 681.058594 L 82.65625 681.058594 C 68.144531 681.058594 54.957031 675.125 45.402344 665.574219 C 35.847656 656.019531 29.921875 642.832031 29.921875 628.320312 L 29.921875 584.167969 C 29.921875 582.816406 30.234375 581.535156 30.792969 580.398438 L 126.660156 342.476562 L 69.660156 342.476562 C 62.664062 342.476562 56.308594 339.617188 51.707031 335.015625 C 51.519531 334.832031 51.34375 334.640625 51.179688 334.441406 C 46.890625 329.886719 44.25 323.769531 44.25 317.0625 L 44.25 300.230469 C 44.25 297.753906 45.296875 295.519531 46.980469 293.957031 L 187.386719 144.046875 C 187.542969 143.882812 187.699219 143.726562 187.863281 143.578125 C 192.945312 138.28125 198.421875 134.625 204.546875 132.28125 C 210.734375 129.914062 217.425781 128.914062 224.9375 128.914062 L 584.636719 128.914062 C 592.148438 128.914062 598.839844 129.914062 605.023438 132.28125 C 611.378906 134.710938 617 138.511719 622.1875 144.046875 L 762.59375 293.957031 C 764.277344 295.519531 765.328125 297.753906 765.328125 300.230469 L 765.328125 317.0625 C 765.328125 324.019531 762.472656 330.363281 757.867188 334.980469 L 757.8125 335.035156 C 753.199219 339.625 746.863281 342.476562 739.914062 342.476562 Z M 660.308594 610.25 C 658.09375 610.25 656.089844 611.144531 654.640625 612.59375 C 653.195312 614.042969 652.296875 616.046875 652.296875 618.257812 C 652.296875 620.472656 653.195312 622.476562 654.640625 623.925781 C 656.089844 625.375 658.09375 626.273438 660.308594 626.273438 C 662.523438 626.273438 664.527344 625.375 665.972656 623.925781 C 667.425781 622.476562 668.320312 620.472656 668.320312 618.257812 C 668.320312 616.046875 667.425781 614.042969 665.972656 612.59375 C 664.527344 611.144531 662.523438 610.25 660.308594 610.25 Z M 646.550781 604.5 C 650.070312 600.980469 654.9375 598.800781 660.308594 598.800781 C 665.679688 598.800781 670.546875 600.980469 674.066406 604.5 C 677.589844 608.023438 679.765625 612.886719 679.765625 618.257812 C 679.765625 623.628906 677.589844 628.496094 674.066406 632.019531 C 670.546875 635.539062 665.679688 637.71875 660.308594 637.71875 C 654.9375 637.71875 650.070312 635.539062 646.550781 632.019531 C 643.03125 628.496094 640.847656 623.628906 640.847656 618.257812 C 640.847656 612.886719 643.03125 608.023438 646.550781 604.5 Z M 707.09375 610.25 C 704.878906 610.25 702.875 611.144531 701.429688 612.59375 C 699.976562 614.042969 699.082031 616.046875 699.082031 618.257812 C 699.082031 620.472656 699.976562 622.476562 701.429688 623.925781 C 702.875 625.375 704.878906 626.273438 707.09375 626.273438 C 709.304688 626.273438 711.308594 625.375 712.761719 623.925781 C 714.207031 622.476562 715.105469 620.472656 715.105469 618.257812 C 715.105469 616.046875 714.207031 614.042969 712.761719 612.59375 C 711.308594 611.144531 709.304688 610.25 707.09375 610.25 Z M 693.335938 604.5 C 696.855469 600.980469 701.722656 598.800781 707.09375 598.800781 C 712.464844 598.800781 717.332031 600.980469 720.851562 604.5 C 724.371094 608.023438 726.550781 612.886719 726.550781 618.257812 C 726.550781 623.628906 724.371094 628.496094 720.851562 632.019531 C 717.332031 635.539062 712.464844 637.71875 707.09375 637.71875 C 701.722656 637.71875 696.855469 635.539062 693.335938 632.019531 C 689.8125 628.496094 687.636719 623.628906 687.636719 618.257812 C 687.636719 612.886719 689.8125 608.023438 693.335938 604.5 Z M 404.789062 190.25 C 415.105469 190.25 424.53125 191.363281 431.4375 193.164062 C 439.972656 195.394531 445.25 199.179688 445.25 203.984375 C 445.25 208.792969 439.972656 212.578125 431.4375 214.808594 C 424.53125 216.605469 415.105469 217.722656 404.789062 217.722656 C 394.472656 217.722656 385.042969 216.605469 378.136719 214.808594 C 369.605469 212.578125 364.324219 208.792969 364.324219 203.984375 C 364.324219 199.179688 369.605469 195.394531 378.136719 193.164062 C 385.042969 191.363281 394.472656 190.25 404.789062 190.25 Z M 429.292969 201.449219 C 423.105469 199.832031 414.449219 198.832031 404.789062 198.832031 C 395.128906 198.832031 386.472656 199.832031 380.285156 201.449219 C 375.730469 202.636719 372.910156 203.578125 372.910156 203.984375 C 372.910156 204.394531 375.730469 205.335938 380.285156 206.523438 C 386.472656 208.140625 395.128906 209.136719 404.789062 209.136719 C 414.449219 209.136719 423.105469 208.140625 429.292969 206.523438 C 433.847656 205.335938 436.667969 204.394531 436.667969 203.984375 C 436.667969 203.578125 433.847656 202.636719 429.292969 201.449219 Z M 145.125 342.476562 L 51.191406 575.585938 L 758.382812 575.585938 L 664.453125 342.476562 L 634.269531 342.476562 L 708.085938 533.578125 C 708.933594 535.78125 707.839844 538.261719 705.636719 539.113281 C 705.128906 539.3125 704.609375 539.402344 704.09375 539.402344 L 704.09375 539.417969 L 105.484375 539.417969 C 103.109375 539.417969 101.1875 537.492188 101.1875 535.125 C 101.1875 534.449219 101.34375 533.8125 101.621094 533.246094 L 175.304688 342.476562 Z M 72.605469 291.644531 L 736.96875 291.644531 L 609.710938 155.78125 C 606.378906 152.222656 602.84375 149.808594 598.921875 148.308594 C 594.835938 146.746094 590.128906 146.082031 584.636719 146.082031 L 224.9375 146.082031 C 219.449219 146.082031 214.742188 146.746094 210.652344 148.308594 C 206.851562 149.761719 203.433594 152.039062 200.242188 155.347656 L 199.863281 155.78125 Z M 625.097656 342.476562 L 184.480469 342.476562 L 111.726562 530.832031 L 697.847656 530.832031 Z M 748.160156 308.816406 L 61.417969 308.816406 L 61.417969 317.0625 C 61.417969 319.175781 62.21875 321.113281 63.53125 322.578125 L 63.847656 322.878906 C 65.34375 324.375 67.402344 325.308594 69.660156 325.308594 L 739.914062 325.308594 C 742.191406 325.308594 744.253906 324.386719 745.730469 322.910156 L 745.761719 322.878906 C 747.238281 321.402344 748.160156 319.339844 748.160156 317.0625 Z M 508.59375 592.753906 C 498.011719 601.023438 483.933594 607.933594 467.496094 612.898438 C 449.109375 618.449219 427.664062 621.644531 404.789062 621.644531 C 381.914062 621.644531 360.464844 618.449219 342.078125 612.898438 C 325.640625 607.933594 311.5625 601.023438 300.984375 592.753906 L 47.089844 592.753906 L 47.089844 628.320312 C 47.089844 638.09375 51.09375 646.980469 57.542969 653.429688 C 63.992188 659.882812 72.882812 663.886719 82.65625 663.886719 L 726.917969 663.886719 C 736.691406 663.886719 745.582031 659.882812 752.03125 653.429688 C 758.484375 646.980469 762.484375 638.09375 762.484375 628.320312 L 762.484375 592.753906 Z M 322.238281 592.753906 C 329.085938 596.277344 336.867188 599.371094 345.386719 601.945312 C 362.738281 607.183594 383.046875 610.195312 404.789062 610.195312 C 426.527344 610.195312 446.84375 607.183594 464.1875 601.945312 C 472.710938 599.371094 480.488281 596.277344 487.335938 592.753906 Z M 322.238281 592.753906 "/><path style=" stroke:none;fill-rule:nonzero;fill:#ffffff;fill-opacity:1;" d="M 682.914062 342.476562 L 778.78125 580.398438 C 779.339844 581.535156 779.65625 582.816406 779.65625 584.167969 L 779.65625 628.320312 C 779.65625 642.832031 773.726562 656.019531 764.171875 665.574219 C 754.621094 675.125 741.429688 681.058594 726.917969 681.058594 L 82.65625 681.058594 C 68.144531 681.058594 54.957031 675.125 45.402344 665.574219 C 35.847656 656.019531 29.921875 642.832031 29.921875 628.320312 L 29.921875 584.167969 C 29.921875 582.816406 30.234375 581.535156 30.792969 580.398438 L 126.660156 342.476562 L 69.660156 342.476562 C 62.664062 342.476562 56.308594 339.617188 51.707031 335.015625 C 51.519531 334.832031 51.34375 334.640625 51.179688 334.441406 C 46.890625 329.886719 44.25 323.769531 44.25 317.0625 L 44.25 300.230469 C 44.25 297.753906 45.296875 295.519531 46.980469 293.957031 L 187.386719 144.046875 C 187.542969 143.882812 187.699219 143.726562 187.863281 143.578125 C 192.945312 138.28125 198.421875 134.625 204.546875 132.28125 C 210.734375 129.914062 217.425781 128.914062 224.9375 128.914062 L 584.636719 128.914062 C 592.148438 128.914062 598.839844 129.914062 605.023438 132.28125 C 611.378906 134.710938 617 138.511719 622.1875 144.046875 L 762.59375 293.957031 C 764.277344 295.519531 765.328125 297.753906 765.328125 300.230469 L 765.328125 317.0625 C 765.328125 324.019531 762.472656 330.363281 757.867188 334.980469 L 757.8125 335.035156 C 753.199219 339.625 746.863281 342.476562 739.914062 342.476562 Z M 660.308594 610.25 C 658.09375 610.25 656.089844 611.144531 654.640625 612.59375 C 653.195312 614.042969 652.296875 616.046875 652.296875 618.257812 C 652.296875 620.472656 653.195312 622.476562 654.640625 623.925781 C 656.089844 625.375 658.09375 626.273438 660.308594 626.273438 C 662.523438 626.273438 664.527344 625.375 665.972656 623.925781 C 667.425781 622.476562 668.320312 620.472656 668.320312 618.257812 C 668.320312 616.046875 667.425781 614.042969 665.972656 612.59375 C 664.527344 611.144531 662.523438 610.25 660.308594 610.25 Z M 646.550781 604.5 C 650.070312 600.980469 654.9375 598.800781 660.308594 598.800781 C 665.679688 598.800781 670.546875 600.980469 674.066406 604.5 C 677.589844 608.023438 679.765625 612.886719 679.765625 618.257812 C 679.765625 623.628906 677.589844 628.496094 674.066406 632.019531 C 670.546875 635.539062 665.679688 637.71875 660.308594 637.71875 C 654.9375 637.71875 650.070312 635.539062 646.550781 632.019531 C 643.03125 628.496094 640.847656 623.628906 640.847656 618.257812 C 640.847656 612.886719 643.03125 608.023438 646.550781 604.5 Z M 707.09375 610.25 C 704.878906 610.25 702.875 611.144531 701.429688 612.59375 C 699.976562 614.042969 699.082031 616.046875 699.082031 618.257812 C 699.082031 620.472656 699.976562 622.476562 701.429688 623.925781 C 702.875 625.375 704.878906 626.273438 707.09375 626.273438 C 709.304688 626.273438 711.308594 625.375 712.761719 623.925781 C 714.207031 622.476562 715.105469 620.472656 715.105469 618.257812 C 715.105469 616.046875 714.207031 614.042969 712.761719 612.59375 C 711.308594 611.144531 709.304688 610.25 707.09375 610.25 Z M 693.335938 604.5 C 696.855469 600.980469 701.722656 598.800781 707.09375 598.800781 C 712.464844 598.800781 717.332031 600.980469 720.851562 604.5 C 724.371094 608.023438 726.550781 612.886719 726.550781 618.257812 C 726.550781 623.628906 724.371094 628.496094 720.851562 632.019531 C 717.332031 635.539062 712.464844 637.71875 707.09375 637.71875 C 701.722656 637.71875 696.855469 635.539062 693.335938 632.019531 C 689.8125 628.496094 687.636719 623.628906 687.636719 618.257812 C 687.636719 612.886719 689.8125 608.023438 693.335938 604.5 Z M 404.789062 190.25 C 415.105469 190.25 424.53125 191.363281 431.4375 193.164062 C 439.972656 195.394531 445.25 199.179688 445.25 203.984375 C 445.25 208.792969 439.972656 212.578125 431.4375 214.808594 C 424.53125 216.605469 415.105469 217.722656 404.789062 217.722656 C 394.472656 217.722656 385.042969 216.605469 378.136719 214.808594 C 369.605469 212.578125 364.324219 208.792969 364.324219 203.984375 C 364.324219 199.179688 369.605469 195.394531 378.136719 193.164062 C 385.042969 191.363281 394.472656 190.25 404.789062 190.25 Z M 429.292969 201.449219 C 423.105469 199.832031 414.449219 198.832031 404.789062 198.832031 C 395.128906 198.832031 386.472656 199.832031 380.285156 201.449219 C 375.730469 202.636719 372.910156 203.578125 372.910156 203.984375 C 372.910156 204.394531 375.730469 205.335938 380.285156 206.523438 C 386.472656 208.140625 395.128906 209.136719 404.789062 209.136719 C 414.449219 209.136719 423.105469 208.140625 429.292969 206.523438 C 433.847656 205.335938 436.667969 204.394531 436.667969 203.984375 C 436.667969 203.578125 433.847656 202.636719 429.292969 201.449219 Z M 145.125 342.476562 L 51.191406 575.585938 L 758.382812 575.585938 L 664.453125 342.476562 L 634.269531 342.476562 L 708.085938 533.578125 C 708.933594 535.78125 707.839844 538.261719 705.636719 539.113281 C 705.128906 539.3125 704.609375 539.402344 704.09375 539.402344 L 704.09375 539.417969 L 105.484375 539.417969 C 103.109375 539.417969 101.1875 537.492188 101.1875 535.125 C 101.1875 534.449219 101.34375 533.8125 101.621094 533.246094 L 175.304688 342.476562 Z M 72.605469 291.644531 L 736.96875 291.644531 L 609.710938 155.78125 C 606.378906 152.222656 602.84375 149.808594 598.921875 148.308594 C 594.835938 146.746094 590.128906 146.082031 584.636719 146.082031 L 224.9375 146.082031 C 219.449219 146.082031 214.742188 146.746094 210.652344 148.308594 C 206.851562 149.761719 203.433594 152.039062 200.242188 155.347656 L 199.863281 155.78125 Z M 625.097656 342.476562 L 184.480469 342.476562 L 111.726562 530.832031 L 697.847656 530.832031 Z M 748.160156 308.816406 L 61.417969 308.816406 L 61.417969 317.0625 C 61.417969 319.175781 62.21875 321.113281 63.53125 322.578125 L 63.847656 322.878906 C 65.34375 324.375 67.402344 325.308594 69.660156 325.308594 L 739.914062 325.308594 C 742.191406 325.308594 744.253906 324.386719 745.730469 322.910156 L 745.761719 322.878906 C 747.238281 321.402344 748.160156 319.339844 748.160156 317.0625 Z M 508.59375 592.753906 C 498.011719 601.023438 483.933594 607.933594 467.496094 612.898438 C 449.109375 618.449219 427.664062 621.644531 404.789062 621.644531 C 381.914062 621.644531 360.464844 618.449219 342.078125 612.898438 C 325.640625 607.933594 311.5625 601.023438 300.984375 592.753906 L 47.089844 592.753906 L 47.089844 628.320312 C 47.089844 638.09375 51.09375 646.980469 57.542969 653.429688 C 63.992188 659.882812 72.882812 663.886719 82.65625 663.886719 L 726.917969 663.886719 C 736.691406 663.886719 745.582031 659.882812 752.03125 653.429688 C 758.484375 646.980469 762.484375 638.09375 762.484375 628.320312 L 762.484375 592.753906 Z M 322.238281 592.753906 C 329.085938 596.277344 336.867188 599.371094 345.386719 601.945312 C 362.738281 607.183594 383.046875 610.195312 404.789062 610.195312 C 426.527344 610.195312 446.84375 607.183594 464.1875 601.945312 C 472.710938 599.371094 480.488281 596.277344 487.335938 592.753906 Z M 322.238281 592.753906 "/></g></g></svg>