<svg xmlns="http://www.w3.org/2000/svg" xmlns:xlink="http://www.w3.org/1999/xlink" width="1080" zoomAndPan="magnify" viewBox="0 0 810 809.999993" height="1080" preserveAspectRatio="xMidYMid meet" version="1.2"><defs><clipPath id="efda15652f"><path d="M 63 65.261719 L 756 65.261719 L 756 744 L 63 744 Z M 63 65.261719 "/></clipPath></defs><g id="d0fa2ff86c"><rect x="0" width="810" y="0" height="809.999993" style="fill:#ffffff;fill-opacity:1;stroke:none;"/><rect x="0" width="810" y="0" height="809.999993" style="fill:#000000;fill-opacity:1;stroke:none;"/><g clip-rule="nonzero" clip-path="url(#efda15652f)"><path style=" stroke:none;fill-rule:nonzero;fill:#ffffff;fill-opacity:1;" d="M 587.675781 306.785156 C 585.410156 304.519531 582.464844 303.386719 579.476562 303.386719 C 576.53125 303.386719 573.589844 304.519531 571.324219 306.785156 L 546.730469 331.332031 L 464.75 249.351562 L 484.8125 229.285156 C 498.128906 215.96875 504.0625 197.625 501.027344 179.011719 C 498.039062 160.394531 486.625 144.859375 469.730469 136.433594 L 377.695312 90.417969 L 378.328125 89.78125 L 542.789062 122.664062 C 563.035156 126.742188 581.515625 136.617188 596.101562 151.246094 L 661.503906 216.605469 L 636.863281 241.199219 C 634.691406 243.371094 633.511719 246.316406 633.511719 249.398438 C 633.511719 252.429688 634.691406 255.421875 636.863281 257.59375 L 661.457031 282.191406 C 664.222656 284.90625 668.160156 286.128906 671.964844 285.359375 L 700.773438 279.609375 C 704.625 278.792969 708.519531 280.015625 711.28125 282.734375 L 727.089844 298.585938 L 628.710938 396.964844 L 612.859375 381.15625 C 610.09375 378.394531 608.917969 374.496094 609.6875 370.691406 L 615.484375 341.839844 C 616.210938 338.035156 615.03125 334.097656 612.269531 331.378906 Z M 157.339844 687.929688 C 143.84375 701.472656 121.738281 701.472656 108.152344 687.976562 C 94.609375 674.339844 94.609375 652.238281 108.152344 638.742188 L 464.703125 282.144531 L 513.9375 331.378906 Z M 600.675781 535.96875 C 629.164062 532.617188 657.109375 542.265625 677.402344 562.421875 C 701.089844 586.15625 709.878906 620.488281 701.363281 652.011719 L 650.226562 600.875 C 648.050781 598.703125 645.109375 597.476562 641.980469 597.476562 L 592.839844 597.476562 C 586.453125 597.476562 581.242188 602.6875 581.242188 609.074219 L 581.242188 658.21875 C 581.242188 661.296875 582.464844 664.285156 584.640625 666.460938 L 635.777344 717.597656 C 604.253906 726.066406 569.921875 717.324219 546.1875 693.636719 C 526.03125 673.390625 516.382812 645.398438 519.734375 616.953125 C 521.910156 598.835938 515.886719 581.21875 503.292969 568.761719 L 406.320312 471.789062 L 455.554688 422.554688 L 552.480469 519.484375 C 564.984375 532.164062 582.648438 538.144531 600.675781 535.96875 Z M 198.105469 287.535156 C 195.660156 287.535156 193.214844 287.671875 190.765625 287.941406 C 162.230469 291.292969 134.285156 281.644531 114.039062 261.492188 C 90.351562 237.757812 81.5625 203.425781 90.078125 171.898438 L 141.214844 223.035156 C 143.390625 225.210938 146.378906 226.433594 149.460938 226.433594 L 198.601562 226.433594 C 204.988281 226.433594 210.199219 221.222656 210.199219 214.835938 L 210.199219 165.695312 C 210.199219 162.613281 208.976562 159.625 206.800781 157.449219 L 155.664062 106.3125 C 187.1875 97.800781 221.523438 106.539062 245.210938 130.273438 C 265.410156 150.519531 275.058594 178.511719 271.753906 206.957031 C 269.53125 225.074219 275.511719 242.695312 288.148438 255.148438 L 373.527344 340.527344 L 324.292969 389.761719 L 238.960938 304.429688 C 228.132812 293.46875 213.550781 287.535156 198.105469 287.535156 Z M 596.460938 397.550781 L 620.511719 421.558594 C 622.777344 423.824219 625.722656 424.953125 628.710938 424.953125 C 631.65625 424.953125 634.597656 423.824219 636.863281 421.558594 L 751.683594 306.785156 C 756.210938 302.253906 756.210938 294.917969 751.683594 290.386719 L 727.679688 266.382812 C 719.433594 258.09375 707.703125 254.558594 696.242188 256.824219 L 673.507812 261.398438 L 661.457031 249.398438 L 686.097656 224.800781 C 688.273438 222.628906 689.496094 219.640625 689.496094 216.605469 C 689.496094 213.523438 688.273438 210.582031 686.097656 208.40625 L 612.542969 134.804688 C 594.652344 116.957031 572.09375 104.910156 547.363281 99.929688 L 376.789062 65.820312 C 372.984375 65.050781 369.042969 66.273438 366.324219 68.992188 L 349.929688 85.390625 C 347.300781 88.015625 346.078125 91.773438 346.667969 95.445312 C 347.257812 99.15625 349.613281 102.285156 352.917969 103.960938 L 459.359375 157.179688 C 469.457031 162.253906 476.34375 171.582031 478.15625 182.726562 C 479.96875 193.914062 476.433594 204.917969 468.417969 212.890625 L 440.109375 241.199219 C 437.933594 243.371094 436.710938 246.316406 436.710938 249.398438 C 436.710938 252.429688 437.933594 255.421875 440.109375 257.59375 L 448.308594 265.746094 L 389.921875 324.132812 L 304.5 238.707031 C 296.980469 231.28125 293.402344 220.726562 294.761719 209.675781 C 298.929688 174.117188 286.835938 139.199219 261.652344 113.878906 C 226.910156 79.136719 173.871094 70.078125 129.710938 91.320312 C 126.316406 92.953125 123.914062 96.125 123.28125 99.835938 C 122.644531 103.550781 123.867188 107.3125 126.496094 109.984375 L 187.007812 170.449219 L 187.007812 203.242188 L 154.214844 203.242188 L 93.75 142.730469 C 91.074219 140.101562 87.316406 138.925781 83.601562 139.515625 C 79.886719 140.148438 76.71875 142.550781 75.085938 145.945312 C 53.84375 190.109375 62.902344 243.144531 97.644531 277.886719 C 123.007812 303.070312 157.882812 315.164062 193.53125 310.996094 C 204.492188 309.636719 215.042969 313.214844 222.519531 320.78125 L 307.898438 406.15625 L 91.710938 622.34375 C 69.199219 644.855469 69.152344 681.679688 91.753906 704.371094 C 103.078125 715.648438 117.933594 721.265625 132.792969 721.265625 C 147.648438 721.265625 162.503906 715.605469 173.738281 704.371094 L 389.921875 488.183594 L 486.941406 585.203125 C 494.460938 592.632812 498.039062 603.183594 496.679688 614.238281 C 492.511719 649.792969 504.5625 684.667969 529.789062 710.03125 C 551.984375 732.226562 581.695312 743.957031 611.769531 743.957031 C 628.710938 743.957031 645.832031 740.242188 661.777344 732.589844 C 665.128906 730.957031 667.527344 727.789062 668.160156 724.074219 C 668.796875 720.359375 667.574219 716.601562 664.945312 713.929688 L 604.433594 653.460938 L 604.433594 620.667969 L 637.226562 620.667969 L 697.695312 681.179688 C 700.367188 683.808594 704.171875 684.984375 707.839844 684.398438 C 711.554688 683.761719 714.722656 681.363281 716.355469 677.964844 C 737.597656 633.804688 728.539062 580.765625 693.796875 546.023438 C 668.480469 520.839844 633.558594 508.75 597.910156 512.914062 C 586.949219 514.273438 576.441406 510.695312 568.921875 503.132812 L 471.949219 406.15625 L 530.332031 347.773438 L 538.488281 355.972656 C 543.015625 360.503906 550.351562 360.503906 554.882812 355.972656 L 579.476562 331.378906 L 591.523438 343.382812 L 586.949219 366.117188 C 584.640625 377.53125 588.21875 389.308594 596.460938 397.550781 "/><path style=" stroke:none;fill-rule:nonzero;fill:#ffffff;fill-opacity:1;" d="M 587.675781 306.785156 C 585.410156 304.519531 582.464844 303.386719 579.476562 303.386719 C 576.53125 303.386719 573.589844 304.519531 571.324219 306.785156 L 546.730469 331.332031 L 464.75 249.351562 L 484.8125 229.285156 C 498.128906 215.96875 504.0625 197.625 501.027344 179.011719 C 498.039062 160.394531 486.625 144.859375 469.730469 136.433594 L 377.695312 90.417969 L 378.328125 89.78125 L 542.789062 122.664062 C 563.035156 126.742188 581.515625 136.617188 596.101562 151.246094 L 661.503906 216.605469 L 636.863281 241.199219 C 634.691406 243.371094 633.511719 246.316406 633.511719 249.398438 C 633.511719 252.429688 634.691406 255.421875 636.863281 257.59375 L 661.457031 282.191406 C 664.222656 284.90625 668.160156 286.128906 671.964844 285.359375 L 700.773438 279.609375 C 704.625 278.792969 708.519531 280.015625 711.28125 282.734375 L 727.089844 298.585938 L 628.710938 396.964844 L 612.859375 381.15625 C 610.09375 378.394531 608.917969 374.496094 609.6875 370.691406 L 615.484375 341.839844 C 616.210938 338.035156 615.03125 334.097656 612.269531 331.378906 Z M 157.339844 687.929688 C 143.84375 701.472656 121.738281 701.472656 108.152344 687.976562 C 94.609375 674.339844 94.609375 652.238281 108.152344 638.742188 L 464.703125 282.144531 L 513.9375 331.378906 Z M 600.675781 535.96875 C 629.164062 532.617188 657.109375 542.265625 677.402344 562.421875 C 701.089844 586.15625 709.878906 620.488281 701.363281 652.011719 L 650.226562 600.875 C 648.050781 598.703125 645.109375 597.476562 641.980469 597.476562 L 592.839844 597.476562 C 586.453125 597.476562 581.242188 602.6875 581.242188 609.074219 L 581.242188 658.21875 C 581.242188 661.296875 582.464844 664.285156 584.640625 666.460938 L 635.777344 717.597656 C 604.253906 726.066406 569.921875 717.324219 546.1875 693.636719 C 526.03125 673.390625 516.382812 645.398438 519.734375 616.953125 C 521.910156 598.835938 515.886719 581.21875 503.292969 568.761719 L 406.320312 471.789062 L 455.554688 422.554688 L 552.480469 519.484375 C 564.984375 532.164062 582.648438 538.144531 600.675781 535.96875 Z M 198.105469 287.535156 C 195.660156 287.535156 193.214844 287.671875 190.765625 287.941406 C 162.230469 291.292969 134.285156 281.644531 114.039062 261.492188 C 90.351562 237.757812 81.5625 203.425781 90.078125 171.898438 L 141.214844 223.035156 C 143.390625 225.210938 146.378906 226.433594 149.460938 226.433594 L 198.601562 226.433594 C 204.988281 226.433594 210.199219 221.222656 210.199219 214.835938 L 210.199219 165.695312 C 210.199219 162.613281 208.976562 159.625 206.800781 157.449219 L 155.664062 106.3125 C 187.1875 97.800781 221.523438 106.539062 245.210938 130.273438 C 265.410156 150.519531 275.058594 178.511719 271.753906 206.957031 C 269.53125 225.074219 275.511719 242.695312 288.148438 255.148438 L 373.527344 340.527344 L 324.292969 389.761719 L 238.960938 304.429688 C 228.132812 293.46875 213.550781 287.535156 198.105469 287.535156 Z M 596.460938 397.550781 L 620.511719 421.558594 C 622.777344 423.824219 625.722656 424.953125 628.710938 424.953125 C 631.65625 424.953125 634.597656 423.824219 636.863281 421.558594 L 751.683594 306.785156 C 756.210938 302.253906 756.210938 294.917969 751.683594 290.386719 L 727.679688 266.382812 C 719.433594 258.09375 707.703125 254.558594 696.242188 256.824219 L 673.507812 261.398438 L 661.457031 249.398438 L 686.097656 224.800781 C 688.273438 222.628906 689.496094 219.640625 689.496094 216.605469 C 689.496094 213.523438 688.273438 210.582031 686.097656 208.40625 L 612.542969 134.804688 C 594.652344 116.957031 572.09375 104.910156 547.363281 99.929688 L 376.789062 65.820312 C 372.984375 65.050781 369.042969 66.273438 366.324219 68.992188 L 349.929688 85.390625 C 347.300781 88.015625 346.078125 91.773438 346.667969 95.445312 C 347.257812 99.15625 349.613281 102.285156 352.917969 103.960938 L 459.359375 157.179688 C 469.457031 162.253906 476.34375 171.582031 478.15625 182.726562 C 479.96875 193.914062 476.433594 204.917969 468.417969 212.890625 L 440.109375 241.199219 C 437.933594 243.371094 436.710938 246.316406 436.710938 249.398438 C 436.710938 252.429688 437.933594 255.421875 440.109375 257.59375 L 448.308594 265.746094 L 389.921875 324.132812 L 304.5 238.707031 C 296.980469 231.28125 293.402344 220.726562 294.761719 209.675781 C 298.929688 174.117188 286.835938 139.199219 261.652344 113.878906 C 226.910156 79.136719 173.871094 70.078125 129.710938 91.320312 C 126.316406 92.953125 123.914062 96.125 123.28125 99.835938 C 122.644531 103.550781 123.867188 107.3125 126.496094 109.984375 L 187.007812 170.449219 L 187.007812 203.242188 L 154.214844 203.242188 L 93.75 142.730469 C 91.074219 140.101562 87.316406 138.925781 83.601562 139.515625 C 79.886719 140.148438 76.71875 142.550781 75.085938 145.945312 C 53.84375 190.109375 62.902344 243.144531 97.644531 277.886719 C 123.007812 303.070312 157.882812 315.164062 193.53125 310.996094 C 204.492188 309.636719 215.042969 313.214844 222.519531 320.78125 L 307.898438 406.15625 L 91.710938 622.34375 C 69.199219 644.855469 69.152344 681.679688 91.753906 704.371094 C 103.078125 715.648438 117.933594 721.265625 132.792969 721.265625 C 147.648438 721.265625 162.503906 715.605469 173.738281 704.371094 L 389.921875 488.183594 L 486.941406 585.203125 C 494.460938 592.632812 498.039062 603.183594 496.679688 614.238281 C 492.511719 649.792969 504.5625 684.667969 529.789062 710.03125 C 551.984375 732.226562 581.695312 743.957031 611.769531 743.957031 C 628.710938 743.957031 645.832031 740.242188 661.777344 732.589844 C 665.128906 730.957031 667.527344 727.789062 668.160156 724.074219 C 668.796875 720.359375 667.574219 716.601562 664.945312 713.929688 L 604.433594 653.460938 L 604.433594 620.667969 L 637.226562 620.667969 L 697.695312 681.179688 C 700.367188 683.808594 704.171875 684.984375 707.839844 684.398438 C 711.554688 683.761719 714.722656 681.363281 716.355469 677.964844 C 737.597656 633.804688 728.539062 580.765625 693.796875 546.023438 C 668.480469 520.839844 633.558594 508.75 597.910156 512.914062 C 586.949219 514.273438 576.441406 510.695312 568.921875 503.132812 L 471.949219 406.15625 L 530.332031 347.773438 L 538.488281 355.972656 C 543.015625 360.503906 550.351562 360.503906 554.882812 355.972656 L 579.476562 331.378906 L 591.523438 343.382812 L 586.949219 366.117188 C 584.640625 377.53125 588.21875 389.308594 596.460938 397.550781 "/></g></g></svg>